ply
format ascii 1.0
comment MathUtils ply
element vertex 9
property int h_out
property double x
property double y
property double z
element half_edge 36
property int h_twin
property int h_next
property int f_left
property int e_undirected
property int v_origin
element boundary 2
property int h_negative
element face 9
property int h_right
property list uchar int V_cycle
element edge 18
property int h_directed
property list uchar int V_cycle
end_header
0 1 0 0 
2 -0.5 0.866 0 
11 -0.5 -0.866 0 
1 1 1.732 0 
5 -1 1.732 0 
8 -2 0 0 
14 -1 -1.732 0 
17 1 -1.732 0 
23 2 -0 0 
26 1 0 0 0 
3 2 0 1 3 
27 0 0 2 1 
1 4 1 1 1 
28 5 1 3 3 
6 3 1 4 4 
5 7 2 4 1 
29 8 2 5 4 
9 6 2 6 5 
8 10 3 6 1 
12 11 3 7 5 
30 9 3 8 2 
10 13 4 7 2 
31 14 4 9 5 
15 12 4 10 6 
14 16 5 10 2 
32 17 5 11 6 
19 15 5 12 7 
33 19 6 13 0 
17 20 6 12 2 
21 18 6 14 7 
20 22 7 14 0 
34 23 7 15 7 
24 21 7 16 8 
23 25 8 16 0 
35 26 8 17 8 
0 24 8 0 3 
2 30 -2 2 0 
4 35 -1 3 4 
7 28 -1 5 5 
11 33 -2 8 1 
13 29 -1 9 6 
16 31 -1 11 7 
18 27 -2 13 2 
22 32 -1 15 8 
25 34 -1 17 3 
35 
33 
0 3 0 3 1 
3 3 1 3 4 
6 3 1 4 5 
9 3 1 5 2 
12 3 2 5 6 
15 3 2 6 7 
18 3 0 2 7 
21 3 0 7 8 
24 3 0 8 3 
0 2 0 3 
1 2 1 3 
2 2 0 1 
4 2 3 4 
5 2 1 4 
7 2 4 5 
8 2 1 5 
10 2 2 5 
11 2 1 2 
13 2 5 6 
14 2 2 6 
16 2 6 7 
17 2 2 7 
18 2 0 2 
20 2 0 7 
22 2 7 8 
23 2 0 8 
25 2 3 8 
