ply
format ascii 1.0
comment MathUtils ply
element edge 18
property list uchar int V_cycle
property int h_directed
element vertex 9
property double x
property double y
property double z
property int h_out
element half_edge 36
property int e_undirected
property int v_origin
property int h_twin
property int h_next
property int f_left
element boundary 2
property int h_negative
element face 9
property int h_right
property list uchar int V_cycle
end_header
2 0 3 0 
2 1 3 1 
2 0 1 2 
2 3 4 4 
2 1 4 5 
2 4 5 7 
2 1 5 8 
2 2 5 10 
2 1 2 11 
2 5 6 13 
2 2 6 14 
2 6 7 16 
2 2 7 17 
2 0 2 18 
2 0 7 20 
2 7 8 22 
2 0 8 23 
2 3 8 25 
1 0 0 0 
-0.5 0.866 0 2 
-0.5 -0.866 0 11 
1 1.732 0 1 
-1 1.732 0 5 
-2 0 0 8 
-1 -1.732 0 14 
1 -1.732 0 17 
2 -0 0 23 
0 0 26 1 0 
1 3 3 2 0 
2 1 27 0 0 
1 1 1 4 1 
3 3 28 5 1 
4 4 6 3 1 
4 1 5 7 2 
5 4 29 8 2 
6 5 9 6 2 
6 1 8 10 3 
7 5 12 11 3 
8 2 30 9 3 
7 2 10 13 4 
9 5 31 14 4 
10 6 15 12 4 
10 2 14 16 5 
11 6 32 17 5 
12 7 19 15 5 
13 0 33 19 6 
12 2 17 20 6 
14 7 21 18 6 
14 0 20 22 7 
15 7 34 23 7 
16 8 24 21 7 
16 0 23 25 8 
17 8 35 26 8 
0 3 0 24 8 
2 0 2 30 -2 
3 4 4 35 -1 
5 5 7 28 -1 
8 1 11 33 -2 
9 6 13 29 -1 
11 7 16 31 -1 
13 2 18 27 -2 
15 8 22 32 -1 
17 3 25 34 -1 
35 
33 
0 3 0 3 1 
3 3 1 3 4 
6 3 1 4 5 
9 3 1 5 2 
12 3 2 5 6 
15 3 2 6 7 
18 3 0 2 7 
21 3 0 7 8 
24 3 0 8 3 
