ply
format ascii 1.0
comment MathUtils ply
element face 6
property list uchar int V_cycle
property int h_right
element vertex 7
property double x
property double y
property double z
property int h_out
element edge 12
property list uchar int V_cycle
property int h_directed
element half_edge 24
property int h_twin
property int h_next
property int f_left
property int e_undirected
property int v_origin
element boundary 1
property int h_negative
end_header
3 0 1 2 0 
3 0 2 3 3 
3 0 3 4 6 
3 0 4 5 9 
3 0 5 6 12 
3 0 6 1 15 
0 0 0.1 0 
0.800038 0 0.1 1 
0.470866 0.815564 0.05 2 
-0.486976 0.843467 -0.05 5 
-0.89681 1.09827e-16 -0.1 8 
-0.429691 -0.744246 -0.05 11 
0.478786 -0.829282 0.05 14 
2 0 1 0 
2 1 2 1 
2 0 2 2 
2 2 3 4 
2 0 3 5 
2 3 4 7 
2 0 4 8 
2 4 5 10 
2 0 5 11 
2 5 6 13 
2 0 6 14 
2 1 6 16 
17 1 0 0 0 
18 2 0 1 1 
3 0 0 2 2 
2 4 1 2 0 
19 5 1 3 2 
6 3 1 4 3 
5 7 2 4 0 
20 8 2 5 3 
9 6 2 6 4 
8 10 3 6 0 
21 11 3 7 4 
12 9 3 8 5 
11 13 4 8 0 
22 14 4 9 5 
15 12 4 10 6 
14 16 5 10 0 
23 17 5 11 6 
0 15 5 0 1 
1 23 -1 1 2 
4 18 -1 3 3 
7 19 -1 5 4 
10 20 -1 7 5 
13 21 -1 9 6 
16 22 -1 11 1 
23 
