ply
format ascii 1.0
comment MathUtils ply
element half_edge 24
property int f_left
property int e_undirected
property int v_origin
property int h_twin
property int h_next
element vertex 7
property double x
property double y
property double z
property int h_out
element edge 12
property list uchar int V_cycle
property int h_directed
element face 6
property list uchar int V_cycle
property int h_right
element boundary 1
property int h_negative
end_header
0 0 0 17 1 
0 1 1 18 2 
0 2 2 3 0 
1 2 0 2 4 
1 3 2 19 5 
1 4 3 6 3 
2 4 0 5 7 
2 5 3 20 8 
2 6 4 9 6 
3 6 0 8 10 
3 7 4 21 11 
3 8 5 12 9 
4 8 0 11 13 
4 9 5 22 14 
4 10 6 15 12 
5 10 0 14 16 
5 11 6 23 17 
5 0 1 0 15 
-1 1 2 1 23 
-1 3 3 4 18 
-1 5 4 7 19 
-1 7 5 10 20 
-1 9 6 13 21 
-1 11 1 16 22 
0 0 0.1 0 
0.800038 0 0.1 1 
0.470866 0.815564 0.05 2 
-0.486976 0.843467 -0.05 5 
-0.89681 1.09827e-16 -0.1 8 
-0.429691 -0.744246 -0.05 11 
0.478786 -0.829282 0.05 14 
2 0 1 0 
2 0 2 1 
2 0 3 2 
2 0 4 4 
2 0 5 5 
2 0 6 7 
2 1 2 8 
2 1 6 10 
2 2 3 11 
2 3 4 13 
2 4 5 14 
2 5 6 16 
3 0 1 2 0 
3 0 2 3 3 
3 0 3 4 6 
3 0 4 5 9 
3 0 5 6 12 
3 0 6 1 15 
23 
