ply
format ascii 1.0
comment MathUtils ply
element half_edge 60
property int f_left
property int e_undirected
property int h_twin
property int v_origin
property int h_next
element edge 30
property list uchar int V_cycle
property int h_directed
element vertex 12
property double x
property double y
property double z
property int h_out
element face 20
property int h_right
property list uchar int V_cycle
element boundary 0
property int h_negative
end_header
0 0 3 2 1 
0 1 47 1 2 
0 2 43 0 0 
1 0 0 1 4 
1 3 38 2 5 
1 4 40 3 3 
2 5 56 5 7 
2 6 11 4 8 
2 7 37 3 6 
3 8 58 4 10 
3 9 41 8 11 
3 6 7 3 9 
4 10 53 7 13 
4 11 17 6 14 
4 12 46 0 12 
5 13 49 6 16 
5 14 44 9 17 
5 11 13 0 15 
6 15 21 11 19 
6 16 59 10 20 
6 17 55 4 18 
7 15 18 10 22 
7 18 50 11 23 
7 19 52 6 21 
8 20 27 9 25 
8 21 36 5 26 
8 22 42 2 24 
9 20 24 5 28 
9 23 48 9 29 
9 24 54 11 27 
10 25 33 8 31 
10 26 45 7 32 
10 27 39 1 30 
11 25 30 7 34 
11 28 57 8 35 
11 29 51 10 33 
12 21 25 2 37 
12 7 8 5 38 
12 3 4 3 36 
13 27 32 8 40 
13 4 5 1 41 
13 9 10 3 39 
14 22 26 9 43 
14 2 2 2 44 
14 14 16 0 42 
15 26 31 1 46 
15 12 14 7 47 
15 1 1 0 45 
16 23 28 11 49 
16 13 15 9 50 
16 18 22 6 48 
17 29 35 7 52 
17 19 23 10 53 
17 10 12 6 51 
18 24 29 5 55 
18 17 20 11 56 
18 5 6 4 54 
19 28 34 10 58 
19 8 9 8 59 
19 16 19 4 57 
2 1 2 0 
2 0 1 1 
2 0 2 2 
2 2 3 4 
2 1 3 5 
2 4 5 6 
2 3 4 7 
2 3 5 8 
2 4 8 9 
2 3 8 10 
2 6 7 12 
2 0 6 13 
2 0 7 14 
2 6 9 15 
2 0 9 16 
2 10 11 18 
2 4 10 19 
2 4 11 20 
2 6 11 22 
2 6 10 23 
2 5 9 24 
2 2 5 25 
2 2 9 26 
2 9 11 28 
2 5 11 29 
2 7 8 30 
2 1 7 31 
2 1 8 32 
2 8 10 34 
2 7 10 35 
0 0.525731 -0.765586 2 
0.525731 0.850651 0 1 
-0.525731 0.850651 0 0 
0 0.525731 0.765586 5 
0 -0.525731 0.765586 7 
-0.850651 0 0.473158 6 
0 -0.525731 -0.765586 13 
0.850651 0 -0.473158 12 
0.850651 0 0.473158 10 
-0.850651 0 -0.473158 16 
0.525731 -0.850651 0 19 
-0.525731 -0.850651 0 18 
0 3 2 1 0 
3 3 1 2 3 
6 3 5 4 3 
9 3 4 8 3 
12 3 7 6 0 
15 3 6 9 0 
18 3 11 10 4 
21 3 10 11 6 
24 3 9 5 2 
27 3 5 9 11 
30 3 8 7 1 
33 3 7 8 10 
36 3 2 5 3 
39 3 8 1 3 
42 3 9 2 0 
45 3 1 7 0 
48 3 11 9 6 
51 3 7 10 6 
54 3 5 11 4 
57 3 10 8 4 
