ply
format ascii 1.0
comment MathUtils ply
element face 80
property int h_right
property list uchar int V_cycle
element vertex 42
property double x
property double y
property double z
property int h_out
element half_edge 240
property int f_left
property int e_undirected
property int v_origin
property int h_twin
property int h_next
element boundary 0
property int h_negative
element edge 120
property int h_directed
property list uchar int V_cycle
end_header
0 3 2 12 14 
3 3 12 1 13 
6 3 14 13 0 
9 3 12 13 14 
12 3 1 12 16 
15 3 12 2 15 
18 3 16 15 3 
21 3 12 15 16 
24 3 5 17 19 
27 3 17 4 18 
30 3 19 18 3 
33 3 17 18 19 
36 3 4 20 18 
39 3 20 8 21 
42 3 18 21 3 
45 3 20 21 18 
48 3 7 22 24 
51 3 22 6 23 
54 3 24 23 0 
57 3 22 23 24 
60 3 6 25 23 
63 3 25 9 26 
66 3 23 26 0 
69 3 25 26 23 
72 3 11 27 29 
75 3 27 10 28 
78 3 29 28 4 
81 3 27 28 29 
84 3 10 27 31 
87 3 27 11 30 
90 3 31 30 6 
93 3 27 30 31 
96 3 9 32 34 
99 3 32 5 33 
102 3 34 33 2 
105 3 32 33 34 
108 3 5 32 36 
111 3 32 9 35 
114 3 36 35 11 
117 3 32 35 36 
120 3 8 37 39 
123 3 37 7 38 
126 3 39 38 1 
129 3 37 38 39 
132 3 7 37 41 
135 3 37 8 40 
138 3 41 40 10 
141 3 37 40 41 
144 3 2 33 15 
147 3 33 5 19 
150 3 15 19 3 
153 3 33 19 15 
156 3 8 39 21 
159 3 39 1 16 
162 3 21 16 3 
165 3 39 16 21 
168 3 9 34 26 
171 3 34 2 14 
174 3 26 14 0 
177 3 34 14 26 
180 3 1 38 13 
183 3 38 7 24 
186 3 13 24 0 
189 3 38 24 13 
192 3 11 35 30 
195 3 35 9 25 
198 3 30 25 6 
201 3 35 25 30 
204 3 7 41 22 
207 3 41 10 31 
210 3 22 31 6 
213 3 41 31 22 
216 3 5 36 17 
219 3 36 11 29 
222 3 17 29 4 
225 3 36 29 17 
228 3 10 40 28 
231 3 40 8 20 
234 3 28 20 4 
237 3 40 20 28 
0 0.525731 -0.765586 8 
0.525731 0.850651 0 4 
-0.525731 0.850651 0 0 
0 0.525731 0.765586 20 
0 -0.525731 0.765586 28 
-0.850651 0 0.473158 24 
0 -0.525731 -0.765586 52 
0.850651 0 -0.473158 48 
0.850651 0 0.473158 40 
-0.850651 0 -0.473158 64 
0.525731 -0.850651 0 76 
-0.525731 -0.850651 0 72 
0 1 0 1 
0.309017 0.809017 -0.45 5 
-0.309017 0.809017 -0.45 2 
-0.309017 0.809017 0.45 17 
0.309017 0.809017 0.45 14 
-0.5 -0.309017 0.728115 25 
0 0 0.9 29 
-0.5 0.309017 0.728115 26 
0.5 -0.309017 0.728115 37 
0.5 0.309017 0.728115 41 
0.5 -0.309017 -0.728115 49 
0 0 -0.9 53 
0.5 0.309017 -0.728115 50 
-0.5 -0.309017 -0.728115 61 
-0.5 0.309017 -0.728115 65 
0 -1 0 73 
0.309017 -0.809017 0.45 77 
-0.309017 -0.809017 0.45 74 
-0.309017 -0.809017 -0.45 89 
0.309017 -0.809017 -0.45 86 
-1 0 0 97 
-0.809017 0.5 0.278115 101 
-0.809017 0.5 -0.278115 98 
-0.809017 -0.5 -0.278115 113 
-0.809017 -0.5 0.278115 110 
1 0 0 121 
0.809017 0.5 -0.278115 125 
0.809017 0.5 0.278115 122 
0.809017 -0.5 0.278115 137 
0.809017 -0.5 -0.278115 134 
0 0 2 15 1 
0 1 12 11 2 
0 2 14 172 0 
1 3 12 12 4 
1 4 1 182 5 
1 5 13 9 3 
2 6 14 10 7 
2 7 13 188 8 
2 8 0 175 6 
3 5 12 5 10 
3 6 13 6 11 
3 1 14 1 9 
4 3 1 3 13 
4 9 12 23 14 
4 10 16 160 12 
5 0 12 0 16 
5 11 2 146 17 
5 12 15 21 15 
6 13 16 22 19 
6 14 15 152 20 
6 15 3 163 18 
7 12 12 17 22 
7 13 15 18 23 
7 9 16 13 21 
8 16 5 218 25 
8 17 17 35 26 
8 18 19 148 24 
9 19 17 224 28 
9 20 4 38 29 
9 21 18 33 27 
10 22 19 34 31 
10 23 18 44 32 
10 24 3 151 30 
11 21 17 29 34 
11 22 18 30 35 
11 17 19 25 33 
12 25 4 235 37 
12 26 20 47 38 
12 20 18 28 36 
13 27 20 232 40 
13 28 8 158 41 
13 29 21 45 39 
14 30 18 46 43 
14 31 21 164 44 
14 23 3 31 42 
15 29 20 41 46 
15 30 21 42 47 
15 26 18 37 45 
16 32 7 206 49 
16 33 22 59 50 
16 34 24 184 48 
17 35 22 212 52 
17 36 6 62 53 
17 37 23 57 51 
18 38 24 58 55 
18 39 23 68 56 
18 40 0 187 54 
19 37 22 53 58 
19 38 23 54 59 
19 33 24 49 57 
20 41 6 199 61 
20 42 25 71 62 
20 36 23 52 60 
21 43 25 196 64 
21 44 9 170 65 
21 45 26 69 63 
22 46 23 70 67 
22 47 26 176 68 
22 39 0 55 66 
23 45 25 65 70 
23 46 26 66 71 
23 42 23 61 69 
24 48 11 87 73 
24 49 27 83 74 
24 50 29 220 72 
25 51 27 84 76 
25 52 10 230 77 
25 53 28 81 75 
26 54 29 82 79 
26 55 28 236 80 
26 56 4 223 78 
27 53 27 77 82 
27 54 28 78 83 
27 49 29 73 81 
28 51 10 75 85 
28 57 27 95 86 
28 58 31 208 84 
29 48 27 72 88 
29 59 11 194 89 
29 60 30 93 87 
30 61 31 94 91 
30 62 30 200 92 
30 63 6 211 90 
31 60 27 89 94 
31 61 30 90 95 
31 57 31 85 93 
32 64 9 111 97 
32 65 32 107 98 
32 66 34 168 96 
33 67 32 108 100 
33 68 5 147 101 
33 69 33 105 99 
34 70 34 106 103 
34 71 33 144 104 
34 72 2 171 102 
35 69 32 101 106 
35 70 33 102 107 
35 65 34 97 105 
36 67 5 99 109 
36 73 32 119 110 
36 74 36 216 108 
37 64 32 96 112 
37 75 9 195 113 
37 76 35 117 111 
38 77 36 118 115 
38 78 35 192 116 
38 79 11 219 114 
39 76 32 113 118 
39 77 35 114 119 
39 73 36 109 117 
40 80 8 135 121 
40 81 37 131 122 
40 82 39 156 120 
41 83 37 132 124 
41 84 7 183 125 
41 85 38 129 123 
42 86 39 130 127 
42 87 38 180 128 
42 88 1 159 126 
43 85 37 125 130 
43 86 38 126 131 
43 81 39 121 129 
44 83 7 123 133 
44 89 37 143 134 
44 90 41 204 132 
45 80 37 120 136 
45 91 8 231 137 
45 92 40 141 135 
46 93 41 142 139 
46 94 40 228 140 
46 95 10 207 138 
47 92 37 137 142 
47 93 40 138 143 
47 89 41 133 141 
48 71 2 103 145 
48 96 33 155 146 
48 11 15 16 144 
49 68 33 100 148 
49 18 5 26 149 
49 97 19 153 147 
50 98 15 154 151 
50 24 19 32 152 
50 14 3 19 150 
51 97 33 149 154 
51 98 19 150 155 
51 96 15 145 153 
52 82 8 122 157 
52 99 39 167 158 
52 28 21 40 156 
53 88 39 128 160 
53 10 1 14 161 
53 100 16 165 159 
54 101 21 166 163 
54 15 16 20 164 
54 31 3 43 162 
55 100 39 161 166 
55 101 16 162 167 
55 99 21 157 165 
56 66 9 98 169 
56 102 34 179 170 
56 44 26 64 168 
57 72 34 104 172 
57 2 2 2 173 
57 103 14 177 171 
58 104 26 178 175 
58 8 14 8 176 
58 47 0 67 174 
59 103 34 173 178 
59 104 14 174 179 
59 102 26 169 177 
60 87 1 127 181 
60 105 38 191 182 
60 4 13 4 180 
61 84 38 124 184 
61 34 7 50 185 
61 106 24 189 183 
62 107 13 190 187 
62 40 24 56 188 
62 7 0 7 186 
63 106 38 185 190 
63 107 24 186 191 
63 105 13 181 189 
64 78 11 115 193 
64 108 35 203 194 
64 59 30 88 192 
65 75 35 112 196 
65 43 9 63 197 
65 109 25 201 195 
66 110 30 202 199 
66 41 25 60 200 
66 62 6 91 198 
67 109 35 197 202 
67 110 25 198 203 
67 108 30 193 201 
68 90 7 134 205 
68 111 41 215 206 
68 32 22 48 204 
69 95 41 140 208 
69 58 10 86 209 
69 112 31 213 207 
70 113 22 214 211 
70 63 31 92 212 
70 35 6 51 210 
71 112 41 209 214 
71 113 31 210 215 
71 111 22 205 213 
72 74 5 110 217 
72 114 36 227 218 
72 16 17 24 216 
73 79 36 116 220 
73 50 11 74 221 
73 115 29 225 219 
74 116 17 226 223 
74 56 29 80 224 
74 19 4 27 222 
75 115 36 221 226 
75 116 29 222 227 
75 114 17 217 225 
76 94 10 139 229 
76 117 40 239 230 
76 52 28 76 228 
77 91 40 136 232 
77 27 8 39 233 
77 118 20 237 231 
78 119 28 238 235 
78 25 20 36 236 
78 55 4 79 234 
79 118 40 233 238 
79 119 20 234 239 
79 117 28 229 237 
0 2 2 12 
1 2 12 14 
2 2 2 14 
3 2 1 12 
4 2 1 13 
5 2 12 13 
6 2 13 14 
7 2 0 13 
8 2 0 14 
13 2 12 16 
14 2 1 16 
16 2 2 15 
17 2 12 15 
18 2 15 16 
19 2 3 15 
20 2 3 16 
24 2 5 17 
25 2 17 19 
26 2 5 19 
27 2 4 17 
28 2 4 18 
29 2 17 18 
30 2 18 19 
31 2 3 18 
32 2 3 19 
36 2 4 20 
37 2 18 20 
39 2 8 20 
40 2 8 21 
41 2 20 21 
42 2 18 21 
43 2 3 21 
48 2 7 22 
49 2 22 24 
50 2 7 24 
51 2 6 22 
52 2 6 23 
53 2 22 23 
54 2 23 24 
55 2 0 23 
56 2 0 24 
60 2 6 25 
61 2 23 25 
63 2 9 25 
64 2 9 26 
65 2 25 26 
66 2 23 26 
67 2 0 26 
72 2 11 27 
73 2 27 29 
74 2 11 29 
75 2 10 27 
76 2 10 28 
77 2 27 28 
78 2 28 29 
79 2 4 28 
80 2 4 29 
85 2 27 31 
86 2 10 31 
88 2 11 30 
89 2 27 30 
90 2 30 31 
91 2 6 30 
92 2 6 31 
96 2 9 32 
97 2 32 34 
98 2 9 34 
99 2 5 32 
100 2 5 33 
101 2 32 33 
102 2 33 34 
103 2 2 33 
104 2 2 34 
109 2 32 36 
110 2 5 36 
112 2 9 35 
113 2 32 35 
114 2 35 36 
115 2 11 35 
116 2 11 36 
120 2 8 37 
121 2 37 39 
122 2 8 39 
123 2 7 37 
124 2 7 38 
125 2 37 38 
126 2 38 39 
127 2 1 38 
128 2 1 39 
133 2 37 41 
134 2 7 41 
136 2 8 40 
137 2 37 40 
138 2 40 41 
139 2 10 40 
140 2 10 41 
145 2 15 33 
149 2 19 33 
150 2 15 19 
157 2 21 39 
161 2 16 39 
162 2 16 21 
169 2 26 34 
173 2 14 34 
174 2 14 26 
181 2 13 38 
185 2 24 38 
186 2 13 24 
193 2 30 35 
197 2 25 35 
198 2 25 30 
205 2 22 41 
209 2 31 41 
210 2 22 31 
217 2 17 36 
221 2 29 36 
222 2 17 29 
229 2 28 40 
233 2 20 40 
234 2 20 28 
