ply
format ascii 1.0
comment MathUtils ply
element edge 480
property list uchar int V_cycle
property int h_directed
element vertex 162
property double x
property double y
property double z
property int h_out
element half_edge 960
property int f_left
property int v_origin
property int h_next
property int h_twin
property int e_undirected
element boundary 0
property int h_negative
element face 320
property int h_right
property list uchar int V_cycle
end_header
2 2 42 0 
2 42 44 1 
2 2 44 2 
2 12 42 3 
2 12 43 4 
2 42 43 5 
2 43 44 6 
2 14 43 7 
2 14 44 8 
2 12 45 12 
2 45 47 13 
2 12 47 14 
2 1 45 15 
2 1 46 16 
2 45 46 17 
2 46 47 18 
2 13 46 19 
2 13 47 20 
2 14 48 24 
2 48 50 25 
2 14 50 26 
2 13 48 27 
2 13 49 28 
2 48 49 29 
2 49 50 30 
2 0 49 31 
2 0 50 32 
2 43 47 37 
2 47 48 41 
2 43 48 42 
2 45 52 49 
2 1 52 50 
2 12 51 52 
2 45 51 53 
2 51 52 54 
2 16 51 55 
2 16 52 56 
2 42 54 61 
2 12 54 62 
2 2 53 64 
2 42 53 65 
2 53 54 66 
2 15 53 67 
2 15 54 68 
2 16 55 72 
2 55 57 73 
2 16 57 74 
2 15 55 75 
2 15 56 76 
2 55 56 77 
2 56 57 78 
2 3 56 79 
2 3 57 80 
2 51 54 85 
2 54 55 89 
2 51 55 90 
2 5 58 96 
2 58 60 97 
2 5 60 98 
2 17 58 99 
2 17 59 100 
2 58 59 101 
2 59 60 102 
2 19 59 103 
2 19 60 104 
2 17 61 108 
2 61 63 109 
2 17 63 110 
2 4 61 111 
2 4 62 112 
2 61 62 113 
2 62 63 114 
2 18 62 115 
2 18 63 116 
2 19 64 120 
2 64 66 121 
2 19 66 122 
2 18 64 123 
2 18 65 124 
2 64 65 125 
2 65 66 126 
2 3 65 127 
2 3 66 128 
2 59 63 133 
2 63 64 137 
2 59 64 138 
2 4 67 144 
2 62 67 145 
2 20 67 147 
2 20 68 148 
2 67 68 149 
2 62 68 150 
2 18 68 151 
2 20 69 156 
2 69 71 157 
2 20 71 158 
2 8 69 159 
2 8 70 160 
2 69 70 161 
2 70 71 162 
2 21 70 163 
2 21 71 164 
2 18 72 168 
2 65 72 169 
2 21 72 171 
2 21 73 172 
2 72 73 173 
2 65 73 174 
2 3 73 175 
2 68 71 181 
2 71 72 185 
2 68 72 186 
2 7 74 192 
2 74 76 193 
2 7 76 194 
2 22 74 195 
2 22 75 196 
2 74 75 197 
2 75 76 198 
2 24 75 199 
2 24 76 200 
2 22 77 204 
2 77 79 205 
2 22 79 206 
2 6 77 207 
2 6 78 208 
2 77 78 209 
2 78 79 210 
2 23 78 211 
2 23 79 212 
2 24 80 216 
2 80 82 217 
2 24 82 218 
2 23 80 219 
2 23 81 220 
2 80 81 221 
2 81 82 222 
2 0 81 223 
2 0 82 224 
2 75 79 229 
2 79 80 233 
2 75 80 234 
2 6 83 240 
2 78 83 241 
2 25 83 243 
2 25 84 244 
2 83 84 245 
2 78 84 246 
2 23 84 247 
2 25 85 252 
2 85 87 253 
2 25 87 254 
2 9 85 255 
2 9 86 256 
2 85 86 257 
2 86 87 258 
2 26 86 259 
2 26 87 260 
2 23 88 264 
2 81 88 265 
2 26 88 267 
2 26 89 268 
2 88 89 269 
2 81 89 270 
2 0 89 271 
2 84 87 277 
2 87 88 281 
2 84 88 282 
2 11 90 288 
2 90 92 289 
2 11 92 290 
2 27 90 291 
2 27 91 292 
2 90 91 293 
2 91 92 294 
2 29 91 295 
2 29 92 296 
2 27 93 300 
2 93 95 301 
2 27 95 302 
2 10 93 303 
2 10 94 304 
2 93 94 305 
2 94 95 306 
2 28 94 307 
2 28 95 308 
2 29 96 312 
2 96 98 313 
2 29 98 314 
2 28 96 315 
2 28 97 316 
2 96 97 317 
2 97 98 318 
2 4 97 319 
2 4 98 320 
2 91 95 325 
2 95 96 329 
2 91 96 330 
2 93 100 337 
2 10 100 338 
2 27 99 340 
2 93 99 341 
2 99 100 342 
2 31 99 343 
2 31 100 344 
2 90 102 349 
2 27 102 350 
2 11 101 352 
2 90 101 353 
2 101 102 354 
2 30 101 355 
2 30 102 356 
2 31 103 360 
2 103 105 361 
2 31 105 362 
2 30 103 363 
2 30 104 364 
2 103 104 365 
2 104 105 366 
2 6 104 367 
2 6 105 368 
2 99 102 373 
2 102 103 377 
2 99 103 378 
2 9 106 384 
2 106 108 385 
2 9 108 386 
2 32 106 387 
2 32 107 388 
2 106 107 389 
2 107 108 390 
2 34 107 391 
2 34 108 392 
2 32 109 396 
2 109 111 397 
2 32 111 398 
2 5 109 399 
2 5 110 400 
2 109 110 401 
2 110 111 402 
2 33 110 403 
2 33 111 404 
2 34 112 408 
2 112 114 409 
2 34 114 410 
2 33 112 411 
2 33 113 412 
2 112 113 413 
2 113 114 414 
2 2 113 415 
2 2 114 416 
2 107 111 421 
2 111 112 425 
2 107 112 426 
2 109 116 433 
2 5 116 434 
2 32 115 436 
2 109 115 437 
2 115 116 438 
2 36 115 439 
2 36 116 440 
2 106 118 445 
2 32 118 446 
2 9 117 448 
2 106 117 449 
2 117 118 450 
2 35 117 451 
2 35 118 452 
2 36 119 456 
2 119 121 457 
2 36 121 458 
2 35 119 459 
2 35 120 460 
2 119 120 461 
2 120 121 462 
2 11 120 463 
2 11 121 464 
2 115 118 469 
2 118 119 473 
2 115 119 474 
2 8 122 480 
2 122 124 481 
2 8 124 482 
2 37 122 483 
2 37 123 484 
2 122 123 485 
2 123 124 486 
2 39 123 487 
2 39 124 488 
2 37 125 492 
2 125 127 493 
2 37 127 494 
2 7 125 495 
2 7 126 496 
2 125 126 497 
2 126 127 498 
2 38 126 499 
2 38 127 500 
2 39 128 504 
2 128 130 505 
2 39 130 506 
2 38 128 507 
2 38 129 508 
2 128 129 509 
2 129 130 510 
2 1 129 511 
2 1 130 512 
2 123 127 517 
2 127 128 521 
2 123 128 522 
2 125 132 529 
2 7 132 530 
2 37 131 532 
2 125 131 533 
2 131 132 534 
2 41 131 535 
2 41 132 536 
2 122 134 541 
2 37 134 542 
2 8 133 544 
2 122 133 545 
2 133 134 546 
2 40 133 547 
2 40 134 548 
2 41 135 552 
2 135 137 553 
2 41 137 554 
2 40 135 555 
2 40 136 556 
2 135 136 557 
2 136 137 558 
2 10 136 559 
2 10 137 560 
2 131 134 565 
2 134 135 569 
2 131 135 570 
2 53 113 577 
2 33 138 580 
2 113 138 581 
2 53 138 582 
2 15 138 583 
2 110 139 589 
2 33 139 590 
2 60 110 593 
2 60 139 594 
2 19 139 596 
2 15 140 600 
2 56 140 601 
2 19 140 603 
2 66 140 605 
2 56 66 606 
2 138 139 613 
2 139 140 617 
2 138 140 618 
2 70 124 625 
2 39 141 628 
2 124 141 629 
2 70 141 630 
2 21 141 631 
2 130 142 637 
2 39 142 638 
2 52 130 641 
2 52 142 642 
2 16 142 644 
2 21 143 648 
2 73 143 649 
2 16 143 651 
2 57 143 653 
2 57 73 654 
2 141 142 661 
2 142 143 665 
2 141 143 666 
2 86 108 673 
2 34 144 676 
2 108 144 677 
2 86 144 678 
2 26 144 679 
2 114 145 685 
2 34 145 686 
2 44 114 689 
2 44 145 690 
2 14 145 692 
2 26 146 696 
2 89 146 697 
2 14 146 699 
2 50 146 701 
2 50 89 702 
2 144 145 709 
2 145 146 713 
2 144 146 714 
2 46 129 721 
2 38 147 724 
2 129 147 725 
2 46 147 726 
2 13 147 727 
2 126 148 733 
2 38 148 734 
2 76 126 737 
2 76 148 738 
2 24 148 740 
2 13 149 744 
2 49 149 745 
2 24 149 747 
2 82 149 749 
2 49 82 750 
2 147 148 757 
2 148 149 761 
2 147 149 762 
2 101 120 769 
2 35 150 772 
2 120 150 773 
2 101 150 774 
2 30 150 775 
2 117 151 781 
2 35 151 782 
2 85 117 785 
2 85 151 786 
2 25 151 788 
2 30 152 792 
2 104 152 793 
2 25 152 795 
2 83 152 797 
2 83 104 798 
2 150 151 805 
2 151 152 809 
2 150 152 810 
2 74 132 817 
2 41 153 820 
2 132 153 821 
2 74 153 822 
2 22 153 823 
2 137 154 829 
2 41 154 830 
2 100 137 833 
2 100 154 834 
2 31 154 836 
2 22 155 840 
2 77 155 841 
2 31 155 843 
2 105 155 845 
2 77 105 846 
2 153 154 853 
2 154 155 857 
2 153 155 858 
2 58 116 865 
2 36 156 868 
2 116 156 869 
2 58 156 870 
2 17 156 871 
2 121 157 877 
2 36 157 878 
2 92 121 881 
2 92 157 882 
2 29 157 884 
2 17 158 888 
2 61 158 889 
2 29 158 891 
2 98 158 893 
2 61 98 894 
2 156 157 901 
2 157 158 905 
2 156 158 906 
2 94 136 913 
2 40 159 916 
2 136 159 917 
2 94 159 918 
2 28 159 919 
2 133 160 925 
2 40 160 926 
2 69 133 929 
2 69 160 930 
2 20 160 932 
2 28 161 936 
2 97 161 937 
2 20 161 939 
2 67 161 941 
2 67 97 942 
2 159 160 949 
2 160 161 953 
2 159 161 954 
0 0.525731 -0.765586 32 
0.525731 0.850651 0 16 
-0.525731 0.850651 0 0 
0 0.525731 0.765586 80 
0 -0.525731 0.765586 112 
-0.850651 0 0.473158 96 
0 -0.525731 -0.765586 208 
0.850651 0 -0.473158 192 
0.850651 0 0.473158 160 
-0.850651 0 -0.473158 256 
0.525731 -0.850651 0 304 
-0.525731 -0.850651 0 288 
0 1 0 4 
0.309017 0.809017 -0.45 20 
-0.309017 0.809017 -0.45 8 
-0.309017 0.809017 0.45 68 
0.309017 0.809017 0.45 56 
-0.5 -0.309017 0.728115 100 
0 0 0.9 116 
-0.5 0.309017 0.728115 104 
0.5 -0.309017 0.728115 148 
0.5 0.309017 0.728115 164 
0.5 -0.309017 -0.728115 196 
0 0 -0.9 212 
0.5 0.309017 -0.728115 200 
-0.5 -0.309017 -0.728115 244 
-0.5 0.309017 -0.728115 260 
0 -1 0 292 
0.309017 -0.809017 0.45 308 
-0.309017 -0.809017 0.45 296 
-0.309017 -0.809017 -0.45 356 
0.309017 -0.809017 -0.45 344 
-1 0 0 388 
-0.809017 0.5 0.278115 404 
-0.809017 0.5 -0.278115 392 
-0.809017 -0.5 -0.278115 452 
-0.809017 -0.5 0.278115 440 
1 0 0 484 
0.809017 0.5 -0.278115 500 
0.809017 0.5 0.278115 488 
0.809017 -0.5 0.278115 548 
0.809017 -0.5 -0.278115 536 
-0.273267 0.961938 0 1 
-0.16246 0.951057 -0.236579 5 
-0.433889 0.862668 -0.233903 2 
0.273267 0.961938 0 13 
0.433889 0.862668 -0.233903 17 
0.16246 0.951057 -0.236579 14 
0 0.850651 -0.473158 25 
0.160622 0.69378 -0.631842 29 
-0.160622 0.69378 -0.631842 26 
0.16246 0.951057 0.236579 53 
0.433889 0.862668 0.233903 50 
-0.433889 0.862668 0.233903 65 
-0.16246 0.951057 0.236579 62 
0 0.850651 0.473158 73 
-0.160622 0.69378 0.631842 77 
0.160622 0.69378 0.631842 74 
-0.702046 -0.160622 0.624402 97 
-0.525731 0 0.765586 101 
-0.702046 0.160622 0.624402 98 
-0.259892 -0.433889 0.776402 109 
0 -0.273267 0.865745 113 
-0.262866 -0.16246 0.855951 110 
-0.262866 0.16246 0.855951 121 
0 0.273267 0.865745 125 
-0.259892 0.433889 0.776402 122 
0.259892 -0.433889 0.776402 145 
0.262866 -0.16246 0.855951 149 
0.702046 -0.160622 0.624402 157 
0.702046 0.160622 0.624402 161 
0.525731 0 0.765586 158 
0.262866 0.16246 0.855951 169 
0.259892 0.433889 0.776402 173 
0.702046 -0.160622 -0.624402 193 
0.525731 0 -0.765586 197 
0.702046 0.160622 -0.624402 194 
0.259892 -0.433889 -0.776402 205 
0 -0.273267 -0.865745 209 
0.262866 -0.16246 -0.855951 206 
0.262866 0.16246 -0.855951 217 
0 0.273267 -0.865745 221 
0.259892 0.433889 -0.776402 218 
-0.259892 -0.433889 -0.776402 241 
-0.262866 -0.16246 -0.855951 245 
-0.702046 -0.160622 -0.624402 253 
-0.702046 0.160622 -0.624402 257 
-0.525731 0 -0.765586 254 
-0.262866 0.16246 -0.855951 265 
-0.259892 0.433889 -0.776402 269 
-0.273267 -0.961938 0 289 
-0.16246 -0.951057 0.236579 293 
-0.433889 -0.862668 0.233903 290 
0.273267 -0.961938 0 301 
0.433889 -0.862668 0.233903 305 
0.16246 -0.951057 0.236579 302 
0 -0.850651 0.473158 313 
0.160622 -0.69378 0.631842 317 
-0.160622 -0.69378 0.631842 314 
0.16246 -0.951057 -0.236579 341 
0.433889 -0.862668 -0.233903 338 
-0.433889 -0.862668 -0.233903 353 
-0.16246 -0.951057 -0.236579 350 
0 -0.850651 -0.473158 361 
-0.160622 -0.69378 -0.631842 365 
0.160622 -0.69378 -0.631842 362 
-0.961938 0 -0.24594 385 
-0.951057 0.262866 -0.146214 389 
-0.862668 0.259892 -0.3905 386 
-0.961938 0 0.24594 397 
-0.862668 0.259892 0.3905 401 
-0.951057 0.262866 0.146214 398 
-0.850651 0.525731 0 409 
-0.69378 0.702046 0.14456 413 
-0.69378 0.702046 -0.14456 410 
-0.951057 -0.262866 0.146214 437 
-0.862668 -0.259892 0.3905 434 
-0.862668 -0.259892 -0.3905 449 
-0.951057 -0.262866 -0.146214 446 
-0.850651 -0.525731 0 457 
-0.69378 -0.702046 -0.14456 461 
-0.69378 -0.702046 0.14456 458 
0.961938 0 0.24594 481 
0.951057 0.262866 0.146214 485 
0.862668 0.259892 0.3905 482 
0.961938 0 -0.24594 493 
0.862668 0.259892 -0.3905 497 
0.951057 0.262866 -0.146214 494 
0.850651 0.525731 0 505 
0.69378 0.702046 -0.14456 509 
0.69378 0.702046 0.14456 506 
0.951057 -0.262866 -0.146214 533 
0.862668 -0.259892 -0.3905 530 
0.862668 -0.259892 0.3905 545 
0.951057 -0.262866 0.146214 542 
0.850651 -0.525731 0 553 
0.69378 -0.702046 0.14456 557 
0.69378 -0.702046 -0.14456 554 
-0.587785 0.688191 0.382793 581 
-0.688191 0.425325 0.529007 590 
-0.425325 0.587785 0.619372 601 
0.688191 0.425325 0.529007 629 
0.587785 0.688191 0.382793 638 
0.425325 0.587785 0.619372 649 
-0.688191 0.425325 -0.529007 677 
-0.587785 0.688191 -0.382793 686 
-0.425325 0.587785 -0.619372 697 
0.587785 0.688191 -0.382793 725 
0.688191 0.425325 -0.529007 734 
0.425325 0.587785 -0.619372 745 
-0.587785 -0.688191 -0.382793 773 
-0.688191 -0.425325 -0.529007 782 
-0.425325 -0.587785 -0.619372 793 
0.688191 -0.425325 -0.529007 821 
0.587785 -0.688191 -0.382793 830 
0.425325 -0.587785 -0.619372 841 
-0.688191 -0.425325 0.529007 869 
-0.587785 -0.688191 0.382793 878 
-0.425325 -0.587785 0.619372 889 
0.587785 -0.688191 0.382793 917 
0.688191 -0.425325 0.529007 926 
0.425325 -0.587785 0.619372 937 
0 2 1 63 0 
0 42 2 11 1 
0 44 0 688 2 
1 42 4 60 3 
1 12 5 38 4 
1 43 3 9 5 
2 44 7 10 6 
2 43 8 44 7 
2 14 6 691 8 
3 42 10 5 5 
3 43 11 6 6 
3 44 9 1 1 
4 12 13 51 9 
4 45 14 23 10 
4 47 12 36 11 
5 45 16 48 12 
5 1 17 722 13 
5 46 15 21 14 
6 47 19 22 15 
6 46 20 728 16 
6 13 18 39 17 
7 45 22 17 14 
7 46 23 18 15 
7 47 21 13 10 
8 14 25 43 18 
8 48 26 35 19 
8 50 24 700 20 
9 48 28 40 21 
9 13 29 746 22 
9 49 27 33 23 
10 50 31 34 24 
10 49 32 752 25 
10 0 30 703 26 
11 48 34 29 23 
11 49 35 30 24 
11 50 33 25 19 
12 12 37 14 11 
12 47 38 47 27 
12 43 36 4 4 
13 47 40 20 17 
13 13 41 27 21 
13 48 39 45 28 
14 43 43 46 29 
14 48 44 24 18 
14 14 42 7 7 
15 47 46 41 28 
15 48 47 42 29 
15 43 45 37 27 
16 1 49 15 12 
16 45 50 59 30 
16 52 48 640 31 
17 45 52 12 9 
17 12 53 86 32 
17 51 51 57 33 
18 52 55 58 34 
18 51 56 92 35 
18 16 54 643 36 
19 45 58 53 33 
19 51 59 54 34 
19 52 57 49 30 
20 12 61 3 3 
20 42 62 71 37 
20 54 60 84 38 
21 42 64 0 0 
21 2 65 578 39 
21 53 63 69 40 
22 54 67 70 41 
22 53 68 584 42 
22 15 66 87 43 
23 42 70 65 40 
23 53 71 66 41 
23 54 69 61 37 
24 16 73 91 44 
24 55 74 83 45 
24 57 72 652 46 
25 55 76 88 47 
25 15 77 602 48 
25 56 75 81 49 
26 57 79 82 50 
26 56 80 608 51 
26 3 78 655 52 
27 55 82 77 49 
27 56 83 78 50 
27 57 81 73 45 
28 12 85 62 38 
28 54 86 95 53 
28 51 84 52 32 
29 54 88 68 43 
29 15 89 75 47 
29 55 87 93 54 
30 51 91 94 55 
30 55 92 72 44 
30 16 90 55 35 
31 54 94 89 54 
31 55 95 90 55 
31 51 93 85 53 
32 5 97 866 56 
32 58 98 107 57 
32 60 96 592 58 
33 58 100 872 59 
33 17 101 134 60 
33 59 99 105 61 
34 60 103 106 62 
34 59 104 140 63 
34 19 102 595 64 
35 58 106 101 61 
35 59 107 102 62 
35 60 105 97 57 
36 17 109 890 65 
36 61 110 119 66 
36 63 108 132 67 
37 61 112 896 68 
37 4 113 146 69 
37 62 111 117 70 
38 63 115 118 71 
38 62 116 152 72 
38 18 114 135 73 
39 61 118 113 70 
39 62 119 114 71 
39 63 117 109 66 
40 19 121 139 74 
40 64 122 131 75 
40 66 120 604 76 
41 64 124 136 77 
41 18 125 170 78 
41 65 123 129 79 
42 66 127 130 80 
42 65 128 176 81 
42 3 126 607 82 
43 64 130 125 79 
43 65 131 126 80 
43 66 129 121 75 
44 17 133 110 67 
44 63 134 143 83 
44 59 132 100 60 
45 63 136 116 73 
45 18 137 123 77 
45 64 135 141 84 
46 59 139 142 85 
46 64 140 120 74 
46 19 138 103 63 
47 63 142 137 84 
47 64 143 138 85 
47 59 141 133 83 
48 4 145 943 86 
48 67 146 155 87 
48 62 144 112 69 
49 67 148 940 88 
49 20 149 182 89 
49 68 147 153 90 
50 62 151 154 91 
50 68 152 188 92 
50 18 150 115 72 
51 67 154 149 90 
51 68 155 150 91 
51 62 153 145 87 
52 20 157 931 93 
52 69 158 167 94 
52 71 156 180 95 
53 69 160 928 96 
53 8 161 626 97 
53 70 159 165 98 
54 71 163 166 99 
54 70 164 632 100 
54 21 162 183 101 
55 69 166 161 98 
55 70 167 162 99 
55 71 165 157 94 
56 18 169 187 102 
56 72 170 179 103 
56 65 168 124 78 
57 72 172 184 104 
57 21 173 650 105 
57 73 171 177 106 
58 65 175 178 107 
58 73 176 656 108 
58 3 174 127 81 
59 72 178 173 106 
59 73 179 174 107 
59 65 177 169 103 
60 20 181 158 95 
60 71 182 191 109 
60 68 180 148 89 
61 71 184 164 101 
61 21 185 171 104 
61 72 183 189 110 
62 68 187 190 111 
62 72 188 168 102 
62 18 186 151 92 
63 71 190 185 110 
63 72 191 186 111 
63 68 189 181 109 
64 7 193 818 112 
64 74 194 203 113 
64 76 192 736 114 
65 74 196 824 115 
65 22 197 230 116 
65 75 195 201 117 
66 76 199 202 118 
66 75 200 236 119 
66 24 198 739 120 
67 74 202 197 117 
67 75 203 198 118 
67 76 201 193 113 
68 22 205 842 121 
68 77 206 215 122 
68 79 204 228 123 
69 77 208 848 124 
69 6 209 242 125 
69 78 207 213 126 
70 79 211 214 127 
70 78 212 248 128 
70 23 210 231 129 
71 77 214 209 126 
71 78 215 210 127 
71 79 213 205 122 
72 24 217 235 130 
72 80 218 227 131 
72 82 216 748 132 
73 80 220 232 133 
73 23 221 266 134 
73 81 219 225 135 
74 82 223 226 136 
74 81 224 272 137 
74 0 222 751 138 
75 80 226 221 135 
75 81 227 222 136 
75 82 225 217 131 
76 22 229 206 123 
76 79 230 239 139 
76 75 228 196 116 
77 79 232 212 129 
77 23 233 219 133 
77 80 231 237 140 
78 75 235 238 141 
78 80 236 216 130 
78 24 234 199 119 
79 79 238 233 140 
79 80 239 234 141 
79 75 237 229 139 
80 6 241 799 142 
80 83 242 251 143 
80 78 240 208 125 
81 83 244 796 144 
81 25 245 278 145 
81 84 243 249 146 
82 78 247 250 147 
82 84 248 284 148 
82 23 246 211 128 
83 83 250 245 146 
83 84 251 246 147 
83 78 249 241 143 
84 25 253 787 149 
84 85 254 263 150 
84 87 252 276 151 
85 85 256 784 152 
85 9 257 674 153 
85 86 255 261 154 
86 87 259 262 155 
86 86 260 680 156 
86 26 258 279 157 
87 85 262 257 154 
87 86 263 258 155 
87 87 261 253 150 
88 23 265 283 158 
88 88 266 275 159 
88 81 264 220 134 
89 88 268 280 160 
89 26 269 698 161 
89 89 267 273 162 
90 81 271 274 163 
90 89 272 704 164 
90 0 270 223 137 
91 88 274 269 162 
91 89 275 270 163 
91 81 273 265 159 
92 25 277 254 151 
92 87 278 287 165 
92 84 276 244 145 
93 87 280 260 157 
93 26 281 267 160 
93 88 279 285 166 
94 84 283 286 167 
94 88 284 264 158 
94 23 282 247 148 
95 87 286 281 166 
95 88 287 282 167 
95 84 285 277 165 
96 11 289 351 168 
96 90 290 299 169 
96 92 288 880 170 
97 90 292 348 171 
97 27 293 326 172 
97 91 291 297 173 
98 92 295 298 174 
98 91 296 332 175 
98 29 294 883 176 
99 90 298 293 173 
99 91 299 294 174 
99 92 297 289 169 
100 27 301 339 177 
100 93 302 311 178 
100 95 300 324 179 
101 93 304 336 180 
101 10 305 914 181 
101 94 303 309 182 
102 95 307 310 183 
102 94 308 920 184 
102 28 306 327 185 
103 93 310 305 182 
103 94 311 306 183 
103 95 309 301 178 
104 29 313 331 186 
104 96 314 323 187 
104 98 312 892 188 
105 96 316 328 189 
105 28 317 938 190 
105 97 315 321 191 
106 98 319 322 192 
106 97 320 944 193 
106 4 318 895 194 
107 96 322 317 191 
107 97 323 318 192 
107 98 321 313 187 
108 27 325 302 179 
108 95 326 335 195 
108 91 324 292 172 
109 95 328 308 185 
109 28 329 315 189 
109 96 327 333 196 
110 91 331 334 197 
110 96 332 312 186 
110 29 330 295 175 
111 95 334 329 196 
111 96 335 330 197 
111 91 333 325 195 
112 10 337 303 180 
112 93 338 347 198 
112 100 336 832 199 
113 93 340 300 177 
113 27 341 374 200 
113 99 339 345 201 
114 100 343 346 202 
114 99 344 380 203 
114 31 342 835 204 
115 93 346 341 201 
115 99 347 342 202 
115 100 345 337 198 
116 27 349 291 171 
116 90 350 359 205 
116 102 348 372 206 
117 90 352 288 168 
117 11 353 770 207 
117 101 351 357 208 
118 102 355 358 209 
118 101 356 776 210 
118 30 354 375 211 
119 90 358 353 208 
119 101 359 354 209 
119 102 357 349 205 
120 31 361 379 212 
120 103 362 371 213 
120 105 360 844 214 
121 103 364 376 215 
121 30 365 794 216 
121 104 363 369 217 
122 105 367 370 218 
122 104 368 800 219 
122 6 366 847 220 
123 103 370 365 217 
123 104 371 366 218 
123 105 369 361 213 
124 27 373 350 206 
124 102 374 383 221 
124 99 372 340 200 
125 102 376 356 211 
125 30 377 363 215 
125 103 375 381 222 
126 99 379 382 223 
126 103 380 360 212 
126 31 378 343 203 
127 102 382 377 222 
127 103 383 378 223 
127 99 381 373 221 
128 9 385 447 224 
128 106 386 395 225 
128 108 384 672 226 
129 106 388 444 227 
129 32 389 422 228 
129 107 387 393 229 
130 108 391 394 230 
130 107 392 428 231 
130 34 390 675 232 
131 106 394 389 229 
131 107 395 390 230 
131 108 393 385 225 
132 32 397 435 233 
132 109 398 407 234 
132 111 396 420 235 
133 109 400 432 236 
133 5 401 591 237 
133 110 399 405 238 
134 111 403 406 239 
134 110 404 588 240 
134 33 402 423 241 
135 109 406 401 238 
135 110 407 402 239 
135 111 405 397 234 
136 34 409 427 242 
136 112 410 419 243 
136 114 408 684 244 
137 112 412 424 245 
137 33 413 579 246 
137 113 411 417 247 
138 114 415 418 248 
138 113 416 576 249 
138 2 414 687 250 
139 112 418 413 247 
139 113 419 414 248 
139 114 417 409 243 
140 32 421 398 235 
140 111 422 431 251 
140 107 420 388 228 
141 111 424 404 241 
141 33 425 411 245 
141 112 423 429 252 
142 107 427 430 253 
142 112 428 408 242 
142 34 426 391 231 
143 111 430 425 252 
143 112 431 426 253 
143 107 429 421 251 
144 5 433 399 236 
144 109 434 443 254 
144 116 432 864 255 
145 109 436 396 233 
145 32 437 470 256 
145 115 435 441 257 
146 116 439 442 258 
146 115 440 476 259 
146 36 438 867 260 
147 109 442 437 257 
147 115 443 438 258 
147 116 441 433 254 
148 32 445 387 227 
148 106 446 455 261 
148 118 444 468 262 
149 106 448 384 224 
149 9 449 783 263 
149 117 447 453 264 
150 118 451 454 265 
150 117 452 780 266 
150 35 450 471 267 
151 106 454 449 264 
151 117 455 450 265 
151 118 453 445 261 
152 36 457 475 268 
152 119 458 467 269 
152 121 456 876 270 
153 119 460 472 271 
153 35 461 771 272 
153 120 459 465 273 
154 121 463 466 274 
154 120 464 768 275 
154 11 462 879 276 
155 119 466 461 273 
155 120 467 462 274 
155 121 465 457 269 
156 32 469 446 262 
156 118 470 479 277 
156 115 468 436 256 
157 118 472 452 267 
157 35 473 459 271 
157 119 471 477 278 
158 115 475 478 279 
158 119 476 456 268 
158 36 474 439 259 
159 118 478 473 278 
159 119 479 474 279 
159 115 477 469 277 
160 8 481 543 280 
160 122 482 491 281 
160 124 480 624 282 
161 122 484 540 283 
161 37 485 518 284 
161 123 483 489 285 
162 124 487 490 286 
162 123 488 524 287 
162 39 486 627 288 
163 122 490 485 285 
163 123 491 486 286 
163 124 489 481 281 
164 37 493 531 289 
164 125 494 503 290 
164 127 492 516 291 
165 125 496 528 292 
165 7 497 735 293 
165 126 495 501 294 
166 127 499 502 295 
166 126 500 732 296 
166 38 498 519 297 
167 125 502 497 294 
167 126 503 498 295 
167 127 501 493 290 
168 39 505 523 298 
168 128 506 515 299 
168 130 504 636 300 
169 128 508 520 301 
169 38 509 723 302 
169 129 507 513 303 
170 130 511 514 304 
170 129 512 720 305 
170 1 510 639 306 
171 128 514 509 303 
171 129 515 510 304 
171 130 513 505 299 
172 37 517 494 291 
172 127 518 527 307 
172 123 516 484 284 
173 127 520 500 297 
173 38 521 507 301 
173 128 519 525 308 
174 123 523 526 309 
174 128 524 504 298 
174 39 522 487 287 
175 127 526 521 308 
175 128 527 522 309 
175 123 525 517 307 
176 7 529 495 292 
176 125 530 539 310 
176 132 528 816 311 
177 125 532 492 289 
177 37 533 566 312 
177 131 531 537 313 
178 132 535 538 314 
178 131 536 572 315 
178 41 534 819 316 
179 125 538 533 313 
179 131 539 534 314 
179 132 537 529 310 
180 37 541 483 283 
180 122 542 551 317 
180 134 540 564 318 
181 122 544 480 280 
181 8 545 927 319 
181 133 543 549 320 
182 134 547 550 321 
182 133 548 924 322 
182 40 546 567 323 
183 122 550 545 320 
183 133 551 546 321 
183 134 549 541 317 
184 41 553 571 324 
184 135 554 563 325 
184 137 552 828 326 
185 135 556 568 327 
185 40 557 915 328 
185 136 555 561 329 
186 137 559 562 330 
186 136 560 912 331 
186 10 558 831 332 
187 135 562 557 329 
187 136 563 558 330 
187 137 561 553 325 
188 37 565 542 318 
188 134 566 575 333 
188 131 564 532 312 
189 134 568 548 323 
189 40 569 555 327 
189 135 567 573 334 
190 131 571 574 335 
190 135 572 552 324 
190 41 570 535 315 
191 134 574 569 334 
191 135 575 570 335 
191 131 573 565 333 
192 2 577 415 249 
192 113 578 587 336 
192 53 576 64 39 
193 113 580 412 246 
193 33 581 614 337 
193 138 579 585 338 
194 53 583 586 339 
194 138 584 620 340 
194 15 582 67 42 
195 113 586 581 338 
195 138 587 582 339 
195 53 585 577 336 
196 33 589 403 240 
196 110 590 599 341 
196 139 588 612 342 
197 110 592 400 237 
197 5 593 98 58 
197 60 591 597 343 
198 139 595 598 344 
198 60 596 104 64 
198 19 594 615 345 
199 110 598 593 343 
199 60 599 594 344 
199 139 597 589 341 
200 15 601 619 346 
200 140 602 611 347 
200 56 600 76 48 
201 140 604 616 348 
201 19 605 122 76 
201 66 603 609 349 
202 56 607 610 350 
202 66 608 128 82 
202 3 606 79 51 
203 140 610 605 349 
203 66 611 606 350 
203 56 609 601 347 
204 33 613 590 342 
204 139 614 623 351 
204 138 612 580 337 
205 139 616 596 345 
205 19 617 603 348 
205 140 615 621 352 
206 138 619 622 353 
206 140 620 600 346 
206 15 618 583 340 
207 139 622 617 352 
207 140 623 618 353 
207 138 621 613 351 
208 8 625 482 282 
208 124 626 635 354 
208 70 624 160 97 
209 124 628 488 288 
209 39 629 662 355 
209 141 627 633 356 
210 70 631 634 357 
210 141 632 668 358 
210 21 630 163 100 
211 124 634 629 356 
211 141 635 630 357 
211 70 633 625 354 
212 39 637 506 300 
212 130 638 647 359 
212 142 636 660 360 
213 130 640 512 306 
213 1 641 50 31 
213 52 639 645 361 
214 142 643 646 362 
214 52 644 56 36 
214 16 642 663 363 
215 130 646 641 361 
215 52 647 642 362 
215 142 645 637 359 
216 21 649 667 364 
216 143 650 659 365 
216 73 648 172 105 
217 143 652 664 366 
217 16 653 74 46 
217 57 651 657 367 
218 73 655 658 368 
218 57 656 80 52 
218 3 654 175 108 
219 143 658 653 367 
219 57 659 654 368 
219 73 657 649 365 
220 39 661 638 360 
220 142 662 671 369 
220 141 660 628 355 
221 142 664 644 363 
221 16 665 651 366 
221 143 663 669 370 
222 141 667 670 371 
222 143 668 648 364 
222 21 666 631 358 
223 142 670 665 370 
223 143 671 666 371 
223 141 669 661 369 
224 9 673 386 226 
224 108 674 683 372 
224 86 672 256 153 
225 108 676 392 232 
225 34 677 710 373 
225 144 675 681 374 
226 86 679 682 375 
226 144 680 716 376 
226 26 678 259 156 
227 108 682 677 374 
227 144 683 678 375 
227 86 681 673 372 
228 34 685 410 244 
228 114 686 695 377 
228 145 684 708 378 
229 114 688 416 250 
229 2 689 2 2 
229 44 687 693 379 
230 145 691 694 380 
230 44 692 8 8 
230 14 690 711 381 
231 114 694 689 379 
231 44 695 690 380 
231 145 693 685 377 
232 26 697 715 382 
232 146 698 707 383 
232 89 696 268 161 
233 146 700 712 384 
233 14 701 26 20 
233 50 699 705 385 
234 89 703 706 386 
234 50 704 32 26 
234 0 702 271 164 
235 146 706 701 385 
235 50 707 702 386 
235 89 705 697 383 
236 34 709 686 378 
236 145 710 719 387 
236 144 708 676 373 
237 145 712 692 381 
237 14 713 699 384 
237 146 711 717 388 
238 144 715 718 389 
238 146 716 696 382 
238 26 714 679 376 
239 145 718 713 388 
239 146 719 714 389 
239 144 717 709 387 
240 1 721 511 305 
240 129 722 731 390 
240 46 720 16 13 
241 129 724 508 302 
241 38 725 758 391 
241 147 723 729 392 
242 46 727 730 393 
242 147 728 764 394 
242 13 726 19 16 
243 129 730 725 392 
243 147 731 726 393 
243 46 729 721 390 
244 38 733 499 296 
244 126 734 743 395 
244 148 732 756 396 
245 126 736 496 293 
245 7 737 194 114 
245 76 735 741 397 
246 148 739 742 398 
246 76 740 200 120 
246 24 738 759 399 
247 126 742 737 397 
247 76 743 738 398 
247 148 741 733 395 
248 13 745 763 400 
248 149 746 755 401 
248 49 744 28 22 
249 149 748 760 402 
249 24 749 218 132 
249 82 747 753 403 
250 49 751 754 404 
250 82 752 224 138 
250 0 750 31 25 
251 149 754 749 403 
251 82 755 750 404 
251 49 753 745 401 
252 38 757 734 396 
252 148 758 767 405 
252 147 756 724 391 
253 148 760 740 399 
253 24 761 747 402 
253 149 759 765 406 
254 147 763 766 407 
254 149 764 744 400 
254 13 762 727 394 
255 148 766 761 406 
255 149 767 762 407 
255 147 765 757 405 
256 11 769 463 275 
256 120 770 779 408 
256 101 768 352 207 
257 120 772 460 272 
257 35 773 806 409 
257 150 771 777 410 
258 101 775 778 411 
258 150 776 812 412 
258 30 774 355 210 
259 120 778 773 410 
259 150 779 774 411 
259 101 777 769 408 
260 35 781 451 266 
260 117 782 791 413 
260 151 780 804 414 
261 117 784 448 263 
261 9 785 255 152 
261 85 783 789 415 
262 151 787 790 416 
262 85 788 252 149 
262 25 786 807 417 
263 117 790 785 415 
263 85 791 786 416 
263 151 789 781 413 
264 30 793 811 418 
264 152 794 803 419 
264 104 792 364 216 
265 152 796 808 420 
265 25 797 243 144 
265 83 795 801 421 
266 104 799 802 422 
266 83 800 240 142 
266 6 798 367 219 
267 152 802 797 421 
267 83 803 798 422 
267 104 801 793 419 
268 35 805 782 414 
268 151 806 815 423 
268 150 804 772 409 
269 151 808 788 417 
269 25 809 795 420 
269 152 807 813 424 
270 150 811 814 425 
270 152 812 792 418 
270 30 810 775 412 
271 151 814 809 424 
271 152 815 810 425 
271 150 813 805 423 
272 7 817 530 311 
272 132 818 827 426 
272 74 816 192 112 
273 132 820 536 316 
273 41 821 854 427 
273 153 819 825 428 
274 74 823 826 429 
274 153 824 860 430 
274 22 822 195 115 
275 132 826 821 428 
275 153 827 822 429 
275 74 825 817 426 
276 41 829 554 326 
276 137 830 839 431 
276 154 828 852 432 
277 137 832 560 332 
277 10 833 338 199 
277 100 831 837 433 
278 154 835 838 434 
278 100 836 344 204 
278 31 834 855 435 
279 137 838 833 433 
279 100 839 834 434 
279 154 837 829 431 
280 22 841 859 436 
280 155 842 851 437 
280 77 840 204 121 
281 155 844 856 438 
281 31 845 362 214 
281 105 843 849 439 
282 77 847 850 440 
282 105 848 368 220 
282 6 846 207 124 
283 155 850 845 439 
283 105 851 846 440 
283 77 849 841 437 
284 41 853 830 432 
284 154 854 863 441 
284 153 852 820 427 
285 154 856 836 435 
285 31 857 843 438 
285 155 855 861 442 
286 153 859 862 443 
286 155 860 840 436 
286 22 858 823 430 
287 154 862 857 442 
287 155 863 858 443 
287 153 861 853 441 
288 5 865 434 255 
288 116 866 875 444 
288 58 864 96 56 
289 116 868 440 260 
289 36 869 902 445 
289 156 867 873 446 
290 58 871 874 447 
290 156 872 908 448 
290 17 870 99 59 
291 116 874 869 446 
291 156 875 870 447 
291 58 873 865 444 
292 36 877 458 270 
292 121 878 887 449 
292 157 876 900 450 
293 121 880 464 276 
293 11 881 290 170 
293 92 879 885 451 
294 157 883 886 452 
294 92 884 296 176 
294 29 882 903 453 
295 121 886 881 451 
295 92 887 882 452 
295 157 885 877 449 
296 17 889 907 454 
296 158 890 899 455 
296 61 888 108 65 
297 158 892 904 456 
297 29 893 314 188 
297 98 891 897 457 
298 61 895 898 458 
298 98 896 320 194 
298 4 894 111 68 
299 158 898 893 457 
299 98 899 894 458 
299 61 897 889 455 
300 36 901 878 450 
300 157 902 911 459 
300 156 900 868 445 
301 157 904 884 453 
301 29 905 891 456 
301 158 903 909 460 
302 156 907 910 461 
302 158 908 888 454 
302 17 906 871 448 
303 157 910 905 460 
303 158 911 906 461 
303 156 909 901 459 
304 10 913 559 331 
304 136 914 923 462 
304 94 912 304 181 
305 136 916 556 328 
305 40 917 950 463 
305 159 915 921 464 
306 94 919 922 465 
306 159 920 956 466 
306 28 918 307 184 
307 136 922 917 464 
307 159 923 918 465 
307 94 921 913 462 
308 40 925 547 322 
308 133 926 935 467 
308 160 924 948 468 
309 133 928 544 319 
309 8 929 159 96 
309 69 927 933 469 
310 160 931 934 470 
310 69 932 156 93 
310 20 930 951 471 
311 133 934 929 469 
311 69 935 930 470 
311 160 933 925 467 
312 28 937 955 472 
312 161 938 947 473 
312 97 936 316 190 
313 161 940 952 474 
313 20 941 147 88 
313 67 939 945 475 
314 97 943 946 476 
314 67 944 144 86 
314 4 942 319 193 
315 161 946 941 475 
315 67 947 942 476 
315 97 945 937 473 
316 40 949 926 468 
316 160 950 959 477 
316 159 948 916 463 
317 160 952 932 471 
317 20 953 939 474 
317 161 951 957 478 
318 159 955 958 479 
318 161 956 936 472 
318 28 954 919 466 
319 160 958 953 478 
319 161 959 954 479 
319 159 957 949 477 
0 3 2 42 44 
3 3 42 12 43 
6 3 44 43 14 
9 3 42 43 44 
12 3 12 45 47 
15 3 45 1 46 
18 3 47 46 13 
21 3 45 46 47 
24 3 14 48 50 
27 3 48 13 49 
30 3 50 49 0 
33 3 48 49 50 
36 3 12 47 43 
39 3 47 13 48 
42 3 43 48 14 
45 3 47 48 43 
48 3 1 45 52 
51 3 45 12 51 
54 3 52 51 16 
57 3 45 51 52 
60 3 12 42 54 
63 3 42 2 53 
66 3 54 53 15 
69 3 42 53 54 
72 3 16 55 57 
75 3 55 15 56 
78 3 57 56 3 
81 3 55 56 57 
84 3 12 54 51 
87 3 54 15 55 
90 3 51 55 16 
93 3 54 55 51 
96 3 5 58 60 
99 3 58 17 59 
102 3 60 59 19 
105 3 58 59 60 
108 3 17 61 63 
111 3 61 4 62 
114 3 63 62 18 
117 3 61 62 63 
120 3 19 64 66 
123 3 64 18 65 
126 3 66 65 3 
129 3 64 65 66 
132 3 17 63 59 
135 3 63 18 64 
138 3 59 64 19 
141 3 63 64 59 
144 3 4 67 62 
147 3 67 20 68 
150 3 62 68 18 
153 3 67 68 62 
156 3 20 69 71 
159 3 69 8 70 
162 3 71 70 21 
165 3 69 70 71 
168 3 18 72 65 
171 3 72 21 73 
174 3 65 73 3 
177 3 72 73 65 
180 3 20 71 68 
183 3 71 21 72 
186 3 68 72 18 
189 3 71 72 68 
192 3 7 74 76 
195 3 74 22 75 
198 3 76 75 24 
201 3 74 75 76 
204 3 22 77 79 
207 3 77 6 78 
210 3 79 78 23 
213 3 77 78 79 
216 3 24 80 82 
219 3 80 23 81 
222 3 82 81 0 
225 3 80 81 82 
228 3 22 79 75 
231 3 79 23 80 
234 3 75 80 24 
237 3 79 80 75 
240 3 6 83 78 
243 3 83 25 84 
246 3 78 84 23 
249 3 83 84 78 
252 3 25 85 87 
255 3 85 9 86 
258 3 87 86 26 
261 3 85 86 87 
264 3 23 88 81 
267 3 88 26 89 
270 3 81 89 0 
273 3 88 89 81 
276 3 25 87 84 
279 3 87 26 88 
282 3 84 88 23 
285 3 87 88 84 
288 3 11 90 92 
291 3 90 27 91 
294 3 92 91 29 
297 3 90 91 92 
300 3 27 93 95 
303 3 93 10 94 
306 3 95 94 28 
309 3 93 94 95 
312 3 29 96 98 
315 3 96 28 97 
318 3 98 97 4 
321 3 96 97 98 
324 3 27 95 91 
327 3 95 28 96 
330 3 91 96 29 
333 3 95 96 91 
336 3 10 93 100 
339 3 93 27 99 
342 3 100 99 31 
345 3 93 99 100 
348 3 27 90 102 
351 3 90 11 101 
354 3 102 101 30 
357 3 90 101 102 
360 3 31 103 105 
363 3 103 30 104 
366 3 105 104 6 
369 3 103 104 105 
372 3 27 102 99 
375 3 102 30 103 
378 3 99 103 31 
381 3 102 103 99 
384 3 9 106 108 
387 3 106 32 107 
390 3 108 107 34 
393 3 106 107 108 
396 3 32 109 111 
399 3 109 5 110 
402 3 111 110 33 
405 3 109 110 111 
408 3 34 112 114 
411 3 112 33 113 
414 3 114 113 2 
417 3 112 113 114 
420 3 32 111 107 
423 3 111 33 112 
426 3 107 112 34 
429 3 111 112 107 
432 3 5 109 116 
435 3 109 32 115 
438 3 116 115 36 
441 3 109 115 116 
444 3 32 106 118 
447 3 106 9 117 
450 3 118 117 35 
453 3 106 117 118 
456 3 36 119 121 
459 3 119 35 120 
462 3 121 120 11 
465 3 119 120 121 
468 3 32 118 115 
471 3 118 35 119 
474 3 115 119 36 
477 3 118 119 115 
480 3 8 122 124 
483 3 122 37 123 
486 3 124 123 39 
489 3 122 123 124 
492 3 37 125 127 
495 3 125 7 126 
498 3 127 126 38 
501 3 125 126 127 
504 3 39 128 130 
507 3 128 38 129 
510 3 130 129 1 
513 3 128 129 130 
516 3 37 127 123 
519 3 127 38 128 
522 3 123 128 39 
525 3 127 128 123 
528 3 7 125 132 
531 3 125 37 131 
534 3 132 131 41 
537 3 125 131 132 
540 3 37 122 134 
543 3 122 8 133 
546 3 134 133 40 
549 3 122 133 134 
552 3 41 135 137 
555 3 135 40 136 
558 3 137 136 10 
561 3 135 136 137 
564 3 37 134 131 
567 3 134 40 135 
570 3 131 135 41 
573 3 134 135 131 
576 3 2 113 53 
579 3 113 33 138 
582 3 53 138 15 
585 3 113 138 53 
588 3 33 110 139 
591 3 110 5 60 
594 3 139 60 19 
597 3 110 60 139 
600 3 15 140 56 
603 3 140 19 66 
606 3 56 66 3 
609 3 140 66 56 
612 3 33 139 138 
615 3 139 19 140 
618 3 138 140 15 
621 3 139 140 138 
624 3 8 124 70 
627 3 124 39 141 
630 3 70 141 21 
633 3 124 141 70 
636 3 39 130 142 
639 3 130 1 52 
642 3 142 52 16 
645 3 130 52 142 
648 3 21 143 73 
651 3 143 16 57 
654 3 73 57 3 
657 3 143 57 73 
660 3 39 142 141 
663 3 142 16 143 
666 3 141 143 21 
669 3 142 143 141 
672 3 9 108 86 
675 3 108 34 144 
678 3 86 144 26 
681 3 108 144 86 
684 3 34 114 145 
687 3 114 2 44 
690 3 145 44 14 
693 3 114 44 145 
696 3 26 146 89 
699 3 146 14 50 
702 3 89 50 0 
705 3 146 50 89 
708 3 34 145 144 
711 3 145 14 146 
714 3 144 146 26 
717 3 145 146 144 
720 3 1 129 46 
723 3 129 38 147 
726 3 46 147 13 
729 3 129 147 46 
732 3 38 126 148 
735 3 126 7 76 
738 3 148 76 24 
741 3 126 76 148 
744 3 13 149 49 
747 3 149 24 82 
750 3 49 82 0 
753 3 149 82 49 
756 3 38 148 147 
759 3 148 24 149 
762 3 147 149 13 
765 3 148 149 147 
768 3 11 120 101 
771 3 120 35 150 
774 3 101 150 30 
777 3 120 150 101 
780 3 35 117 151 
783 3 117 9 85 
786 3 151 85 25 
789 3 117 85 151 
792 3 30 152 104 
795 3 152 25 83 
798 3 104 83 6 
801 3 152 83 104 
804 3 35 151 150 
807 3 151 25 152 
810 3 150 152 30 
813 3 151 152 150 
816 3 7 132 74 
819 3 132 41 153 
822 3 74 153 22 
825 3 132 153 74 
828 3 41 137 154 
831 3 137 10 100 
834 3 154 100 31 
837 3 137 100 154 
840 3 22 155 77 
843 3 155 31 105 
846 3 77 105 6 
849 3 155 105 77 
852 3 41 154 153 
855 3 154 31 155 
858 3 153 155 22 
861 3 154 155 153 
864 3 5 116 58 
867 3 116 36 156 
870 3 58 156 17 
873 3 116 156 58 
876 3 36 121 157 
879 3 121 11 92 
882 3 157 92 29 
885 3 121 92 157 
888 3 17 158 61 
891 3 158 29 98 
894 3 61 98 4 
897 3 158 98 61 
900 3 36 157 156 
903 3 157 29 158 
906 3 156 158 17 
909 3 157 158 156 
912 3 10 136 94 
915 3 136 40 159 
918 3 94 159 28 
921 3 136 159 94 
924 3 40 133 160 
927 3 133 8 69 
930 3 160 69 20 
933 3 133 69 160 
936 3 28 161 97 
939 3 161 20 67 
942 3 97 67 4 
945 3 161 67 97 
948 3 40 160 159 
951 3 160 20 161 
954 3 159 161 28 
957 3 160 161 159 
