ply
format ascii 1.0
comment MathUtils ply
element face 20
property int h_right
property list uchar int V_cycle
element edge 30
property int h_directed
property list uchar int V_cycle
element half_edge 60
property int h_twin
property int h_next
property int v_origin
property int f_left
property int e_undirected
element boundary 0
property int h_negative
element vertex 12
property int h_out
property double x
property double y
property double z
end_header
0 3 2 1 0 
3 3 1 2 3 
6 3 5 4 3 
9 3 4 8 3 
12 3 7 6 0 
15 3 6 9 0 
18 3 11 10 4 
21 3 10 11 6 
24 3 9 5 2 
27 3 5 9 11 
30 3 8 7 1 
33 3 7 8 10 
36 3 2 5 3 
39 3 8 1 3 
42 3 9 2 0 
45 3 1 7 0 
48 3 11 9 6 
51 3 7 10 6 
54 3 5 11 4 
57 3 10 8 4 
0 2 1 2 
1 2 0 1 
2 2 0 2 
4 2 2 3 
5 2 1 3 
6 2 4 5 
7 2 3 4 
8 2 3 5 
9 2 4 8 
10 2 3 8 
12 2 6 7 
13 2 0 6 
14 2 0 7 
15 2 6 9 
16 2 0 9 
18 2 10 11 
19 2 4 10 
20 2 4 11 
22 2 6 11 
23 2 6 10 
24 2 5 9 
25 2 2 5 
26 2 2 9 
28 2 9 11 
29 2 5 11 
30 2 7 8 
31 2 1 7 
32 2 1 8 
34 2 8 10 
35 2 7 10 
3 1 2 0 0 
47 2 1 0 1 
43 0 0 0 2 
0 4 1 1 0 
38 5 2 1 3 
40 3 3 1 4 
56 7 5 2 5 
11 8 4 2 6 
37 6 3 2 7 
58 10 4 3 8 
41 11 8 3 9 
7 9 3 3 6 
53 13 7 4 10 
17 14 6 4 11 
46 12 0 4 12 
49 16 6 5 13 
44 17 9 5 14 
13 15 0 5 11 
21 19 11 6 15 
59 20 10 6 16 
55 18 4 6 17 
18 22 10 7 15 
50 23 11 7 18 
52 21 6 7 19 
27 25 9 8 20 
36 26 5 8 21 
42 24 2 8 22 
24 28 5 9 20 
48 29 9 9 23 
54 27 11 9 24 
33 31 8 10 25 
45 32 7 10 26 
39 30 1 10 27 
30 34 7 11 25 
57 35 8 11 28 
51 33 10 11 29 
25 37 2 12 21 
8 38 5 12 7 
4 36 3 12 3 
32 40 8 13 27 
5 41 1 13 4 
10 39 3 13 9 
26 43 9 14 22 
2 44 2 14 2 
16 42 0 14 14 
31 46 1 15 26 
14 47 7 15 12 
1 45 0 15 1 
28 49 11 16 23 
15 50 9 16 13 
22 48 6 16 18 
35 52 7 17 29 
23 53 10 17 19 
12 51 6 17 10 
29 55 5 18 24 
20 56 11 18 17 
6 54 4 18 5 
34 58 10 19 28 
9 59 8 19 8 
19 57 4 19 16 
2 0 0.525731 -0.850651 
1 0.525731 0.850651 0 
0 -0.525731 0.850651 0 
5 0 0.525731 0.850651 
7 0 -0.525731 0.850651 
6 -0.850651 0 0.525731 
13 0 -0.525731 -0.850651 
12 0.850651 0 -0.525731 
10 0.850651 0 0.525731 
16 -0.850651 0 -0.525731 
19 0.525731 -0.850651 0 
18 -0.525731 -0.850651 0 
