ply
format ascii 1.0
comment MathUtils ply
element boundary 0
property int h_negative
element face 320
property int h_right
property list uchar int V_cycle
element vertex 162
property double x
property double y
property double z
property int h_out
element edge 480
property int h_directed
property list uchar int V_cycle
element half_edge 960
property int h_twin
property int h_next
property int f_left
property int e_undirected
property int v_origin
end_header
0 3 2 42 44 
3 3 42 12 43 
6 3 44 43 14 
9 3 42 43 44 
12 3 12 45 47 
15 3 45 1 46 
18 3 47 46 13 
21 3 45 46 47 
24 3 14 48 50 
27 3 48 13 49 
30 3 50 49 0 
33 3 48 49 50 
36 3 12 47 43 
39 3 47 13 48 
42 3 43 48 14 
45 3 47 48 43 
48 3 1 45 52 
51 3 45 12 51 
54 3 52 51 16 
57 3 45 51 52 
60 3 12 42 54 
63 3 42 2 53 
66 3 54 53 15 
69 3 42 53 54 
72 3 16 55 57 
75 3 55 15 56 
78 3 57 56 3 
81 3 55 56 57 
84 3 12 54 51 
87 3 54 15 55 
90 3 51 55 16 
93 3 54 55 51 
96 3 5 58 60 
99 3 58 17 59 
102 3 60 59 19 
105 3 58 59 60 
108 3 17 61 63 
111 3 61 4 62 
114 3 63 62 18 
117 3 61 62 63 
120 3 19 64 66 
123 3 64 18 65 
126 3 66 65 3 
129 3 64 65 66 
132 3 17 63 59 
135 3 63 18 64 
138 3 59 64 19 
141 3 63 64 59 
144 3 4 67 62 
147 3 67 20 68 
150 3 62 68 18 
153 3 67 68 62 
156 3 20 69 71 
159 3 69 8 70 
162 3 71 70 21 
165 3 69 70 71 
168 3 18 72 65 
171 3 72 21 73 
174 3 65 73 3 
177 3 72 73 65 
180 3 20 71 68 
183 3 71 21 72 
186 3 68 72 18 
189 3 71 72 68 
192 3 7 74 76 
195 3 74 22 75 
198 3 76 75 24 
201 3 74 75 76 
204 3 22 77 79 
207 3 77 6 78 
210 3 79 78 23 
213 3 77 78 79 
216 3 24 80 82 
219 3 80 23 81 
222 3 82 81 0 
225 3 80 81 82 
228 3 22 79 75 
231 3 79 23 80 
234 3 75 80 24 
237 3 79 80 75 
240 3 6 83 78 
243 3 83 25 84 
246 3 78 84 23 
249 3 83 84 78 
252 3 25 85 87 
255 3 85 9 86 
258 3 87 86 26 
261 3 85 86 87 
264 3 23 88 81 
267 3 88 26 89 
270 3 81 89 0 
273 3 88 89 81 
276 3 25 87 84 
279 3 87 26 88 
282 3 84 88 23 
285 3 87 88 84 
288 3 11 90 92 
291 3 90 27 91 
294 3 92 91 29 
297 3 90 91 92 
300 3 27 93 95 
303 3 93 10 94 
306 3 95 94 28 
309 3 93 94 95 
312 3 29 96 98 
315 3 96 28 97 
318 3 98 97 4 
321 3 96 97 98 
324 3 27 95 91 
327 3 95 28 96 
330 3 91 96 29 
333 3 95 96 91 
336 3 10 93 100 
339 3 93 27 99 
342 3 100 99 31 
345 3 93 99 100 
348 3 27 90 102 
351 3 90 11 101 
354 3 102 101 30 
357 3 90 101 102 
360 3 31 103 105 
363 3 103 30 104 
366 3 105 104 6 
369 3 103 104 105 
372 3 27 102 99 
375 3 102 30 103 
378 3 99 103 31 
381 3 102 103 99 
384 3 9 106 108 
387 3 106 32 107 
390 3 108 107 34 
393 3 106 107 108 
396 3 32 109 111 
399 3 109 5 110 
402 3 111 110 33 
405 3 109 110 111 
408 3 34 112 114 
411 3 112 33 113 
414 3 114 113 2 
417 3 112 113 114 
420 3 32 111 107 
423 3 111 33 112 
426 3 107 112 34 
429 3 111 112 107 
432 3 5 109 116 
435 3 109 32 115 
438 3 116 115 36 
441 3 109 115 116 
444 3 32 106 118 
447 3 106 9 117 
450 3 118 117 35 
453 3 106 117 118 
456 3 36 119 121 
459 3 119 35 120 
462 3 121 120 11 
465 3 119 120 121 
468 3 32 118 115 
471 3 118 35 119 
474 3 115 119 36 
477 3 118 119 115 
480 3 8 122 124 
483 3 122 37 123 
486 3 124 123 39 
489 3 122 123 124 
492 3 37 125 127 
495 3 125 7 126 
498 3 127 126 38 
501 3 125 126 127 
504 3 39 128 130 
507 3 128 38 129 
510 3 130 129 1 
513 3 128 129 130 
516 3 37 127 123 
519 3 127 38 128 
522 3 123 128 39 
525 3 127 128 123 
528 3 7 125 132 
531 3 125 37 131 
534 3 132 131 41 
537 3 125 131 132 
540 3 37 122 134 
543 3 122 8 133 
546 3 134 133 40 
549 3 122 133 134 
552 3 41 135 137 
555 3 135 40 136 
558 3 137 136 10 
561 3 135 136 137 
564 3 37 134 131 
567 3 134 40 135 
570 3 131 135 41 
573 3 134 135 131 
576 3 2 113 53 
579 3 113 33 138 
582 3 53 138 15 
585 3 113 138 53 
588 3 33 110 139 
591 3 110 5 60 
594 3 139 60 19 
597 3 110 60 139 
600 3 15 140 56 
603 3 140 19 66 
606 3 56 66 3 
609 3 140 66 56 
612 3 33 139 138 
615 3 139 19 140 
618 3 138 140 15 
621 3 139 140 138 
624 3 8 124 70 
627 3 124 39 141 
630 3 70 141 21 
633 3 124 141 70 
636 3 39 130 142 
639 3 130 1 52 
642 3 142 52 16 
645 3 130 52 142 
648 3 21 143 73 
651 3 143 16 57 
654 3 73 57 3 
657 3 143 57 73 
660 3 39 142 141 
663 3 142 16 143 
666 3 141 143 21 
669 3 142 143 141 
672 3 9 108 86 
675 3 108 34 144 
678 3 86 144 26 
681 3 108 144 86 
684 3 34 114 145 
687 3 114 2 44 
690 3 145 44 14 
693 3 114 44 145 
696 3 26 146 89 
699 3 146 14 50 
702 3 89 50 0 
705 3 146 50 89 
708 3 34 145 144 
711 3 145 14 146 
714 3 144 146 26 
717 3 145 146 144 
720 3 1 129 46 
723 3 129 38 147 
726 3 46 147 13 
729 3 129 147 46 
732 3 38 126 148 
735 3 126 7 76 
738 3 148 76 24 
741 3 126 76 148 
744 3 13 149 49 
747 3 149 24 82 
750 3 49 82 0 
753 3 149 82 49 
756 3 38 148 147 
759 3 148 24 149 
762 3 147 149 13 
765 3 148 149 147 
768 3 11 120 101 
771 3 120 35 150 
774 3 101 150 30 
777 3 120 150 101 
780 3 35 117 151 
783 3 117 9 85 
786 3 151 85 25 
789 3 117 85 151 
792 3 30 152 104 
795 3 152 25 83 
798 3 104 83 6 
801 3 152 83 104 
804 3 35 151 150 
807 3 151 25 152 
810 3 150 152 30 
813 3 151 152 150 
816 3 7 132 74 
819 3 132 41 153 
822 3 74 153 22 
825 3 132 153 74 
828 3 41 137 154 
831 3 137 10 100 
834 3 154 100 31 
837 3 137 100 154 
840 3 22 155 77 
843 3 155 31 105 
846 3 77 105 6 
849 3 155 105 77 
852 3 41 154 153 
855 3 154 31 155 
858 3 153 155 22 
861 3 154 155 153 
864 3 5 116 58 
867 3 116 36 156 
870 3 58 156 17 
873 3 116 156 58 
876 3 36 121 157 
879 3 121 11 92 
882 3 157 92 29 
885 3 121 92 157 
888 3 17 158 61 
891 3 158 29 98 
894 3 61 98 4 
897 3 158 98 61 
900 3 36 157 156 
903 3 157 29 158 
906 3 156 158 17 
909 3 157 158 156 
912 3 10 136 94 
915 3 136 40 159 
918 3 94 159 28 
921 3 136 159 94 
924 3 40 133 160 
927 3 133 8 69 
930 3 160 69 20 
933 3 133 69 160 
936 3 28 161 97 
939 3 161 20 67 
942 3 97 67 4 
945 3 161 67 97 
948 3 40 160 159 
951 3 160 20 161 
954 3 159 161 28 
957 3 160 161 159 
0 0.525731 -0.850651 32 
0.525731 0.850651 0 16 
-0.525731 0.850651 0 0 
0 0.525731 0.850651 80 
0 -0.525731 0.850651 112 
-0.850651 0 0.525731 96 
0 -0.525731 -0.850651 208 
0.850651 0 -0.525731 192 
0.850651 0 0.525731 160 
-0.850651 0 -0.525731 256 
0.525731 -0.850651 0 304 
-0.525731 -0.850651 0 288 
0 1 0 4 
0.309017 0.809017 -0.5 20 
-0.309017 0.809017 -0.5 8 
-0.309017 0.809017 0.5 68 
0.309017 0.809017 0.5 56 
-0.5 -0.309017 0.809017 100 
0 0 1 116 
-0.5 0.309017 0.809017 104 
0.5 -0.309017 0.809017 148 
0.5 0.309017 0.809017 164 
0.5 -0.309017 -0.809017 196 
0 0 -1 212 
0.5 0.309017 -0.809017 200 
-0.5 -0.309017 -0.809017 244 
-0.5 0.309017 -0.809017 260 
0 -1 0 292 
0.309017 -0.809017 0.5 308 
-0.309017 -0.809017 0.5 296 
-0.309017 -0.809017 -0.5 356 
0.309017 -0.809017 -0.5 344 
-1 0 0 388 
-0.809017 0.5 0.309017 404 
-0.809017 0.5 -0.309017 392 
-0.809017 -0.5 -0.309017 452 
-0.809017 -0.5 0.309017 440 
1 0 0 484 
0.809017 0.5 -0.309017 500 
0.809017 0.5 0.309017 488 
0.809017 -0.5 0.309017 548 
0.809017 -0.5 -0.309017 536 
-0.273267 0.961938 0 1 
-0.16246 0.951057 -0.262866 5 
-0.433889 0.862668 -0.259892 2 
0.273267 0.961938 0 13 
0.433889 0.862668 -0.259892 17 
0.16246 0.951057 -0.262866 14 
0 0.850651 -0.525731 25 
0.160622 0.69378 -0.702046 29 
-0.160622 0.69378 -0.702046 26 
0.16246 0.951057 0.262866 53 
0.433889 0.862668 0.259892 50 
-0.433889 0.862668 0.259892 65 
-0.16246 0.951057 0.262866 62 
0 0.850651 0.525731 73 
-0.160622 0.69378 0.702046 77 
0.160622 0.69378 0.702046 74 
-0.702046 -0.160622 0.69378 97 
-0.525731 0 0.850651 101 
-0.702046 0.160622 0.69378 98 
-0.259892 -0.433889 0.862668 109 
0 -0.273267 0.961938 113 
-0.262866 -0.16246 0.951057 110 
-0.262866 0.16246 0.951057 121 
0 0.273267 0.961938 125 
-0.259892 0.433889 0.862668 122 
0.259892 -0.433889 0.862668 145 
0.262866 -0.16246 0.951057 149 
0.702046 -0.160622 0.69378 157 
0.702046 0.160622 0.69378 161 
0.525731 0 0.850651 158 
0.262866 0.16246 0.951057 169 
0.259892 0.433889 0.862668 173 
0.702046 -0.160622 -0.69378 193 
0.525731 0 -0.850651 197 
0.702046 0.160622 -0.69378 194 
0.259892 -0.433889 -0.862668 205 
0 -0.273267 -0.961938 209 
0.262866 -0.16246 -0.951057 206 
0.262866 0.16246 -0.951057 217 
0 0.273267 -0.961938 221 
0.259892 0.433889 -0.862668 218 
-0.259892 -0.433889 -0.862668 241 
-0.262866 -0.16246 -0.951057 245 
-0.702046 -0.160622 -0.69378 253 
-0.702046 0.160622 -0.69378 257 
-0.525731 0 -0.850651 254 
-0.262866 0.16246 -0.951057 265 
-0.259892 0.433889 -0.862668 269 
-0.273267 -0.961938 0 289 
-0.16246 -0.951057 0.262866 293 
-0.433889 -0.862668 0.259892 290 
0.273267 -0.961938 0 301 
0.433889 -0.862668 0.259892 305 
0.16246 -0.951057 0.262866 302 
0 -0.850651 0.525731 313 
0.160622 -0.69378 0.702046 317 
-0.160622 -0.69378 0.702046 314 
0.16246 -0.951057 -0.262866 341 
0.433889 -0.862668 -0.259892 338 
-0.433889 -0.862668 -0.259892 353 
-0.16246 -0.951057 -0.262866 350 
0 -0.850651 -0.525731 361 
-0.160622 -0.69378 -0.702046 365 
0.160622 -0.69378 -0.702046 362 
-0.961938 0 -0.273267 385 
-0.951057 0.262866 -0.16246 389 
-0.862668 0.259892 -0.433889 386 
-0.961938 0 0.273267 397 
-0.862668 0.259892 0.433889 401 
-0.951057 0.262866 0.16246 398 
-0.850651 0.525731 0 409 
-0.69378 0.702046 0.160622 413 
-0.69378 0.702046 -0.160622 410 
-0.951057 -0.262866 0.16246 437 
-0.862668 -0.259892 0.433889 434 
-0.862668 -0.259892 -0.433889 449 
-0.951057 -0.262866 -0.16246 446 
-0.850651 -0.525731 0 457 
-0.69378 -0.702046 -0.160622 461 
-0.69378 -0.702046 0.160622 458 
0.961938 0 0.273267 481 
0.951057 0.262866 0.16246 485 
0.862668 0.259892 0.433889 482 
0.961938 0 -0.273267 493 
0.862668 0.259892 -0.433889 497 
0.951057 0.262866 -0.16246 494 
0.850651 0.525731 0 505 
0.69378 0.702046 -0.160622 509 
0.69378 0.702046 0.160622 506 
0.951057 -0.262866 -0.16246 533 
0.862668 -0.259892 -0.433889 530 
0.862668 -0.259892 0.433889 545 
0.951057 -0.262866 0.16246 542 
0.850651 -0.525731 0 553 
0.69378 -0.702046 0.160622 557 
0.69378 -0.702046 -0.160622 554 
-0.587785 0.688191 0.425325 581 
-0.688191 0.425325 0.587785 590 
-0.425325 0.587785 0.688191 601 
0.688191 0.425325 0.587785 629 
0.587785 0.688191 0.425325 638 
0.425325 0.587785 0.688191 649 
-0.688191 0.425325 -0.587785 677 
-0.587785 0.688191 -0.425325 686 
-0.425325 0.587785 -0.688191 697 
0.587785 0.688191 -0.425325 725 
0.688191 0.425325 -0.587785 734 
0.425325 0.587785 -0.688191 745 
-0.587785 -0.688191 -0.425325 773 
-0.688191 -0.425325 -0.587785 782 
-0.425325 -0.587785 -0.688191 793 
0.688191 -0.425325 -0.587785 821 
0.587785 -0.688191 -0.425325 830 
0.425325 -0.587785 -0.688191 841 
-0.688191 -0.425325 0.587785 869 
-0.587785 -0.688191 0.425325 878 
-0.425325 -0.587785 0.688191 889 
0.587785 -0.688191 0.425325 917 
0.688191 -0.425325 0.587785 926 
0.425325 -0.587785 0.688191 937 
0 2 0 49 
1 2 0 50 
2 2 0 81 
3 2 0 82 
4 2 0 89 
5 2 1 45 
6 2 1 46 
7 2 1 52 
8 2 1 129 
12 2 1 130 
13 2 2 42 
14 2 2 44 
15 2 2 53 
16 2 2 113 
17 2 2 114 
18 2 3 56 
19 2 3 57 
20 2 3 65 
24 2 3 66 
25 2 3 73 
26 2 4 61 
27 2 4 62 
28 2 4 67 
29 2 4 97 
30 2 4 98 
31 2 5 58 
32 2 5 60 
37 2 5 109 
41 2 5 110 
42 2 5 116 
49 2 6 77 
50 2 6 78 
52 2 6 83 
53 2 6 104 
54 2 6 105 
55 2 7 74 
56 2 7 76 
61 2 7 125 
62 2 7 126 
64 2 7 132 
65 2 8 69 
66 2 8 70 
67 2 8 122 
68 2 8 124 
72 2 8 133 
73 2 9 85 
74 2 9 86 
75 2 9 106 
76 2 9 108 
77 2 9 117 
78 2 10 93 
79 2 10 94 
80 2 10 100 
85 2 10 136 
89 2 10 137 
90 2 11 90 
96 2 11 92 
97 2 11 101 
98 2 11 120 
99 2 11 121 
100 2 12 42 
101 2 12 43 
102 2 12 45 
103 2 12 47 
104 2 12 51 
108 2 12 54 
109 2 13 46 
110 2 13 47 
111 2 13 48 
112 2 13 49 
113 2 13 147 
114 2 13 149 
115 2 14 43 
116 2 14 44 
120 2 14 48 
121 2 14 50 
122 2 14 145 
123 2 14 146 
124 2 15 53 
125 2 15 54 
126 2 15 55 
127 2 15 56 
128 2 15 138 
133 2 15 140 
137 2 16 51 
138 2 16 52 
144 2 16 55 
145 2 16 57 
147 2 16 142 
148 2 16 143 
149 2 17 58 
150 2 17 59 
151 2 17 61 
156 2 17 63 
157 2 17 156 
158 2 17 158 
159 2 18 62 
160 2 18 63 
161 2 18 64 
162 2 18 65 
163 2 18 68 
164 2 18 72 
168 2 19 59 
169 2 19 60 
171 2 19 64 
172 2 19 66 
173 2 19 139 
174 2 19 140 
175 2 20 67 
181 2 20 68 
185 2 20 69 
186 2 20 71 
192 2 20 160 
193 2 20 161 
194 2 21 70 
195 2 21 71 
196 2 21 72 
197 2 21 73 
198 2 21 141 
199 2 21 143 
200 2 22 74 
204 2 22 75 
205 2 22 77 
206 2 22 79 
207 2 22 153 
208 2 22 155 
209 2 23 78 
210 2 23 79 
211 2 23 80 
212 2 23 81 
216 2 23 84 
217 2 23 88 
218 2 24 75 
219 2 24 76 
220 2 24 80 
221 2 24 82 
222 2 24 148 
223 2 24 149 
224 2 25 83 
229 2 25 84 
233 2 25 85 
234 2 25 87 
240 2 25 151 
241 2 25 152 
243 2 26 86 
244 2 26 87 
245 2 26 88 
246 2 26 89 
247 2 26 144 
252 2 26 146 
253 2 27 90 
254 2 27 91 
255 2 27 93 
256 2 27 95 
257 2 27 99 
258 2 27 102 
259 2 28 94 
260 2 28 95 
264 2 28 96 
265 2 28 97 
267 2 28 159 
268 2 28 161 
269 2 29 91 
270 2 29 92 
271 2 29 96 
277 2 29 98 
281 2 29 157 
282 2 29 158 
288 2 30 101 
289 2 30 102 
290 2 30 103 
291 2 30 104 
292 2 30 150 
293 2 30 152 
294 2 31 99 
295 2 31 100 
296 2 31 103 
300 2 31 105 
301 2 31 154 
302 2 31 155 
303 2 32 106 
304 2 32 107 
305 2 32 109 
306 2 32 111 
307 2 32 115 
308 2 32 118 
312 2 33 110 
313 2 33 111 
314 2 33 112 
315 2 33 113 
316 2 33 138 
317 2 33 139 
318 2 34 107 
319 2 34 108 
320 2 34 112 
325 2 34 114 
329 2 34 144 
330 2 34 145 
337 2 35 117 
338 2 35 118 
340 2 35 119 
341 2 35 120 
342 2 35 150 
343 2 35 151 
344 2 36 115 
349 2 36 116 
350 2 36 119 
352 2 36 121 
353 2 36 156 
354 2 36 157 
355 2 37 122 
356 2 37 123 
360 2 37 125 
361 2 37 127 
362 2 37 131 
363 2 37 134 
364 2 38 126 
365 2 38 127 
366 2 38 128 
367 2 38 129 
368 2 38 147 
373 2 38 148 
377 2 39 123 
378 2 39 124 
384 2 39 128 
385 2 39 130 
386 2 39 141 
387 2 39 142 
388 2 40 133 
389 2 40 134 
390 2 40 135 
391 2 40 136 
392 2 40 159 
396 2 40 160 
397 2 41 131 
398 2 41 132 
399 2 41 135 
400 2 41 137 
401 2 41 153 
402 2 41 154 
403 2 42 43 
404 2 42 44 
408 2 42 53 
409 2 42 54 
410 2 43 44 
411 2 43 47 
412 2 43 48 
413 2 44 114 
414 2 44 145 
415 2 45 46 
416 2 45 47 
421 2 45 51 
425 2 45 52 
426 2 46 47 
433 2 46 129 
434 2 46 147 
436 2 47 48 
437 2 48 49 
438 2 48 50 
439 2 49 50 
440 2 49 82 
445 2 49 149 
446 2 50 89 
448 2 50 146 
449 2 51 52 
450 2 51 54 
451 2 51 55 
452 2 52 130 
456 2 52 142 
457 2 53 54 
458 2 53 113 
459 2 53 138 
460 2 54 55 
461 2 55 56 
462 2 55 57 
463 2 56 57 
464 2 56 66 
469 2 56 140 
473 2 57 73 
474 2 57 143 
480 2 58 59 
481 2 58 60 
482 2 58 116 
483 2 58 156 
484 2 59 60 
485 2 59 63 
486 2 59 64 
487 2 60 110 
488 2 60 139 
492 2 61 62 
493 2 61 63 
494 2 61 98 
495 2 61 158 
496 2 62 63 
497 2 62 67 
498 2 62 68 
499 2 63 64 
500 2 64 65 
504 2 64 66 
505 2 65 66 
506 2 65 72 
507 2 65 73 
508 2 66 140 
509 2 67 68 
510 2 67 97 
511 2 67 161 
512 2 68 71 
517 2 68 72 
521 2 69 70 
522 2 69 71 
529 2 69 133 
530 2 69 160 
532 2 70 71 
533 2 70 124 
534 2 70 141 
535 2 71 72 
536 2 72 73 
541 2 73 143 
542 2 74 75 
544 2 74 76 
545 2 74 132 
546 2 74 153 
547 2 75 76 
548 2 75 79 
552 2 75 80 
553 2 76 126 
554 2 76 148 
555 2 77 78 
556 2 77 79 
557 2 77 105 
558 2 77 155 
559 2 78 79 
560 2 78 83 
565 2 78 84 
569 2 79 80 
570 2 80 81 
577 2 80 82 
580 2 81 82 
581 2 81 88 
582 2 81 89 
583 2 82 149 
589 2 83 84 
590 2 83 104 
593 2 83 152 
594 2 84 87 
596 2 84 88 
600 2 85 86 
601 2 85 87 
603 2 85 117 
605 2 85 151 
606 2 86 87 
613 2 86 108 
617 2 86 144 
618 2 87 88 
625 2 88 89 
628 2 89 146 
629 2 90 91 
630 2 90 92 
631 2 90 101 
637 2 90 102 
638 2 91 92 
641 2 91 95 
642 2 91 96 
644 2 92 121 
648 2 92 157 
649 2 93 94 
651 2 93 95 
653 2 93 99 
654 2 93 100 
661 2 94 95 
665 2 94 136 
666 2 94 159 
673 2 95 96 
676 2 96 97 
677 2 96 98 
678 2 97 98 
679 2 97 161 
685 2 98 158 
686 2 99 100 
689 2 99 102 
690 2 99 103 
692 2 100 137 
696 2 100 154 
697 2 101 102 
699 2 101 120 
701 2 101 150 
702 2 102 103 
709 2 103 104 
713 2 103 105 
714 2 104 105 
721 2 104 152 
724 2 105 155 
725 2 106 107 
726 2 106 108 
727 2 106 117 
733 2 106 118 
734 2 107 108 
737 2 107 111 
738 2 107 112 
740 2 108 144 
744 2 109 110 
745 2 109 111 
747 2 109 115 
749 2 109 116 
750 2 110 111 
757 2 110 139 
761 2 111 112 
762 2 112 113 
769 2 112 114 
772 2 113 114 
773 2 113 138 
774 2 114 145 
775 2 115 116 
781 2 115 118 
782 2 115 119 
785 2 116 156 
786 2 117 118 
788 2 117 151 
792 2 118 119 
793 2 119 120 
795 2 119 121 
797 2 120 121 
798 2 120 150 
805 2 121 157 
809 2 122 123 
810 2 122 124 
817 2 122 133 
820 2 122 134 
821 2 123 124 
822 2 123 127 
823 2 123 128 
829 2 124 141 
830 2 125 126 
833 2 125 127 
834 2 125 131 
836 2 125 132 
840 2 126 127 
841 2 126 148 
843 2 127 128 
845 2 128 129 
846 2 128 130 
853 2 129 130 
857 2 129 147 
858 2 130 142 
865 2 131 132 
868 2 131 134 
869 2 131 135 
870 2 132 153 
871 2 133 134 
877 2 133 160 
878 2 134 135 
881 2 135 136 
882 2 135 137 
884 2 136 137 
888 2 136 159 
889 2 137 154 
891 2 138 139 
893 2 138 140 
894 2 139 140 
901 2 141 142 
905 2 141 143 
906 2 142 143 
913 2 144 145 
916 2 144 146 
917 2 145 146 
918 2 147 148 
919 2 147 149 
925 2 148 149 
926 2 150 151 
929 2 150 152 
930 2 151 152 
932 2 153 154 
936 2 153 155 
937 2 154 155 
939 2 156 157 
941 2 156 158 
942 2 157 158 
949 2 159 160 
953 2 159 161 
954 2 160 161 
63 1 0 0 2 
11 2 0 1 42 
688 0 0 2 44 
60 4 1 3 42 
38 5 1 4 12 
9 3 1 5 43 
10 7 2 6 44 
44 8 2 7 43 
691 6 2 8 14 
5 10 3 5 42 
6 11 3 6 43 
1 9 3 1 44 
51 13 4 9 12 
23 14 4 10 45 
36 12 4 11 47 
48 16 5 12 45 
722 17 5 13 1 
21 15 5 14 46 
22 19 6 15 47 
728 20 6 16 46 
39 18 6 17 13 
17 22 7 14 45 
18 23 7 15 46 
13 21 7 10 47 
43 25 8 18 14 
35 26 8 19 48 
700 24 8 20 50 
40 28 9 21 48 
746 29 9 22 13 
33 27 9 23 49 
34 31 10 24 50 
752 32 10 25 49 
703 30 10 26 0 
29 34 11 23 48 
30 35 11 24 49 
25 33 11 19 50 
14 37 12 11 12 
47 38 12 27 47 
4 36 12 4 43 
20 40 13 17 47 
27 41 13 21 13 
45 39 13 28 48 
46 43 14 29 43 
24 44 14 18 48 
7 42 14 7 14 
41 46 15 28 47 
42 47 15 29 48 
37 45 15 27 43 
15 49 16 12 1 
59 50 16 30 45 
640 48 16 31 52 
12 52 17 9 45 
86 53 17 32 12 
57 51 17 33 51 
58 55 18 34 52 
92 56 18 35 51 
643 54 18 36 16 
53 58 19 33 45 
54 59 19 34 51 
49 57 19 30 52 
3 61 20 3 12 
71 62 20 37 42 
84 60 20 38 54 
0 64 21 0 42 
578 65 21 39 2 
69 63 21 40 53 
70 67 22 41 54 
584 68 22 42 53 
87 66 22 43 15 
65 70 23 40 42 
66 71 23 41 53 
61 69 23 37 54 
91 73 24 44 16 
83 74 24 45 55 
652 72 24 46 57 
88 76 25 47 55 
602 77 25 48 15 
81 75 25 49 56 
82 79 26 50 57 
608 80 26 51 56 
655 78 26 52 3 
77 82 27 49 55 
78 83 27 50 56 
73 81 27 45 57 
62 85 28 38 12 
95 86 28 53 54 
52 84 28 32 51 
68 88 29 43 54 
75 89 29 47 15 
93 87 29 54 55 
94 91 30 55 51 
72 92 30 44 55 
55 90 30 35 16 
89 94 31 54 54 
90 95 31 55 55 
85 93 31 53 51 
866 97 32 56 5 
107 98 32 57 58 
592 96 32 58 60 
872 100 33 59 58 
134 101 33 60 17 
105 99 33 61 59 
106 103 34 62 60 
140 104 34 63 59 
595 102 34 64 19 
101 106 35 61 58 
102 107 35 62 59 
97 105 35 57 60 
890 109 36 65 17 
119 110 36 66 61 
132 108 36 67 63 
896 112 37 68 61 
146 113 37 69 4 
117 111 37 70 62 
118 115 38 71 63 
152 116 38 72 62 
135 114 38 73 18 
113 118 39 70 61 
114 119 39 71 62 
109 117 39 66 63 
139 121 40 74 19 
131 122 40 75 64 
604 120 40 76 66 
136 124 41 77 64 
170 125 41 78 18 
129 123 41 79 65 
130 127 42 80 66 
176 128 42 81 65 
607 126 42 82 3 
125 130 43 79 64 
126 131 43 80 65 
121 129 43 75 66 
110 133 44 67 17 
143 134 44 83 63 
100 132 44 60 59 
116 136 45 73 63 
123 137 45 77 18 
141 135 45 84 64 
142 139 46 85 59 
120 140 46 74 64 
103 138 46 63 19 
137 142 47 84 63 
138 143 47 85 64 
133 141 47 83 59 
943 145 48 86 4 
155 146 48 87 67 
112 144 48 69 62 
940 148 49 88 67 
182 149 49 89 20 
153 147 49 90 68 
154 151 50 91 62 
188 152 50 92 68 
115 150 50 72 18 
149 154 51 90 67 
150 155 51 91 68 
145 153 51 87 62 
931 157 52 93 20 
167 158 52 94 69 
180 156 52 95 71 
928 160 53 96 69 
626 161 53 97 8 
165 159 53 98 70 
166 163 54 99 71 
632 164 54 100 70 
183 162 54 101 21 
161 166 55 98 69 
162 167 55 99 70 
157 165 55 94 71 
187 169 56 102 18 
179 170 56 103 72 
124 168 56 78 65 
184 172 57 104 72 
650 173 57 105 21 
177 171 57 106 73 
178 175 58 107 65 
656 176 58 108 73 
127 174 58 81 3 
173 178 59 106 72 
174 179 59 107 73 
169 177 59 103 65 
158 181 60 95 20 
191 182 60 109 71 
148 180 60 89 68 
164 184 61 101 71 
171 185 61 104 21 
189 183 61 110 72 
190 187 62 111 68 
168 188 62 102 72 
151 186 62 92 18 
185 190 63 110 71 
186 191 63 111 72 
181 189 63 109 68 
818 193 64 112 7 
203 194 64 113 74 
736 192 64 114 76 
824 196 65 115 74 
230 197 65 116 22 
201 195 65 117 75 
202 199 66 118 76 
236 200 66 119 75 
739 198 66 120 24 
197 202 67 117 74 
198 203 67 118 75 
193 201 67 113 76 
842 205 68 121 22 
215 206 68 122 77 
228 204 68 123 79 
848 208 69 124 77 
242 209 69 125 6 
213 207 69 126 78 
214 211 70 127 79 
248 212 70 128 78 
231 210 70 129 23 
209 214 71 126 77 
210 215 71 127 78 
205 213 71 122 79 
235 217 72 130 24 
227 218 72 131 80 
748 216 72 132 82 
232 220 73 133 80 
266 221 73 134 23 
225 219 73 135 81 
226 223 74 136 82 
272 224 74 137 81 
751 222 74 138 0 
221 226 75 135 80 
222 227 75 136 81 
217 225 75 131 82 
206 229 76 123 22 
239 230 76 139 79 
196 228 76 116 75 
212 232 77 129 79 
219 233 77 133 23 
237 231 77 140 80 
238 235 78 141 75 
216 236 78 130 80 
199 234 78 119 24 
233 238 79 140 79 
234 239 79 141 80 
229 237 79 139 75 
799 241 80 142 6 
251 242 80 143 83 
208 240 80 125 78 
796 244 81 144 83 
278 245 81 145 25 
249 243 81 146 84 
250 247 82 147 78 
284 248 82 148 84 
211 246 82 128 23 
245 250 83 146 83 
246 251 83 147 84 
241 249 83 143 78 
787 253 84 149 25 
263 254 84 150 85 
276 252 84 151 87 
784 256 85 152 85 
674 257 85 153 9 
261 255 85 154 86 
262 259 86 155 87 
680 260 86 156 86 
279 258 86 157 26 
257 262 87 154 85 
258 263 87 155 86 
253 261 87 150 87 
283 265 88 158 23 
275 266 88 159 88 
220 264 88 134 81 
280 268 89 160 88 
698 269 89 161 26 
273 267 89 162 89 
274 271 90 163 81 
704 272 90 164 89 
223 270 90 137 0 
269 274 91 162 88 
270 275 91 163 89 
265 273 91 159 81 
254 277 92 151 25 
287 278 92 165 87 
244 276 92 145 84 
260 280 93 157 87 
267 281 93 160 26 
285 279 93 166 88 
286 283 94 167 84 
264 284 94 158 88 
247 282 94 148 23 
281 286 95 166 87 
282 287 95 167 88 
277 285 95 165 84 
351 289 96 168 11 
299 290 96 169 90 
880 288 96 170 92 
348 292 97 171 90 
326 293 97 172 27 
297 291 97 173 91 
298 295 98 174 92 
332 296 98 175 91 
883 294 98 176 29 
293 298 99 173 90 
294 299 99 174 91 
289 297 99 169 92 
339 301 100 177 27 
311 302 100 178 93 
324 300 100 179 95 
336 304 101 180 93 
914 305 101 181 10 
309 303 101 182 94 
310 307 102 183 95 
920 308 102 184 94 
327 306 102 185 28 
305 310 103 182 93 
306 311 103 183 94 
301 309 103 178 95 
331 313 104 186 29 
323 314 104 187 96 
892 312 104 188 98 
328 316 105 189 96 
938 317 105 190 28 
321 315 105 191 97 
322 319 106 192 98 
944 320 106 193 97 
895 318 106 194 4 
317 322 107 191 96 
318 323 107 192 97 
313 321 107 187 98 
302 325 108 179 27 
335 326 108 195 95 
292 324 108 172 91 
308 328 109 185 95 
315 329 109 189 28 
333 327 109 196 96 
334 331 110 197 91 
312 332 110 186 96 
295 330 110 175 29 
329 334 111 196 95 
330 335 111 197 96 
325 333 111 195 91 
303 337 112 180 10 
347 338 112 198 93 
832 336 112 199 100 
300 340 113 177 93 
374 341 113 200 27 
345 339 113 201 99 
346 343 114 202 100 
380 344 114 203 99 
835 342 114 204 31 
341 346 115 201 93 
342 347 115 202 99 
337 345 115 198 100 
291 349 116 171 27 
359 350 116 205 90 
372 348 116 206 102 
288 352 117 168 90 
770 353 117 207 11 
357 351 117 208 101 
358 355 118 209 102 
776 356 118 210 101 
375 354 118 211 30 
353 358 119 208 90 
354 359 119 209 101 
349 357 119 205 102 
379 361 120 212 31 
371 362 120 213 103 
844 360 120 214 105 
376 364 121 215 103 
794 365 121 216 30 
369 363 121 217 104 
370 367 122 218 105 
800 368 122 219 104 
847 366 122 220 6 
365 370 123 217 103 
366 371 123 218 104 
361 369 123 213 105 
350 373 124 206 27 
383 374 124 221 102 
340 372 124 200 99 
356 376 125 211 102 
363 377 125 215 30 
381 375 125 222 103 
382 379 126 223 99 
360 380 126 212 103 
343 378 126 203 31 
377 382 127 222 102 
378 383 127 223 103 
373 381 127 221 99 
447 385 128 224 9 
395 386 128 225 106 
672 384 128 226 108 
444 388 129 227 106 
422 389 129 228 32 
393 387 129 229 107 
394 391 130 230 108 
428 392 130 231 107 
675 390 130 232 34 
389 394 131 229 106 
390 395 131 230 107 
385 393 131 225 108 
435 397 132 233 32 
407 398 132 234 109 
420 396 132 235 111 
432 400 133 236 109 
591 401 133 237 5 
405 399 133 238 110 
406 403 134 239 111 
588 404 134 240 110 
423 402 134 241 33 
401 406 135 238 109 
402 407 135 239 110 
397 405 135 234 111 
427 409 136 242 34 
419 410 136 243 112 
684 408 136 244 114 
424 412 137 245 112 
579 413 137 246 33 
417 411 137 247 113 
418 415 138 248 114 
576 416 138 249 113 
687 414 138 250 2 
413 418 139 247 112 
414 419 139 248 113 
409 417 139 243 114 
398 421 140 235 32 
431 422 140 251 111 
388 420 140 228 107 
404 424 141 241 111 
411 425 141 245 33 
429 423 141 252 112 
430 427 142 253 107 
408 428 142 242 112 
391 426 142 231 34 
425 430 143 252 111 
426 431 143 253 112 
421 429 143 251 107 
399 433 144 236 5 
443 434 144 254 109 
864 432 144 255 116 
396 436 145 233 109 
470 437 145 256 32 
441 435 145 257 115 
442 439 146 258 116 
476 440 146 259 115 
867 438 146 260 36 
437 442 147 257 109 
438 443 147 258 115 
433 441 147 254 116 
387 445 148 227 32 
455 446 148 261 106 
468 444 148 262 118 
384 448 149 224 106 
783 449 149 263 9 
453 447 149 264 117 
454 451 150 265 118 
780 452 150 266 117 
471 450 150 267 35 
449 454 151 264 106 
450 455 151 265 117 
445 453 151 261 118 
475 457 152 268 36 
467 458 152 269 119 
876 456 152 270 121 
472 460 153 271 119 
771 461 153 272 35 
465 459 153 273 120 
466 463 154 274 121 
768 464 154 275 120 
879 462 154 276 11 
461 466 155 273 119 
462 467 155 274 120 
457 465 155 269 121 
446 469 156 262 32 
479 470 156 277 118 
436 468 156 256 115 
452 472 157 267 118 
459 473 157 271 35 
477 471 157 278 119 
478 475 158 279 115 
456 476 158 268 119 
439 474 158 259 36 
473 478 159 278 118 
474 479 159 279 119 
469 477 159 277 115 
543 481 160 280 8 
491 482 160 281 122 
624 480 160 282 124 
540 484 161 283 122 
518 485 161 284 37 
489 483 161 285 123 
490 487 162 286 124 
524 488 162 287 123 
627 486 162 288 39 
485 490 163 285 122 
486 491 163 286 123 
481 489 163 281 124 
531 493 164 289 37 
503 494 164 290 125 
516 492 164 291 127 
528 496 165 292 125 
735 497 165 293 7 
501 495 165 294 126 
502 499 166 295 127 
732 500 166 296 126 
519 498 166 297 38 
497 502 167 294 125 
498 503 167 295 126 
493 501 167 290 127 
523 505 168 298 39 
515 506 168 299 128 
636 504 168 300 130 
520 508 169 301 128 
723 509 169 302 38 
513 507 169 303 129 
514 511 170 304 130 
720 512 170 305 129 
639 510 170 306 1 
509 514 171 303 128 
510 515 171 304 129 
505 513 171 299 130 
494 517 172 291 37 
527 518 172 307 127 
484 516 172 284 123 
500 520 173 297 127 
507 521 173 301 38 
525 519 173 308 128 
526 523 174 309 123 
504 524 174 298 128 
487 522 174 287 39 
521 526 175 308 127 
522 527 175 309 128 
517 525 175 307 123 
495 529 176 292 7 
539 530 176 310 125 
816 528 176 311 132 
492 532 177 289 125 
566 533 177 312 37 
537 531 177 313 131 
538 535 178 314 132 
572 536 178 315 131 
819 534 178 316 41 
533 538 179 313 125 
534 539 179 314 131 
529 537 179 310 132 
483 541 180 283 37 
551 542 180 317 122 
564 540 180 318 134 
480 544 181 280 122 
927 545 181 319 8 
549 543 181 320 133 
550 547 182 321 134 
924 548 182 322 133 
567 546 182 323 40 
545 550 183 320 122 
546 551 183 321 133 
541 549 183 317 134 
571 553 184 324 41 
563 554 184 325 135 
828 552 184 326 137 
568 556 185 327 135 
915 557 185 328 40 
561 555 185 329 136 
562 559 186 330 137 
912 560 186 331 136 
831 558 186 332 10 
557 562 187 329 135 
558 563 187 330 136 
553 561 187 325 137 
542 565 188 318 37 
575 566 188 333 134 
532 564 188 312 131 
548 568 189 323 134 
555 569 189 327 40 
573 567 189 334 135 
574 571 190 335 131 
552 572 190 324 135 
535 570 190 315 41 
569 574 191 334 134 
570 575 191 335 135 
565 573 191 333 131 
415 577 192 249 2 
587 578 192 336 113 
64 576 192 39 53 
412 580 193 246 113 
614 581 193 337 33 
585 579 193 338 138 
586 583 194 339 53 
620 584 194 340 138 
67 582 194 42 15 
581 586 195 338 113 
582 587 195 339 138 
577 585 195 336 53 
403 589 196 240 33 
599 590 196 341 110 
612 588 196 342 139 
400 592 197 237 110 
98 593 197 58 5 
597 591 197 343 60 
598 595 198 344 139 
104 596 198 64 60 
615 594 198 345 19 
593 598 199 343 110 
594 599 199 344 60 
589 597 199 341 139 
619 601 200 346 15 
611 602 200 347 140 
76 600 200 48 56 
616 604 201 348 140 
122 605 201 76 19 
609 603 201 349 66 
610 607 202 350 56 
128 608 202 82 66 
79 606 202 51 3 
605 610 203 349 140 
606 611 203 350 66 
601 609 203 347 56 
590 613 204 342 33 
623 614 204 351 139 
580 612 204 337 138 
596 616 205 345 139 
603 617 205 348 19 
621 615 205 352 140 
622 619 206 353 138 
600 620 206 346 140 
583 618 206 340 15 
617 622 207 352 139 
618 623 207 353 140 
613 621 207 351 138 
482 625 208 282 8 
635 626 208 354 124 
160 624 208 97 70 
488 628 209 288 124 
662 629 209 355 39 
633 627 209 356 141 
634 631 210 357 70 
668 632 210 358 141 
163 630 210 100 21 
629 634 211 356 124 
630 635 211 357 141 
625 633 211 354 70 
506 637 212 300 39 
647 638 212 359 130 
660 636 212 360 142 
512 640 213 306 130 
50 641 213 31 1 
645 639 213 361 52 
646 643 214 362 142 
56 644 214 36 52 
663 642 214 363 16 
641 646 215 361 130 
642 647 215 362 52 
637 645 215 359 142 
667 649 216 364 21 
659 650 216 365 143 
172 648 216 105 73 
664 652 217 366 143 
74 653 217 46 16 
657 651 217 367 57 
658 655 218 368 73 
80 656 218 52 57 
175 654 218 108 3 
653 658 219 367 143 
654 659 219 368 57 
649 657 219 365 73 
638 661 220 360 39 
671 662 220 369 142 
628 660 220 355 141 
644 664 221 363 142 
651 665 221 366 16 
669 663 221 370 143 
670 667 222 371 141 
648 668 222 364 143 
631 666 222 358 21 
665 670 223 370 142 
666 671 223 371 143 
661 669 223 369 141 
386 673 224 226 9 
683 674 224 372 108 
256 672 224 153 86 
392 676 225 232 108 
710 677 225 373 34 
681 675 225 374 144 
682 679 226 375 86 
716 680 226 376 144 
259 678 226 156 26 
677 682 227 374 108 
678 683 227 375 144 
673 681 227 372 86 
410 685 228 244 34 
695 686 228 377 114 
708 684 228 378 145 
416 688 229 250 114 
2 689 229 2 2 
693 687 229 379 44 
694 691 230 380 145 
8 692 230 8 44 
711 690 230 381 14 
689 694 231 379 114 
690 695 231 380 44 
685 693 231 377 145 
715 697 232 382 26 
707 698 232 383 146 
268 696 232 161 89 
712 700 233 384 146 
26 701 233 20 14 
705 699 233 385 50 
706 703 234 386 89 
32 704 234 26 50 
271 702 234 164 0 
701 706 235 385 146 
702 707 235 386 50 
697 705 235 383 89 
686 709 236 378 34 
719 710 236 387 145 
676 708 236 373 144 
692 712 237 381 145 
699 713 237 384 14 
717 711 237 388 146 
718 715 238 389 144 
696 716 238 382 146 
679 714 238 376 26 
713 718 239 388 145 
714 719 239 389 146 
709 717 239 387 144 
511 721 240 305 1 
731 722 240 390 129 
16 720 240 13 46 
508 724 241 302 129 
758 725 241 391 38 
729 723 241 392 147 
730 727 242 393 46 
764 728 242 394 147 
19 726 242 16 13 
725 730 243 392 129 
726 731 243 393 147 
721 729 243 390 46 
499 733 244 296 38 
743 734 244 395 126 
756 732 244 396 148 
496 736 245 293 126 
194 737 245 114 7 
741 735 245 397 76 
742 739 246 398 148 
200 740 246 120 76 
759 738 246 399 24 
737 742 247 397 126 
738 743 247 398 76 
733 741 247 395 148 
763 745 248 400 13 
755 746 248 401 149 
28 744 248 22 49 
760 748 249 402 149 
218 749 249 132 24 
753 747 249 403 82 
754 751 250 404 49 
224 752 250 138 82 
31 750 250 25 0 
749 754 251 403 149 
750 755 251 404 82 
745 753 251 401 49 
734 757 252 396 38 
767 758 252 405 148 
724 756 252 391 147 
740 760 253 399 148 
747 761 253 402 24 
765 759 253 406 149 
766 763 254 407 147 
744 764 254 400 149 
727 762 254 394 13 
761 766 255 406 148 
762 767 255 407 149 
757 765 255 405 147 
463 769 256 275 11 
779 770 256 408 120 
352 768 256 207 101 
460 772 257 272 120 
806 773 257 409 35 
777 771 257 410 150 
778 775 258 411 101 
812 776 258 412 150 
355 774 258 210 30 
773 778 259 410 120 
774 779 259 411 150 
769 777 259 408 101 
451 781 260 266 35 
791 782 260 413 117 
804 780 260 414 151 
448 784 261 263 117 
255 785 261 152 9 
789 783 261 415 85 
790 787 262 416 151 
252 788 262 149 85 
807 786 262 417 25 
785 790 263 415 117 
786 791 263 416 85 
781 789 263 413 151 
811 793 264 418 30 
803 794 264 419 152 
364 792 264 216 104 
808 796 265 420 152 
243 797 265 144 25 
801 795 265 421 83 
802 799 266 422 104 
240 800 266 142 83 
367 798 266 219 6 
797 802 267 421 152 
798 803 267 422 83 
793 801 267 419 104 
782 805 268 414 35 
815 806 268 423 151 
772 804 268 409 150 
788 808 269 417 151 
795 809 269 420 25 
813 807 269 424 152 
814 811 270 425 150 
792 812 270 418 152 
775 810 270 412 30 
809 814 271 424 151 
810 815 271 425 152 
805 813 271 423 150 
530 817 272 311 7 
827 818 272 426 132 
192 816 272 112 74 
536 820 273 316 132 
854 821 273 427 41 
825 819 273 428 153 
826 823 274 429 74 
860 824 274 430 153 
195 822 274 115 22 
821 826 275 428 132 
822 827 275 429 153 
817 825 275 426 74 
554 829 276 326 41 
839 830 276 431 137 
852 828 276 432 154 
560 832 277 332 137 
338 833 277 199 10 
837 831 277 433 100 
838 835 278 434 154 
344 836 278 204 100 
855 834 278 435 31 
833 838 279 433 137 
834 839 279 434 100 
829 837 279 431 154 
859 841 280 436 22 
851 842 280 437 155 
204 840 280 121 77 
856 844 281 438 155 
362 845 281 214 31 
849 843 281 439 105 
850 847 282 440 77 
368 848 282 220 105 
207 846 282 124 6 
845 850 283 439 155 
846 851 283 440 105 
841 849 283 437 77 
830 853 284 432 41 
863 854 284 441 154 
820 852 284 427 153 
836 856 285 435 154 
843 857 285 438 31 
861 855 285 442 155 
862 859 286 443 153 
840 860 286 436 155 
823 858 286 430 22 
857 862 287 442 154 
858 863 287 443 155 
853 861 287 441 153 
434 865 288 255 5 
875 866 288 444 116 
96 864 288 56 58 
440 868 289 260 116 
902 869 289 445 36 
873 867 289 446 156 
874 871 290 447 58 
908 872 290 448 156 
99 870 290 59 17 
869 874 291 446 116 
870 875 291 447 156 
865 873 291 444 58 
458 877 292 270 36 
887 878 292 449 121 
900 876 292 450 157 
464 880 293 276 121 
290 881 293 170 11 
885 879 293 451 92 
886 883 294 452 157 
296 884 294 176 92 
903 882 294 453 29 
881 886 295 451 121 
882 887 295 452 92 
877 885 295 449 157 
907 889 296 454 17 
899 890 296 455 158 
108 888 296 65 61 
904 892 297 456 158 
314 893 297 188 29 
897 891 297 457 98 
898 895 298 458 61 
320 896 298 194 98 
111 894 298 68 4 
893 898 299 457 158 
894 899 299 458 98 
889 897 299 455 61 
878 901 300 450 36 
911 902 300 459 157 
868 900 300 445 156 
884 904 301 453 157 
891 905 301 456 29 
909 903 301 460 158 
910 907 302 461 156 
888 908 302 454 158 
871 906 302 448 17 
905 910 303 460 157 
906 911 303 461 158 
901 909 303 459 156 
559 913 304 331 10 
923 914 304 462 136 
304 912 304 181 94 
556 916 305 328 136 
950 917 305 463 40 
921 915 305 464 159 
922 919 306 465 94 
956 920 306 466 159 
307 918 306 184 28 
917 922 307 464 136 
918 923 307 465 159 
913 921 307 462 94 
547 925 308 322 40 
935 926 308 467 133 
948 924 308 468 160 
544 928 309 319 133 
159 929 309 96 8 
933 927 309 469 69 
934 931 310 470 160 
156 932 310 93 69 
951 930 310 471 20 
929 934 311 469 133 
930 935 311 470 69 
925 933 311 467 160 
955 937 312 472 28 
947 938 312 473 161 
316 936 312 190 97 
952 940 313 474 161 
147 941 313 88 20 
945 939 313 475 67 
946 943 314 476 97 
144 944 314 86 67 
319 942 314 193 4 
941 946 315 475 161 
942 947 315 476 67 
937 945 315 473 97 
926 949 316 468 40 
959 950 316 477 160 
916 948 316 463 159 
932 952 317 471 160 
939 953 317 474 20 
957 951 317 478 161 
958 955 318 479 159 
936 956 318 472 161 
919 954 318 466 28 
953 958 319 478 160 
954 959 319 479 161 
949 957 319 477 159 
