ply
format ascii 1.0
comment MathUtils ply
element face 384
property list uchar int V_cycle
property int h_right
element half_edge 1152
property int h_twin
property int h_next
property int f_left
property int e_undirected
property int v_origin
element edge 576
property int h_directed
property list uchar int V_cycle
element vertex 192
property int h_out
property double x
property double y
property double z
element boundary 0
property int h_negative
end_header
3 0 8 9 0 
3 0 9 1 3 
3 1 9 10 6 
3 1 10 2 9 
3 2 10 11 12 
3 2 11 3 15 
3 3 11 12 18 
3 3 12 4 21 
3 4 12 13 24 
3 4 13 5 27 
3 5 13 14 30 
3 5 14 6 33 
3 6 14 15 36 
3 6 15 7 39 
3 7 15 8 42 
3 7 8 0 45 
3 8 16 17 48 
3 8 17 9 51 
3 9 17 18 54 
3 9 18 10 57 
3 10 18 19 60 
3 10 19 11 63 
3 11 19 20 66 
3 11 20 12 69 
3 12 20 21 72 
3 12 21 13 75 
3 13 21 22 78 
3 13 22 14 81 
3 14 22 23 84 
3 14 23 15 87 
3 15 23 16 90 
3 15 16 8 93 
3 16 24 25 96 
3 16 25 17 99 
3 17 25 26 102 
3 17 26 18 105 
3 18 26 27 108 
3 18 27 19 111 
3 19 27 28 114 
3 19 28 20 117 
3 20 28 29 120 
3 20 29 21 123 
3 21 29 30 126 
3 21 30 22 129 
3 22 30 31 132 
3 22 31 23 135 
3 23 31 24 138 
3 23 24 16 141 
3 24 32 33 144 
3 24 33 25 147 
3 25 33 34 150 
3 25 34 26 153 
3 26 34 35 156 
3 26 35 27 159 
3 27 35 36 162 
3 27 36 28 165 
3 28 36 37 168 
3 28 37 29 171 
3 29 37 38 174 
3 29 38 30 177 
3 30 38 39 180 
3 30 39 31 183 
3 31 39 32 186 
3 31 32 24 189 
3 32 40 41 192 
3 32 41 33 195 
3 33 41 42 198 
3 33 42 34 201 
3 34 42 43 204 
3 34 43 35 207 
3 35 43 44 210 
3 35 44 36 213 
3 36 44 45 216 
3 36 45 37 219 
3 37 45 46 222 
3 37 46 38 225 
3 38 46 47 228 
3 38 47 39 231 
3 39 47 40 234 
3 39 40 32 237 
3 40 48 49 240 
3 40 49 41 243 
3 41 49 50 246 
3 41 50 42 249 
3 42 50 51 252 
3 42 51 43 255 
3 43 51 52 258 
3 43 52 44 261 
3 44 52 53 264 
3 44 53 45 267 
3 45 53 54 270 
3 45 54 46 273 
3 46 54 55 276 
3 46 55 47 279 
3 47 55 48 282 
3 47 48 40 285 
3 48 56 57 288 
3 48 57 49 291 
3 49 57 58 294 
3 49 58 50 297 
3 50 58 59 300 
3 50 59 51 303 
3 51 59 60 306 
3 51 60 52 309 
3 52 60 61 312 
3 52 61 53 315 
3 53 61 62 318 
3 53 62 54 321 
3 54 62 63 324 
3 54 63 55 327 
3 55 63 56 330 
3 55 56 48 333 
3 56 64 65 336 
3 56 65 57 339 
3 57 65 66 342 
3 57 66 58 345 
3 58 66 67 348 
3 58 67 59 351 
3 59 67 68 354 
3 59 68 60 357 
3 60 68 69 360 
3 60 69 61 363 
3 61 69 70 366 
3 61 70 62 369 
3 62 70 71 372 
3 62 71 63 375 
3 63 71 64 378 
3 63 64 56 381 
3 64 72 73 384 
3 64 73 65 387 
3 65 73 74 390 
3 65 74 66 393 
3 66 74 75 396 
3 66 75 67 399 
3 67 75 76 402 
3 67 76 68 405 
3 68 76 77 408 
3 68 77 69 411 
3 69 77 78 414 
3 69 78 70 417 
3 70 78 79 420 
3 70 79 71 423 
3 71 79 72 426 
3 71 72 64 429 
3 72 80 81 432 
3 72 81 73 435 
3 73 81 82 438 
3 73 82 74 441 
3 74 82 83 444 
3 74 83 75 447 
3 75 83 84 450 
3 75 84 76 453 
3 76 84 85 456 
3 76 85 77 459 
3 77 85 86 462 
3 77 86 78 465 
3 78 86 87 468 
3 78 87 79 471 
3 79 87 80 474 
3 79 80 72 477 
3 80 88 89 480 
3 80 89 81 483 
3 81 89 90 486 
3 81 90 82 489 
3 82 90 91 492 
3 82 91 83 495 
3 83 91 92 498 
3 83 92 84 501 
3 84 92 93 504 
3 84 93 85 507 
3 85 93 94 510 
3 85 94 86 513 
3 86 94 95 516 
3 86 95 87 519 
3 87 95 88 522 
3 87 88 80 525 
3 88 96 97 528 
3 88 97 89 531 
3 89 97 98 534 
3 89 98 90 537 
3 90 98 99 540 
3 90 99 91 543 
3 91 99 100 546 
3 91 100 92 549 
3 92 100 101 552 
3 92 101 93 555 
3 93 101 102 558 
3 93 102 94 561 
3 94 102 103 564 
3 94 103 95 567 
3 95 103 96 570 
3 95 96 88 573 
3 96 104 105 576 
3 96 105 97 579 
3 97 105 106 582 
3 97 106 98 585 
3 98 106 107 588 
3 98 107 99 591 
3 99 107 108 594 
3 99 108 100 597 
3 100 108 109 600 
3 100 109 101 603 
3 101 109 110 606 
3 101 110 102 609 
3 102 110 111 612 
3 102 111 103 615 
3 103 111 104 618 
3 103 104 96 621 
3 104 112 113 624 
3 104 113 105 627 
3 105 113 114 630 
3 105 114 106 633 
3 106 114 115 636 
3 106 115 107 639 
3 107 115 116 642 
3 107 116 108 645 
3 108 116 117 648 
3 108 117 109 651 
3 109 117 118 654 
3 109 118 110 657 
3 110 118 119 660 
3 110 119 111 663 
3 111 119 112 666 
3 111 112 104 669 
3 112 120 121 672 
3 112 121 113 675 
3 113 121 122 678 
3 113 122 114 681 
3 114 122 123 684 
3 114 123 115 687 
3 115 123 124 690 
3 115 124 116 693 
3 116 124 125 696 
3 116 125 117 699 
3 117 125 126 702 
3 117 126 118 705 
3 118 126 127 708 
3 118 127 119 711 
3 119 127 120 714 
3 119 120 112 717 
3 120 128 129 720 
3 120 129 121 723 
3 121 129 130 726 
3 121 130 122 729 
3 122 130 131 732 
3 122 131 123 735 
3 123 131 132 738 
3 123 132 124 741 
3 124 132 133 744 
3 124 133 125 747 
3 125 133 134 750 
3 125 134 126 753 
3 126 134 135 756 
3 126 135 127 759 
3 127 135 128 762 
3 127 128 120 765 
3 128 136 137 768 
3 128 137 129 771 
3 129 137 138 774 
3 129 138 130 777 
3 130 138 139 780 
3 130 139 131 783 
3 131 139 140 786 
3 131 140 132 789 
3 132 140 141 792 
3 132 141 133 795 
3 133 141 142 798 
3 133 142 134 801 
3 134 142 143 804 
3 134 143 135 807 
3 135 143 136 810 
3 135 136 128 813 
3 136 144 145 816 
3 136 145 137 819 
3 137 145 146 822 
3 137 146 138 825 
3 138 146 147 828 
3 138 147 139 831 
3 139 147 148 834 
3 139 148 140 837 
3 140 148 149 840 
3 140 149 141 843 
3 141 149 150 846 
3 141 150 142 849 
3 142 150 151 852 
3 142 151 143 855 
3 143 151 144 858 
3 143 144 136 861 
3 144 152 153 864 
3 144 153 145 867 
3 145 153 154 870 
3 145 154 146 873 
3 146 154 155 876 
3 146 155 147 879 
3 147 155 156 882 
3 147 156 148 885 
3 148 156 157 888 
3 148 157 149 891 
3 149 157 158 894 
3 149 158 150 897 
3 150 158 159 900 
3 150 159 151 903 
3 151 159 152 906 
3 151 152 144 909 
3 152 160 161 912 
3 152 161 153 915 
3 153 161 162 918 
3 153 162 154 921 
3 154 162 163 924 
3 154 163 155 927 
3 155 163 164 930 
3 155 164 156 933 
3 156 164 165 936 
3 156 165 157 939 
3 157 165 166 942 
3 157 166 158 945 
3 158 166 167 948 
3 158 167 159 951 
3 159 167 160 954 
3 159 160 152 957 
3 160 168 169 960 
3 160 169 161 963 
3 161 169 170 966 
3 161 170 162 969 
3 162 170 171 972 
3 162 171 163 975 
3 163 171 172 978 
3 163 172 164 981 
3 164 172 173 984 
3 164 173 165 987 
3 165 173 174 990 
3 165 174 166 993 
3 166 174 175 996 
3 166 175 167 999 
3 167 175 168 1002 
3 167 168 160 1005 
3 168 176 177 1008 
3 168 177 169 1011 
3 169 177 178 1014 
3 169 178 170 1017 
3 170 178 179 1020 
3 170 179 171 1023 
3 171 179 180 1026 
3 171 180 172 1029 
3 172 180 181 1032 
3 172 181 173 1035 
3 173 181 182 1038 
3 173 182 174 1041 
3 174 182 183 1044 
3 174 183 175 1047 
3 175 183 176 1050 
3 175 176 168 1053 
3 176 184 185 1056 
3 176 185 177 1059 
3 177 185 186 1062 
3 177 186 178 1065 
3 178 186 187 1068 
3 178 187 179 1071 
3 179 187 188 1074 
3 179 188 180 1077 
3 180 188 189 1080 
3 180 189 181 1083 
3 181 189 190 1086 
3 181 190 182 1089 
3 182 190 191 1092 
3 182 191 183 1095 
3 183 191 184 1098 
3 183 184 176 1101 
3 184 0 1 1104 
3 184 1 185 1107 
3 185 1 2 1110 
3 185 2 186 1113 
3 186 2 3 1116 
3 186 3 187 1119 
3 187 3 4 1122 
3 187 4 188 1125 
3 188 4 5 1128 
3 188 5 189 1131 
3 189 5 6 1134 
3 189 6 190 1137 
3 190 6 7 1140 
3 190 7 191 1143 
3 191 7 0 1146 
3 191 0 184 1149 
46 1 0 0 0 
53 2 0 1 8 
3 0 0 2 9 
2 4 1 2 0 
6 5 1 3 9 
1105 3 1 4 1 
4 7 2 3 1 
59 8 2 5 9 
9 6 2 6 10 
8 10 3 6 1 
12 11 3 7 10 
1111 9 3 8 2 
10 13 4 7 2 
65 14 4 9 10 
15 12 4 10 11 
14 16 5 10 2 
18 17 5 11 11 
1117 15 5 12 3 
16 19 6 11 3 
71 20 6 13 11 
21 18 6 14 12 
20 22 7 14 3 
24 23 7 15 12 
1123 21 7 16 4 
22 25 8 15 4 
77 26 8 17 12 
27 24 8 18 13 
26 28 9 18 4 
30 29 9 19 13 
1129 27 9 20 5 
28 31 10 19 5 
83 32 10 21 13 
33 30 10 22 14 
32 34 11 22 5 
36 35 11 23 14 
1135 33 11 24 6 
34 37 12 23 6 
89 38 12 25 14 
39 36 12 26 15 
38 40 13 26 6 
42 41 13 27 15 
1141 39 13 28 7 
40 43 14 27 7 
95 44 14 29 15 
45 42 14 30 8 
44 46 15 30 7 
0 47 15 0 8 
1147 45 15 31 0 
94 49 16 32 8 
101 50 16 33 16 
51 48 16 34 17 
50 52 17 34 8 
54 53 17 35 17 
1 51 17 1 9 
52 55 18 35 9 
107 56 18 36 17 
57 54 18 37 18 
56 58 19 37 9 
60 59 19 38 18 
7 57 19 5 10 
58 61 20 38 10 
113 62 20 39 18 
63 60 20 40 19 
62 64 21 40 10 
66 65 21 41 19 
13 63 21 9 11 
64 67 22 41 11 
119 68 22 42 19 
69 66 22 43 20 
68 70 23 43 11 
72 71 23 44 20 
19 69 23 13 12 
70 73 24 44 12 
125 74 24 45 20 
75 72 24 46 21 
74 76 25 46 12 
78 77 25 47 21 
25 75 25 17 13 
76 79 26 47 13 
131 80 26 48 21 
81 78 26 49 22 
80 82 27 49 13 
84 83 27 50 22 
31 81 27 21 14 
82 85 28 50 14 
137 86 28 51 22 
87 84 28 52 23 
86 88 29 52 14 
90 89 29 53 23 
37 87 29 25 15 
88 91 30 53 15 
143 92 30 54 23 
93 90 30 55 16 
92 94 31 55 15 
48 95 31 32 16 
43 93 31 29 8 
142 97 32 56 16 
149 98 32 57 24 
99 96 32 58 25 
98 100 33 58 16 
102 101 33 59 25 
49 99 33 33 17 
100 103 34 59 17 
155 104 34 60 25 
105 102 34 61 26 
104 106 35 61 17 
108 107 35 62 26 
55 105 35 36 18 
106 109 36 62 18 
161 110 36 63 26 
111 108 36 64 27 
110 112 37 64 18 
114 113 37 65 27 
61 111 37 39 19 
112 115 38 65 19 
167 116 38 66 27 
117 114 38 67 28 
116 118 39 67 19 
120 119 39 68 28 
67 117 39 42 20 
118 121 40 68 20 
173 122 40 69 28 
123 120 40 70 29 
122 124 41 70 20 
126 125 41 71 29 
73 123 41 45 21 
124 127 42 71 21 
179 128 42 72 29 
129 126 42 73 30 
128 130 43 73 21 
132 131 43 74 30 
79 129 43 48 22 
130 133 44 74 22 
185 134 44 75 30 
135 132 44 76 31 
134 136 45 76 22 
138 137 45 77 31 
85 135 45 51 23 
136 139 46 77 23 
191 140 46 78 31 
141 138 46 79 24 
140 142 47 79 23 
96 143 47 56 24 
91 141 47 54 16 
190 145 48 80 24 
197 146 48 81 32 
147 144 48 82 33 
146 148 49 82 24 
150 149 49 83 33 
97 147 49 57 25 
148 151 50 83 25 
203 152 50 84 33 
153 150 50 85 34 
152 154 51 85 25 
156 155 51 86 34 
103 153 51 60 26 
154 157 52 86 26 
209 158 52 87 34 
159 156 52 88 35 
158 160 53 88 26 
162 161 53 89 35 
109 159 53 63 27 
160 163 54 89 27 
215 164 54 90 35 
165 162 54 91 36 
164 166 55 91 27 
168 167 55 92 36 
115 165 55 66 28 
166 169 56 92 28 
221 170 56 93 36 
171 168 56 94 37 
170 172 57 94 28 
174 173 57 95 37 
121 171 57 69 29 
172 175 58 95 29 
227 176 58 96 37 
177 174 58 97 38 
176 178 59 97 29 
180 179 59 98 38 
127 177 59 72 30 
178 181 60 98 30 
233 182 60 99 38 
183 180 60 100 39 
182 184 61 100 30 
186 185 61 101 39 
133 183 61 75 31 
184 187 62 101 31 
239 188 62 102 39 
189 186 62 103 32 
188 190 63 103 31 
144 191 63 80 32 
139 189 63 78 24 
238 193 64 104 32 
245 194 64 105 40 
195 192 64 106 41 
194 196 65 106 32 
198 197 65 107 41 
145 195 65 81 33 
196 199 66 107 33 
251 200 66 108 41 
201 198 66 109 42 
200 202 67 109 33 
204 203 67 110 42 
151 201 67 84 34 
202 205 68 110 34 
257 206 68 111 42 
207 204 68 112 43 
206 208 69 112 34 
210 209 69 113 43 
157 207 69 87 35 
208 211 70 113 35 
263 212 70 114 43 
213 210 70 115 44 
212 214 71 115 35 
216 215 71 116 44 
163 213 71 90 36 
214 217 72 116 36 
269 218 72 117 44 
219 216 72 118 45 
218 220 73 118 36 
222 221 73 119 45 
169 219 73 93 37 
220 223 74 119 37 
275 224 74 120 45 
225 222 74 121 46 
224 226 75 121 37 
228 227 75 122 46 
175 225 75 96 38 
226 229 76 122 38 
281 230 76 123 46 
231 228 76 124 47 
230 232 77 124 38 
234 233 77 125 47 
181 231 77 99 39 
232 235 78 125 39 
287 236 78 126 47 
237 234 78 127 40 
236 238 79 127 39 
192 239 79 104 40 
187 237 79 102 32 
286 241 80 128 40 
293 242 80 129 48 
243 240 80 130 49 
242 244 81 130 40 
246 245 81 131 49 
193 243 81 105 41 
244 247 82 131 41 
299 248 82 132 49 
249 246 82 133 50 
248 250 83 133 41 
252 251 83 134 50 
199 249 83 108 42 
250 253 84 134 42 
305 254 84 135 50 
255 252 84 136 51 
254 256 85 136 42 
258 257 85 137 51 
205 255 85 111 43 
256 259 86 137 43 
311 260 86 138 51 
261 258 86 139 52 
260 262 87 139 43 
264 263 87 140 52 
211 261 87 114 44 
262 265 88 140 44 
317 266 88 141 52 
267 264 88 142 53 
266 268 89 142 44 
270 269 89 143 53 
217 267 89 117 45 
268 271 90 143 45 
323 272 90 144 53 
273 270 90 145 54 
272 274 91 145 45 
276 275 91 146 54 
223 273 91 120 46 
274 277 92 146 46 
329 278 92 147 54 
279 276 92 148 55 
278 280 93 148 46 
282 281 93 149 55 
229 279 93 123 47 
280 283 94 149 47 
335 284 94 150 55 
285 282 94 151 48 
284 286 95 151 47 
240 287 95 128 48 
235 285 95 126 40 
334 289 96 152 48 
341 290 96 153 56 
291 288 96 154 57 
290 292 97 154 48 
294 293 97 155 57 
241 291 97 129 49 
292 295 98 155 49 
347 296 98 156 57 
297 294 98 157 58 
296 298 99 157 49 
300 299 99 158 58 
247 297 99 132 50 
298 301 100 158 50 
353 302 100 159 58 
303 300 100 160 59 
302 304 101 160 50 
306 305 101 161 59 
253 303 101 135 51 
304 307 102 161 51 
359 308 102 162 59 
309 306 102 163 60 
308 310 103 163 51 
312 311 103 164 60 
259 309 103 138 52 
310 313 104 164 52 
365 314 104 165 60 
315 312 104 166 61 
314 316 105 166 52 
318 317 105 167 61 
265 315 105 141 53 
316 319 106 167 53 
371 320 106 168 61 
321 318 106 169 62 
320 322 107 169 53 
324 323 107 170 62 
271 321 107 144 54 
322 325 108 170 54 
377 326 108 171 62 
327 324 108 172 63 
326 328 109 172 54 
330 329 109 173 63 
277 327 109 147 55 
328 331 110 173 55 
383 332 110 174 63 
333 330 110 175 56 
332 334 111 175 55 
288 335 111 152 56 
283 333 111 150 48 
382 337 112 176 56 
389 338 112 177 64 
339 336 112 178 65 
338 340 113 178 56 
342 341 113 179 65 
289 339 113 153 57 
340 343 114 179 57 
395 344 114 180 65 
345 342 114 181 66 
344 346 115 181 57 
348 347 115 182 66 
295 345 115 156 58 
346 349 116 182 58 
401 350 116 183 66 
351 348 116 184 67 
350 352 117 184 58 
354 353 117 185 67 
301 351 117 159 59 
352 355 118 185 59 
407 356 118 186 67 
357 354 118 187 68 
356 358 119 187 59 
360 359 119 188 68 
307 357 119 162 60 
358 361 120 188 60 
413 362 120 189 68 
363 360 120 190 69 
362 364 121 190 60 
366 365 121 191 69 
313 363 121 165 61 
364 367 122 191 61 
419 368 122 192 69 
369 366 122 193 70 
368 370 123 193 61 
372 371 123 194 70 
319 369 123 168 62 
370 373 124 194 62 
425 374 124 195 70 
375 372 124 196 71 
374 376 125 196 62 
378 377 125 197 71 
325 375 125 171 63 
376 379 126 197 63 
431 380 126 198 71 
381 378 126 199 64 
380 382 127 199 63 
336 383 127 176 64 
331 381 127 174 56 
430 385 128 200 64 
437 386 128 201 72 
387 384 128 202 73 
386 388 129 202 64 
390 389 129 203 73 
337 387 129 177 65 
388 391 130 203 65 
443 392 130 204 73 
393 390 130 205 74 
392 394 131 205 65 
396 395 131 206 74 
343 393 131 180 66 
394 397 132 206 66 
449 398 132 207 74 
399 396 132 208 75 
398 400 133 208 66 
402 401 133 209 75 
349 399 133 183 67 
400 403 134 209 67 
455 404 134 210 75 
405 402 134 211 76 
404 406 135 211 67 
408 407 135 212 76 
355 405 135 186 68 
406 409 136 212 68 
461 410 136 213 76 
411 408 136 214 77 
410 412 137 214 68 
414 413 137 215 77 
361 411 137 189 69 
412 415 138 215 69 
467 416 138 216 77 
417 414 138 217 78 
416 418 139 217 69 
420 419 139 218 78 
367 417 139 192 70 
418 421 140 218 70 
473 422 140 219 78 
423 420 140 220 79 
422 424 141 220 70 
426 425 141 221 79 
373 423 141 195 71 
424 427 142 221 71 
479 428 142 222 79 
429 426 142 223 72 
428 430 143 223 71 
384 431 143 200 72 
379 429 143 198 64 
478 433 144 224 72 
485 434 144 225 80 
435 432 144 226 81 
434 436 145 226 72 
438 437 145 227 81 
385 435 145 201 73 
436 439 146 227 73 
491 440 146 228 81 
441 438 146 229 82 
440 442 147 229 73 
444 443 147 230 82 
391 441 147 204 74 
442 445 148 230 74 
497 446 148 231 82 
447 444 148 232 83 
446 448 149 232 74 
450 449 149 233 83 
397 447 149 207 75 
448 451 150 233 75 
503 452 150 234 83 
453 450 150 235 84 
452 454 151 235 75 
456 455 151 236 84 
403 453 151 210 76 
454 457 152 236 76 
509 458 152 237 84 
459 456 152 238 85 
458 460 153 238 76 
462 461 153 239 85 
409 459 153 213 77 
460 463 154 239 77 
515 464 154 240 85 
465 462 154 241 86 
464 466 155 241 77 
468 467 155 242 86 
415 465 155 216 78 
466 469 156 242 78 
521 470 156 243 86 
471 468 156 244 87 
470 472 157 244 78 
474 473 157 245 87 
421 471 157 219 79 
472 475 158 245 79 
527 476 158 246 87 
477 474 158 247 80 
476 478 159 247 79 
432 479 159 224 80 
427 477 159 222 72 
526 481 160 248 80 
533 482 160 249 88 
483 480 160 250 89 
482 484 161 250 80 
486 485 161 251 89 
433 483 161 225 81 
484 487 162 251 81 
539 488 162 252 89 
489 486 162 253 90 
488 490 163 253 81 
492 491 163 254 90 
439 489 163 228 82 
490 493 164 254 82 
545 494 164 255 90 
495 492 164 256 91 
494 496 165 256 82 
498 497 165 257 91 
445 495 165 231 83 
496 499 166 257 83 
551 500 166 258 91 
501 498 166 259 92 
500 502 167 259 83 
504 503 167 260 92 
451 501 167 234 84 
502 505 168 260 84 
557 506 168 261 92 
507 504 168 262 93 
506 508 169 262 84 
510 509 169 263 93 
457 507 169 237 85 
508 511 170 263 85 
563 512 170 264 93 
513 510 170 265 94 
512 514 171 265 85 
516 515 171 266 94 
463 513 171 240 86 
514 517 172 266 86 
569 518 172 267 94 
519 516 172 268 95 
518 520 173 268 86 
522 521 173 269 95 
469 519 173 243 87 
520 523 174 269 87 
575 524 174 270 95 
525 522 174 271 88 
524 526 175 271 87 
480 527 175 248 88 
475 525 175 246 80 
574 529 176 272 88 
581 530 176 273 96 
531 528 176 274 97 
530 532 177 274 88 
534 533 177 275 97 
481 531 177 249 89 
532 535 178 275 89 
587 536 178 276 97 
537 534 178 277 98 
536 538 179 277 89 
540 539 179 278 98 
487 537 179 252 90 
538 541 180 278 90 
593 542 180 279 98 
543 540 180 280 99 
542 544 181 280 90 
546 545 181 281 99 
493 543 181 255 91 
544 547 182 281 91 
599 548 182 282 99 
549 546 182 283 100 
548 550 183 283 91 
552 551 183 284 100 
499 549 183 258 92 
550 553 184 284 92 
605 554 184 285 100 
555 552 184 286 101 
554 556 185 286 92 
558 557 185 287 101 
505 555 185 261 93 
556 559 186 287 93 
611 560 186 288 101 
561 558 186 289 102 
560 562 187 289 93 
564 563 187 290 102 
511 561 187 264 94 
562 565 188 290 94 
617 566 188 291 102 
567 564 188 292 103 
566 568 189 292 94 
570 569 189 293 103 
517 567 189 267 95 
568 571 190 293 95 
623 572 190 294 103 
573 570 190 295 96 
572 574 191 295 95 
528 575 191 272 96 
523 573 191 270 88 
622 577 192 296 96 
629 578 192 297 104 
579 576 192 298 105 
578 580 193 298 96 
582 581 193 299 105 
529 579 193 273 97 
580 583 194 299 97 
635 584 194 300 105 
585 582 194 301 106 
584 586 195 301 97 
588 587 195 302 106 
535 585 195 276 98 
586 589 196 302 98 
641 590 196 303 106 
591 588 196 304 107 
590 592 197 304 98 
594 593 197 305 107 
541 591 197 279 99 
592 595 198 305 99 
647 596 198 306 107 
597 594 198 307 108 
596 598 199 307 99 
600 599 199 308 108 
547 597 199 282 100 
598 601 200 308 100 
653 602 200 309 108 
603 600 200 310 109 
602 604 201 310 100 
606 605 201 311 109 
553 603 201 285 101 
604 607 202 311 101 
659 608 202 312 109 
609 606 202 313 110 
608 610 203 313 101 
612 611 203 314 110 
559 609 203 288 102 
610 613 204 314 102 
665 614 204 315 110 
615 612 204 316 111 
614 616 205 316 102 
618 617 205 317 111 
565 615 205 291 103 
616 619 206 317 103 
671 620 206 318 111 
621 618 206 319 104 
620 622 207 319 103 
576 623 207 296 104 
571 621 207 294 96 
670 625 208 320 104 
677 626 208 321 112 
627 624 208 322 113 
626 628 209 322 104 
630 629 209 323 113 
577 627 209 297 105 
628 631 210 323 105 
683 632 210 324 113 
633 630 210 325 114 
632 634 211 325 105 
636 635 211 326 114 
583 633 211 300 106 
634 637 212 326 106 
689 638 212 327 114 
639 636 212 328 115 
638 640 213 328 106 
642 641 213 329 115 
589 639 213 303 107 
640 643 214 329 107 
695 644 214 330 115 
645 642 214 331 116 
644 646 215 331 107 
648 647 215 332 116 
595 645 215 306 108 
646 649 216 332 108 
701 650 216 333 116 
651 648 216 334 117 
650 652 217 334 108 
654 653 217 335 117 
601 651 217 309 109 
652 655 218 335 109 
707 656 218 336 117 
657 654 218 337 118 
656 658 219 337 109 
660 659 219 338 118 
607 657 219 312 110 
658 661 220 338 110 
713 662 220 339 118 
663 660 220 340 119 
662 664 221 340 110 
666 665 221 341 119 
613 663 221 315 111 
664 667 222 341 111 
719 668 222 342 119 
669 666 222 343 112 
668 670 223 343 111 
624 671 223 320 112 
619 669 223 318 104 
718 673 224 344 112 
725 674 224 345 120 
675 672 224 346 121 
674 676 225 346 112 
678 677 225 347 121 
625 675 225 321 113 
676 679 226 347 113 
731 680 226 348 121 
681 678 226 349 122 
680 682 227 349 113 
684 683 227 350 122 
631 681 227 324 114 
682 685 228 350 114 
737 686 228 351 122 
687 684 228 352 123 
686 688 229 352 114 
690 689 229 353 123 
637 687 229 327 115 
688 691 230 353 115 
743 692 230 354 123 
693 690 230 355 124 
692 694 231 355 115 
696 695 231 356 124 
643 693 231 330 116 
694 697 232 356 116 
749 698 232 357 124 
699 696 232 358 125 
698 700 233 358 116 
702 701 233 359 125 
649 699 233 333 117 
700 703 234 359 117 
755 704 234 360 125 
705 702 234 361 126 
704 706 235 361 117 
708 707 235 362 126 
655 705 235 336 118 
706 709 236 362 118 
761 710 236 363 126 
711 708 236 364 127 
710 712 237 364 118 
714 713 237 365 127 
661 711 237 339 119 
712 715 238 365 119 
767 716 238 366 127 
717 714 238 367 120 
716 718 239 367 119 
672 719 239 344 120 
667 717 239 342 112 
766 721 240 368 120 
773 722 240 369 128 
723 720 240 370 129 
722 724 241 370 120 
726 725 241 371 129 
673 723 241 345 121 
724 727 242 371 121 
779 728 242 372 129 
729 726 242 373 130 
728 730 243 373 121 
732 731 243 374 130 
679 729 243 348 122 
730 733 244 374 122 
785 734 244 375 130 
735 732 244 376 131 
734 736 245 376 122 
738 737 245 377 131 
685 735 245 351 123 
736 739 246 377 123 
791 740 246 378 131 
741 738 246 379 132 
740 742 247 379 123 
744 743 247 380 132 
691 741 247 354 124 
742 745 248 380 124 
797 746 248 381 132 
747 744 248 382 133 
746 748 249 382 124 
750 749 249 383 133 
697 747 249 357 125 
748 751 250 383 125 
803 752 250 384 133 
753 750 250 385 134 
752 754 251 385 125 
756 755 251 386 134 
703 753 251 360 126 
754 757 252 386 126 
809 758 252 387 134 
759 756 252 388 135 
758 760 253 388 126 
762 761 253 389 135 
709 759 253 363 127 
760 763 254 389 127 
815 764 254 390 135 
765 762 254 391 128 
764 766 255 391 127 
720 767 255 368 128 
715 765 255 366 120 
814 769 256 392 128 
821 770 256 393 136 
771 768 256 394 137 
770 772 257 394 128 
774 773 257 395 137 
721 771 257 369 129 
772 775 258 395 129 
827 776 258 396 137 
777 774 258 397 138 
776 778 259 397 129 
780 779 259 398 138 
727 777 259 372 130 
778 781 260 398 130 
833 782 260 399 138 
783 780 260 400 139 
782 784 261 400 130 
786 785 261 401 139 
733 783 261 375 131 
784 787 262 401 131 
839 788 262 402 139 
789 786 262 403 140 
788 790 263 403 131 
792 791 263 404 140 
739 789 263 378 132 
790 793 264 404 132 
845 794 264 405 140 
795 792 264 406 141 
794 796 265 406 132 
798 797 265 407 141 
745 795 265 381 133 
796 799 266 407 133 
851 800 266 408 141 
801 798 266 409 142 
800 802 267 409 133 
804 803 267 410 142 
751 801 267 384 134 
802 805 268 410 134 
857 806 268 411 142 
807 804 268 412 143 
806 808 269 412 134 
810 809 269 413 143 
757 807 269 387 135 
808 811 270 413 135 
863 812 270 414 143 
813 810 270 415 136 
812 814 271 415 135 
768 815 271 392 136 
763 813 271 390 128 
862 817 272 416 136 
869 818 272 417 144 
819 816 272 418 145 
818 820 273 418 136 
822 821 273 419 145 
769 819 273 393 137 
820 823 274 419 137 
875 824 274 420 145 
825 822 274 421 146 
824 826 275 421 137 
828 827 275 422 146 
775 825 275 396 138 
826 829 276 422 138 
881 830 276 423 146 
831 828 276 424 147 
830 832 277 424 138 
834 833 277 425 147 
781 831 277 399 139 
832 835 278 425 139 
887 836 278 426 147 
837 834 278 427 148 
836 838 279 427 139 
840 839 279 428 148 
787 837 279 402 140 
838 841 280 428 140 
893 842 280 429 148 
843 840 280 430 149 
842 844 281 430 140 
846 845 281 431 149 
793 843 281 405 141 
844 847 282 431 141 
899 848 282 432 149 
849 846 282 433 150 
848 850 283 433 141 
852 851 283 434 150 
799 849 283 408 142 
850 853 284 434 142 
905 854 284 435 150 
855 852 284 436 151 
854 856 285 436 142 
858 857 285 437 151 
805 855 285 411 143 
856 859 286 437 143 
911 860 286 438 151 
861 858 286 439 144 
860 862 287 439 143 
816 863 287 416 144 
811 861 287 414 136 
910 865 288 440 144 
917 866 288 441 152 
867 864 288 442 153 
866 868 289 442 144 
870 869 289 443 153 
817 867 289 417 145 
868 871 290 443 145 
923 872 290 444 153 
873 870 290 445 154 
872 874 291 445 145 
876 875 291 446 154 
823 873 291 420 146 
874 877 292 446 146 
929 878 292 447 154 
879 876 292 448 155 
878 880 293 448 146 
882 881 293 449 155 
829 879 293 423 147 
880 883 294 449 147 
935 884 294 450 155 
885 882 294 451 156 
884 886 295 451 147 
888 887 295 452 156 
835 885 295 426 148 
886 889 296 452 148 
941 890 296 453 156 
891 888 296 454 157 
890 892 297 454 148 
894 893 297 455 157 
841 891 297 429 149 
892 895 298 455 149 
947 896 298 456 157 
897 894 298 457 158 
896 898 299 457 149 
900 899 299 458 158 
847 897 299 432 150 
898 901 300 458 150 
953 902 300 459 158 
903 900 300 460 159 
902 904 301 460 150 
906 905 301 461 159 
853 903 301 435 151 
904 907 302 461 151 
959 908 302 462 159 
909 906 302 463 152 
908 910 303 463 151 
864 911 303 440 152 
859 909 303 438 144 
958 913 304 464 152 
965 914 304 465 160 
915 912 304 466 161 
914 916 305 466 152 
918 917 305 467 161 
865 915 305 441 153 
916 919 306 467 153 
971 920 306 468 161 
921 918 306 469 162 
920 922 307 469 153 
924 923 307 470 162 
871 921 307 444 154 
922 925 308 470 154 
977 926 308 471 162 
927 924 308 472 163 
926 928 309 472 154 
930 929 309 473 163 
877 927 309 447 155 
928 931 310 473 155 
983 932 310 474 163 
933 930 310 475 164 
932 934 311 475 155 
936 935 311 476 164 
883 933 311 450 156 
934 937 312 476 156 
989 938 312 477 164 
939 936 312 478 165 
938 940 313 478 156 
942 941 313 479 165 
889 939 313 453 157 
940 943 314 479 157 
995 944 314 480 165 
945 942 314 481 166 
944 946 315 481 157 
948 947 315 482 166 
895 945 315 456 158 
946 949 316 482 158 
1001 950 316 483 166 
951 948 316 484 167 
950 952 317 484 158 
954 953 317 485 167 
901 951 317 459 159 
952 955 318 485 159 
1007 956 318 486 167 
957 954 318 487 160 
956 958 319 487 159 
912 959 319 464 160 
907 957 319 462 152 
1006 961 320 488 160 
1013 962 320 489 168 
963 960 320 490 169 
962 964 321 490 160 
966 965 321 491 169 
913 963 321 465 161 
964 967 322 491 161 
1019 968 322 492 169 
969 966 322 493 170 
968 970 323 493 161 
972 971 323 494 170 
919 969 323 468 162 
970 973 324 494 162 
1025 974 324 495 170 
975 972 324 496 171 
974 976 325 496 162 
978 977 325 497 171 
925 975 325 471 163 
976 979 326 497 163 
1031 980 326 498 171 
981 978 326 499 172 
980 982 327 499 163 
984 983 327 500 172 
931 981 327 474 164 
982 985 328 500 164 
1037 986 328 501 172 
987 984 328 502 173 
986 988 329 502 164 
990 989 329 503 173 
937 987 329 477 165 
988 991 330 503 165 
1043 992 330 504 173 
993 990 330 505 174 
992 994 331 505 165 
996 995 331 506 174 
943 993 331 480 166 
994 997 332 506 166 
1049 998 332 507 174 
999 996 332 508 175 
998 1000 333 508 166 
1002 1001 333 509 175 
949 999 333 483 167 
1000 1003 334 509 167 
1055 1004 334 510 175 
1005 1002 334 511 168 
1004 1006 335 511 167 
960 1007 335 488 168 
955 1005 335 486 160 
1054 1009 336 512 168 
1061 1010 336 513 176 
1011 1008 336 514 177 
1010 1012 337 514 168 
1014 1013 337 515 177 
961 1011 337 489 169 
1012 1015 338 515 169 
1067 1016 338 516 177 
1017 1014 338 517 178 
1016 1018 339 517 169 
1020 1019 339 518 178 
967 1017 339 492 170 
1018 1021 340 518 170 
1073 1022 340 519 178 
1023 1020 340 520 179 
1022 1024 341 520 170 
1026 1025 341 521 179 
973 1023 341 495 171 
1024 1027 342 521 171 
1079 1028 342 522 179 
1029 1026 342 523 180 
1028 1030 343 523 171 
1032 1031 343 524 180 
979 1029 343 498 172 
1030 1033 344 524 172 
1085 1034 344 525 180 
1035 1032 344 526 181 
1034 1036 345 526 172 
1038 1037 345 527 181 
985 1035 345 501 173 
1036 1039 346 527 173 
1091 1040 346 528 181 
1041 1038 346 529 182 
1040 1042 347 529 173 
1044 1043 347 530 182 
991 1041 347 504 174 
1042 1045 348 530 174 
1097 1046 348 531 182 
1047 1044 348 532 183 
1046 1048 349 532 174 
1050 1049 349 533 183 
997 1047 349 507 175 
1048 1051 350 533 175 
1103 1052 350 534 183 
1053 1050 350 535 176 
1052 1054 351 535 175 
1008 1055 351 512 176 
1003 1053 351 510 168 
1102 1057 352 536 176 
1109 1058 352 537 184 
1059 1056 352 538 185 
1058 1060 353 538 176 
1062 1061 353 539 185 
1009 1059 353 513 177 
1060 1063 354 539 177 
1115 1064 354 540 185 
1065 1062 354 541 186 
1064 1066 355 541 177 
1068 1067 355 542 186 
1015 1065 355 516 178 
1066 1069 356 542 178 
1121 1070 356 543 186 
1071 1068 356 544 187 
1070 1072 357 544 178 
1074 1073 357 545 187 
1021 1071 357 519 179 
1072 1075 358 545 179 
1127 1076 358 546 187 
1077 1074 358 547 188 
1076 1078 359 547 179 
1080 1079 359 548 188 
1027 1077 359 522 180 
1078 1081 360 548 180 
1133 1082 360 549 188 
1083 1080 360 550 189 
1082 1084 361 550 180 
1086 1085 361 551 189 
1033 1083 361 525 181 
1084 1087 362 551 181 
1139 1088 362 552 189 
1089 1086 362 553 190 
1088 1090 363 553 181 
1092 1091 363 554 190 
1039 1089 363 528 182 
1090 1093 364 554 182 
1145 1094 364 555 190 
1095 1092 364 556 191 
1094 1096 365 556 182 
1098 1097 365 557 191 
1045 1095 365 531 183 
1096 1099 366 557 183 
1151 1100 366 558 191 
1101 1098 366 559 184 
1100 1102 367 559 183 
1056 1103 367 536 184 
1051 1101 367 534 176 
1150 1105 368 560 184 
5 1106 368 4 0 
1107 1104 368 561 1 
1106 1108 369 561 184 
1110 1109 369 562 1 
1057 1107 369 537 185 
1108 1111 370 562 185 
11 1112 370 8 1 
1113 1110 370 563 2 
1112 1114 371 563 185 
1116 1115 371 564 2 
1063 1113 371 540 186 
1114 1117 372 564 186 
17 1118 372 12 2 
1119 1116 372 565 3 
1118 1120 373 565 186 
1122 1121 373 566 3 
1069 1119 373 543 187 
1120 1123 374 566 187 
23 1124 374 16 3 
1125 1122 374 567 4 
1124 1126 375 567 187 
1128 1127 375 568 4 
1075 1125 375 546 188 
1126 1129 376 568 188 
29 1130 376 20 4 
1131 1128 376 569 5 
1130 1132 377 569 188 
1134 1133 377 570 5 
1081 1131 377 549 189 
1132 1135 378 570 189 
35 1136 378 24 5 
1137 1134 378 571 6 
1136 1138 379 571 189 
1140 1139 379 572 6 
1087 1137 379 552 190 
1138 1141 380 572 190 
41 1142 380 28 6 
1143 1140 380 573 7 
1142 1144 381 573 190 
1146 1145 381 574 7 
1093 1143 381 555 191 
1144 1147 382 574 191 
47 1148 382 31 7 
1149 1146 382 575 0 
1148 1150 383 575 191 
1104 1151 383 560 0 
1099 1149 383 558 184 
0 2 0 8 
1 2 8 9 
2 2 0 9 
4 2 1 9 
5 2 0 1 
7 2 9 10 
8 2 1 10 
10 2 2 10 
11 2 1 2 
13 2 10 11 
14 2 2 11 
16 2 3 11 
17 2 2 3 
19 2 11 12 
20 2 3 12 
22 2 4 12 
23 2 3 4 
25 2 12 13 
26 2 4 13 
28 2 5 13 
29 2 4 5 
31 2 13 14 
32 2 5 14 
34 2 6 14 
35 2 5 6 
37 2 14 15 
38 2 6 15 
40 2 7 15 
41 2 6 7 
43 2 8 15 
44 2 7 8 
47 2 0 7 
48 2 8 16 
49 2 16 17 
50 2 8 17 
52 2 9 17 
55 2 17 18 
56 2 9 18 
58 2 10 18 
61 2 18 19 
62 2 10 19 
64 2 11 19 
67 2 19 20 
68 2 11 20 
70 2 12 20 
73 2 20 21 
74 2 12 21 
76 2 13 21 
79 2 21 22 
80 2 13 22 
82 2 14 22 
85 2 22 23 
86 2 14 23 
88 2 15 23 
91 2 16 23 
92 2 15 16 
96 2 16 24 
97 2 24 25 
98 2 16 25 
100 2 17 25 
103 2 25 26 
104 2 17 26 
106 2 18 26 
109 2 26 27 
110 2 18 27 
112 2 19 27 
115 2 27 28 
116 2 19 28 
118 2 20 28 
121 2 28 29 
122 2 20 29 
124 2 21 29 
127 2 29 30 
128 2 21 30 
130 2 22 30 
133 2 30 31 
134 2 22 31 
136 2 23 31 
139 2 24 31 
140 2 23 24 
144 2 24 32 
145 2 32 33 
146 2 24 33 
148 2 25 33 
151 2 33 34 
152 2 25 34 
154 2 26 34 
157 2 34 35 
158 2 26 35 
160 2 27 35 
163 2 35 36 
164 2 27 36 
166 2 28 36 
169 2 36 37 
170 2 28 37 
172 2 29 37 
175 2 37 38 
176 2 29 38 
178 2 30 38 
181 2 38 39 
182 2 30 39 
184 2 31 39 
187 2 32 39 
188 2 31 32 
192 2 32 40 
193 2 40 41 
194 2 32 41 
196 2 33 41 
199 2 41 42 
200 2 33 42 
202 2 34 42 
205 2 42 43 
206 2 34 43 
208 2 35 43 
211 2 43 44 
212 2 35 44 
214 2 36 44 
217 2 44 45 
218 2 36 45 
220 2 37 45 
223 2 45 46 
224 2 37 46 
226 2 38 46 
229 2 46 47 
230 2 38 47 
232 2 39 47 
235 2 40 47 
236 2 39 40 
240 2 40 48 
241 2 48 49 
242 2 40 49 
244 2 41 49 
247 2 49 50 
248 2 41 50 
250 2 42 50 
253 2 50 51 
254 2 42 51 
256 2 43 51 
259 2 51 52 
260 2 43 52 
262 2 44 52 
265 2 52 53 
266 2 44 53 
268 2 45 53 
271 2 53 54 
272 2 45 54 
274 2 46 54 
277 2 54 55 
278 2 46 55 
280 2 47 55 
283 2 48 55 
284 2 47 48 
288 2 48 56 
289 2 56 57 
290 2 48 57 
292 2 49 57 
295 2 57 58 
296 2 49 58 
298 2 50 58 
301 2 58 59 
302 2 50 59 
304 2 51 59 
307 2 59 60 
308 2 51 60 
310 2 52 60 
313 2 60 61 
314 2 52 61 
316 2 53 61 
319 2 61 62 
320 2 53 62 
322 2 54 62 
325 2 62 63 
326 2 54 63 
328 2 55 63 
331 2 56 63 
332 2 55 56 
336 2 56 64 
337 2 64 65 
338 2 56 65 
340 2 57 65 
343 2 65 66 
344 2 57 66 
346 2 58 66 
349 2 66 67 
350 2 58 67 
352 2 59 67 
355 2 67 68 
356 2 59 68 
358 2 60 68 
361 2 68 69 
362 2 60 69 
364 2 61 69 
367 2 69 70 
368 2 61 70 
370 2 62 70 
373 2 70 71 
374 2 62 71 
376 2 63 71 
379 2 64 71 
380 2 63 64 
384 2 64 72 
385 2 72 73 
386 2 64 73 
388 2 65 73 
391 2 73 74 
392 2 65 74 
394 2 66 74 
397 2 74 75 
398 2 66 75 
400 2 67 75 
403 2 75 76 
404 2 67 76 
406 2 68 76 
409 2 76 77 
410 2 68 77 
412 2 69 77 
415 2 77 78 
416 2 69 78 
418 2 70 78 
421 2 78 79 
422 2 70 79 
424 2 71 79 
427 2 72 79 
428 2 71 72 
432 2 72 80 
433 2 80 81 
434 2 72 81 
436 2 73 81 
439 2 81 82 
440 2 73 82 
442 2 74 82 
445 2 82 83 
446 2 74 83 
448 2 75 83 
451 2 83 84 
452 2 75 84 
454 2 76 84 
457 2 84 85 
458 2 76 85 
460 2 77 85 
463 2 85 86 
464 2 77 86 
466 2 78 86 
469 2 86 87 
470 2 78 87 
472 2 79 87 
475 2 80 87 
476 2 79 80 
480 2 80 88 
481 2 88 89 
482 2 80 89 
484 2 81 89 
487 2 89 90 
488 2 81 90 
490 2 82 90 
493 2 90 91 
494 2 82 91 
496 2 83 91 
499 2 91 92 
500 2 83 92 
502 2 84 92 
505 2 92 93 
506 2 84 93 
508 2 85 93 
511 2 93 94 
512 2 85 94 
514 2 86 94 
517 2 94 95 
518 2 86 95 
520 2 87 95 
523 2 88 95 
524 2 87 88 
528 2 88 96 
529 2 96 97 
530 2 88 97 
532 2 89 97 
535 2 97 98 
536 2 89 98 
538 2 90 98 
541 2 98 99 
542 2 90 99 
544 2 91 99 
547 2 99 100 
548 2 91 100 
550 2 92 100 
553 2 100 101 
554 2 92 101 
556 2 93 101 
559 2 101 102 
560 2 93 102 
562 2 94 102 
565 2 102 103 
566 2 94 103 
568 2 95 103 
571 2 96 103 
572 2 95 96 
576 2 96 104 
577 2 104 105 
578 2 96 105 
580 2 97 105 
583 2 105 106 
584 2 97 106 
586 2 98 106 
589 2 106 107 
590 2 98 107 
592 2 99 107 
595 2 107 108 
596 2 99 108 
598 2 100 108 
601 2 108 109 
602 2 100 109 
604 2 101 109 
607 2 109 110 
608 2 101 110 
610 2 102 110 
613 2 110 111 
614 2 102 111 
616 2 103 111 
619 2 104 111 
620 2 103 104 
624 2 104 112 
625 2 112 113 
626 2 104 113 
628 2 105 113 
631 2 113 114 
632 2 105 114 
634 2 106 114 
637 2 114 115 
638 2 106 115 
640 2 107 115 
643 2 115 116 
644 2 107 116 
646 2 108 116 
649 2 116 117 
650 2 108 117 
652 2 109 117 
655 2 117 118 
656 2 109 118 
658 2 110 118 
661 2 118 119 
662 2 110 119 
664 2 111 119 
667 2 112 119 
668 2 111 112 
672 2 112 120 
673 2 120 121 
674 2 112 121 
676 2 113 121 
679 2 121 122 
680 2 113 122 
682 2 114 122 
685 2 122 123 
686 2 114 123 
688 2 115 123 
691 2 123 124 
692 2 115 124 
694 2 116 124 
697 2 124 125 
698 2 116 125 
700 2 117 125 
703 2 125 126 
704 2 117 126 
706 2 118 126 
709 2 126 127 
710 2 118 127 
712 2 119 127 
715 2 120 127 
716 2 119 120 
720 2 120 128 
721 2 128 129 
722 2 120 129 
724 2 121 129 
727 2 129 130 
728 2 121 130 
730 2 122 130 
733 2 130 131 
734 2 122 131 
736 2 123 131 
739 2 131 132 
740 2 123 132 
742 2 124 132 
745 2 132 133 
746 2 124 133 
748 2 125 133 
751 2 133 134 
752 2 125 134 
754 2 126 134 
757 2 134 135 
758 2 126 135 
760 2 127 135 
763 2 128 135 
764 2 127 128 
768 2 128 136 
769 2 136 137 
770 2 128 137 
772 2 129 137 
775 2 137 138 
776 2 129 138 
778 2 130 138 
781 2 138 139 
782 2 130 139 
784 2 131 139 
787 2 139 140 
788 2 131 140 
790 2 132 140 
793 2 140 141 
794 2 132 141 
796 2 133 141 
799 2 141 142 
800 2 133 142 
802 2 134 142 
805 2 142 143 
806 2 134 143 
808 2 135 143 
811 2 136 143 
812 2 135 136 
816 2 136 144 
817 2 144 145 
818 2 136 145 
820 2 137 145 
823 2 145 146 
824 2 137 146 
826 2 138 146 
829 2 146 147 
830 2 138 147 
832 2 139 147 
835 2 147 148 
836 2 139 148 
838 2 140 148 
841 2 148 149 
842 2 140 149 
844 2 141 149 
847 2 149 150 
848 2 141 150 
850 2 142 150 
853 2 150 151 
854 2 142 151 
856 2 143 151 
859 2 144 151 
860 2 143 144 
864 2 144 152 
865 2 152 153 
866 2 144 153 
868 2 145 153 
871 2 153 154 
872 2 145 154 
874 2 146 154 
877 2 154 155 
878 2 146 155 
880 2 147 155 
883 2 155 156 
884 2 147 156 
886 2 148 156 
889 2 156 157 
890 2 148 157 
892 2 149 157 
895 2 157 158 
896 2 149 158 
898 2 150 158 
901 2 158 159 
902 2 150 159 
904 2 151 159 
907 2 152 159 
908 2 151 152 
912 2 152 160 
913 2 160 161 
914 2 152 161 
916 2 153 161 
919 2 161 162 
920 2 153 162 
922 2 154 162 
925 2 162 163 
926 2 154 163 
928 2 155 163 
931 2 163 164 
932 2 155 164 
934 2 156 164 
937 2 164 165 
938 2 156 165 
940 2 157 165 
943 2 165 166 
944 2 157 166 
946 2 158 166 
949 2 166 167 
950 2 158 167 
952 2 159 167 
955 2 160 167 
956 2 159 160 
960 2 160 168 
961 2 168 169 
962 2 160 169 
964 2 161 169 
967 2 169 170 
968 2 161 170 
970 2 162 170 
973 2 170 171 
974 2 162 171 
976 2 163 171 
979 2 171 172 
980 2 163 172 
982 2 164 172 
985 2 172 173 
986 2 164 173 
988 2 165 173 
991 2 173 174 
992 2 165 174 
994 2 166 174 
997 2 174 175 
998 2 166 175 
1000 2 167 175 
1003 2 168 175 
1004 2 167 168 
1008 2 168 176 
1009 2 176 177 
1010 2 168 177 
1012 2 169 177 
1015 2 177 178 
1016 2 169 178 
1018 2 170 178 
1021 2 178 179 
1022 2 170 179 
1024 2 171 179 
1027 2 179 180 
1028 2 171 180 
1030 2 172 180 
1033 2 180 181 
1034 2 172 181 
1036 2 173 181 
1039 2 181 182 
1040 2 173 182 
1042 2 174 182 
1045 2 182 183 
1046 2 174 183 
1048 2 175 183 
1051 2 176 183 
1052 2 175 176 
1056 2 176 184 
1057 2 184 185 
1058 2 176 185 
1060 2 177 185 
1063 2 185 186 
1064 2 177 186 
1066 2 178 186 
1069 2 186 187 
1070 2 178 187 
1072 2 179 187 
1075 2 187 188 
1076 2 179 188 
1078 2 180 188 
1081 2 188 189 
1082 2 180 189 
1084 2 181 189 
1087 2 189 190 
1088 2 181 190 
1090 2 182 190 
1093 2 190 191 
1094 2 182 191 
1096 2 183 191 
1099 2 184 191 
1100 2 183 184 
1104 2 0 184 
1106 2 1 184 
1108 2 1 185 
1112 2 2 185 
1114 2 2 186 
1118 2 3 186 
1120 2 3 187 
1124 2 4 187 
1126 2 4 188 
1130 2 5 188 
1132 2 5 189 
1136 2 6 189 
1138 2 6 190 
1142 2 7 190 
1144 2 7 191 
1148 2 0 191 
0 0.367553 0 0 
5 0.340639 0 0.0649747 
11 0.275664 0 0.0918881 
17 0.21069 0 0.0649747 
23 0.183776 0 1.12531e-17 
29 0.21069 0 -0.0649747 
35 0.275664 0 -0.0918881 
41 0.340639 0 -0.0649747 
1 0.355029 0.0951296 0 
2 0.329032 0.0881639 0.0649747 
8 0.266271 0.0713472 0.0918881 
14 0.203511 0.0545305 0.0649747 
20 0.177514 0.0475648 1.12531e-17 
26 0.203511 0.0545305 -0.0649747 
32 0.266271 0.0713472 -0.0918881 
38 0.329032 0.0881639 -0.0649747 
49 0.31831 0.183776 0 
50 0.295002 0.17032 0.0649747 
56 0.238732 0.137832 0.0918881 
62 0.182463 0.105345 0.0649747 
68 0.159155 0.0918881 1.12531e-17 
74 0.182463 0.105345 -0.0649747 
80 0.238732 0.137832 -0.0918881 
86 0.295002 0.17032 -0.0649747 
97 0.259899 0.259899 0 
98 0.240868 0.240868 0.0649747 
104 0.194924 0.194924 0.0918881 
110 0.14898 0.14898 0.0649747 
116 0.129949 0.129949 1.12531e-17 
122 0.14898 0.14898 -0.0649747 
128 0.194924 0.194924 -0.0918881 
134 0.240868 0.240868 -0.0649747 
145 0.183776 0.31831 0 
146 0.17032 0.295002 0.0649747 
152 0.137832 0.238732 0.0918881 
158 0.105345 0.182463 0.0649747 
164 0.0918881 0.159155 1.12531e-17 
170 0.105345 0.182463 -0.0649747 
176 0.137832 0.238732 -0.0918881 
182 0.17032 0.295002 -0.0649747 
193 0.0951296 0.355029 0 
194 0.0881639 0.329032 0.0649747 
200 0.0713472 0.266271 0.0918881 
206 0.0545305 0.203511 0.0649747 
212 0.0475648 0.177514 1.12531e-17 
218 0.0545305 0.203511 -0.0649747 
224 0.0713472 0.266271 -0.0918881 
230 0.0881639 0.329032 -0.0649747 
241 2.25061e-17 0.367553 0 
242 2.08581e-17 0.340639 0.0649747 
248 1.68796e-17 0.275664 0.0918881 
254 1.2901e-17 0.21069 0.0649747 
260 1.12531e-17 0.183776 1.12531e-17 
266 1.2901e-17 0.21069 -0.0649747 
272 1.68796e-17 0.275664 -0.0918881 
278 2.08581e-17 0.340639 -0.0649747 
289 -0.0951296 0.355029 0 
290 -0.0881639 0.329032 0.0649747 
296 -0.0713472 0.266271 0.0918881 
302 -0.0545305 0.203511 0.0649747 
308 -0.0475648 0.177514 1.12531e-17 
314 -0.0545305 0.203511 -0.0649747 
320 -0.0713472 0.266271 -0.0918881 
326 -0.0881639 0.329032 -0.0649747 
337 -0.183776 0.31831 0 
338 -0.17032 0.295002 0.0649747 
344 -0.137832 0.238732 0.0918881 
350 -0.105345 0.182463 0.0649747 
356 -0.0918881 0.159155 1.12531e-17 
362 -0.105345 0.182463 -0.0649747 
368 -0.137832 0.238732 -0.0918881 
374 -0.17032 0.295002 -0.0649747 
385 -0.259899 0.259899 0 
386 -0.240868 0.240868 0.0649747 
392 -0.194924 0.194924 0.0918881 
398 -0.14898 0.14898 0.0649747 
404 -0.129949 0.129949 1.12531e-17 
410 -0.14898 0.14898 -0.0649747 
416 -0.194924 0.194924 -0.0918881 
422 -0.240868 0.240868 -0.0649747 
433 -0.31831 0.183776 0 
434 -0.295002 0.17032 0.0649747 
440 -0.238732 0.137832 0.0918881 
446 -0.182463 0.105345 0.0649747 
452 -0.159155 0.0918881 1.12531e-17 
458 -0.182463 0.105345 -0.0649747 
464 -0.238732 0.137832 -0.0918881 
470 -0.295002 0.17032 -0.0649747 
481 -0.355029 0.0951296 0 
482 -0.329032 0.0881639 0.0649747 
488 -0.266271 0.0713472 0.0918881 
494 -0.203511 0.0545305 0.0649747 
500 -0.177514 0.0475648 1.12531e-17 
506 -0.203511 0.0545305 -0.0649747 
512 -0.266271 0.0713472 -0.0918881 
518 -0.329032 0.0881639 -0.0649747 
529 -0.367553 4.50122e-17 0 
530 -0.340639 4.17163e-17 0.0649747 
536 -0.275664 3.37592e-17 0.0918881 
542 -0.21069 2.5802e-17 0.0649747 
548 -0.183776 2.25061e-17 1.12531e-17 
554 -0.21069 2.5802e-17 -0.0649747 
560 -0.275664 3.37592e-17 -0.0918881 
566 -0.340639 4.17163e-17 -0.0649747 
577 -0.355029 -0.0951296 0 
578 -0.329032 -0.0881639 0.0649747 
584 -0.266271 -0.0713472 0.0918881 
590 -0.203511 -0.0545305 0.0649747 
596 -0.177514 -0.0475648 1.12531e-17 
602 -0.203511 -0.0545305 -0.0649747 
608 -0.266271 -0.0713472 -0.0918881 
614 -0.329032 -0.0881639 -0.0649747 
625 -0.31831 -0.183776 0 
626 -0.295002 -0.17032 0.0649747 
632 -0.238732 -0.137832 0.0918881 
638 -0.182463 -0.105345 0.0649747 
644 -0.159155 -0.0918881 1.12531e-17 
650 -0.182463 -0.105345 -0.0649747 
656 -0.238732 -0.137832 -0.0918881 
662 -0.295002 -0.17032 -0.0649747 
673 -0.259899 -0.259899 0 
674 -0.240868 -0.240868 0.0649747 
680 -0.194924 -0.194924 0.0918881 
686 -0.14898 -0.14898 0.0649747 
692 -0.129949 -0.129949 1.12531e-17 
698 -0.14898 -0.14898 -0.0649747 
704 -0.194924 -0.194924 -0.0918881 
710 -0.240868 -0.240868 -0.0649747 
721 -0.183776 -0.31831 0 
722 -0.17032 -0.295002 0.0649747 
728 -0.137832 -0.238732 0.0918881 
734 -0.105345 -0.182463 0.0649747 
740 -0.0918881 -0.159155 1.12531e-17 
746 -0.105345 -0.182463 -0.0649747 
752 -0.137832 -0.238732 -0.0918881 
758 -0.17032 -0.295002 -0.0649747 
769 -0.0951296 -0.355029 0 
770 -0.0881639 -0.329032 0.0649747 
776 -0.0713472 -0.266271 0.0918881 
782 -0.0545305 -0.203511 0.0649747 
788 -0.0475648 -0.177514 1.12531e-17 
794 -0.0545305 -0.203511 -0.0649747 
800 -0.0713472 -0.266271 -0.0918881 
806 -0.0881639 -0.329032 -0.0649747 
817 -6.75183e-17 -0.367553 0 
818 -6.25744e-17 -0.340639 0.0649747 
824 -5.06387e-17 -0.275664 0.0918881 
830 -3.87031e-17 -0.21069 0.0649747 
836 -3.37592e-17 -0.183776 1.12531e-17 
842 -3.87031e-17 -0.21069 -0.0649747 
848 -5.06387e-17 -0.275664 -0.0918881 
854 -6.25744e-17 -0.340639 -0.0649747 
865 0.0951296 -0.355029 0 
866 0.0881639 -0.329032 0.0649747 
872 0.0713472 -0.266271 0.0918881 
878 0.0545305 -0.203511 0.0649747 
884 0.0475648 -0.177514 1.12531e-17 
890 0.0545305 -0.203511 -0.0649747 
896 0.0713472 -0.266271 -0.0918881 
902 0.0881639 -0.329032 -0.0649747 
913 0.183776 -0.31831 0 
914 0.17032 -0.295002 0.0649747 
920 0.137832 -0.238732 0.0918881 
926 0.105345 -0.182463 0.0649747 
932 0.0918881 -0.159155 1.12531e-17 
938 0.105345 -0.182463 -0.0649747 
944 0.137832 -0.238732 -0.0918881 
950 0.17032 -0.295002 -0.0649747 
961 0.259899 -0.259899 0 
962 0.240868 -0.240868 0.0649747 
968 0.194924 -0.194924 0.0918881 
974 0.14898 -0.14898 0.0649747 
980 0.129949 -0.129949 1.12531e-17 
986 0.14898 -0.14898 -0.0649747 
992 0.194924 -0.194924 -0.0918881 
998 0.240868 -0.240868 -0.0649747 
1009 0.31831 -0.183776 0 
1010 0.295002 -0.17032 0.0649747 
1016 0.238732 -0.137832 0.0918881 
1022 0.182463 -0.105345 0.0649747 
1028 0.159155 -0.0918881 1.12531e-17 
1034 0.182463 -0.105345 -0.0649747 
1040 0.238732 -0.137832 -0.0918881 
1046 0.295002 -0.17032 -0.0649747 
1057 0.355029 -0.0951296 0 
1058 0.329032 -0.0881639 0.0649747 
1064 0.266271 -0.0713472 0.0918881 
1070 0.203511 -0.0545305 0.0649747 
1076 0.177514 -0.0475648 1.12531e-17 
1082 0.203511 -0.0545305 -0.0649747 
1088 0.266271 -0.0713472 -0.0918881 
1094 0.329032 -0.0881639 -0.0649747 
