ply
format ascii 1.0
comment MathUtils ply
element boundary 0
property int h_negative
element vertex 12
property double x
property double y
property double z
property int h_out
element face 20
property list uchar int V_cycle
property int h_right
element edge 30
property list uchar int V_cycle
property int h_directed
element half_edge 60
property int h_twin
property int h_next
property int f_left
property int e_undirected
property int v_origin
end_header
0 0.525731 -0.850651 2 
0.525731 0.850651 0 1 
-0.525731 0.850651 0 0 
0 0.525731 0.850651 5 
0 -0.525731 0.850651 7 
-0.850651 0 0.525731 6 
0 -0.525731 -0.850651 13 
0.850651 0 -0.525731 12 
0.850651 0 0.525731 10 
-0.850651 0 -0.525731 16 
0.525731 -0.850651 0 19 
-0.525731 -0.850651 0 18 
3 2 1 0 0 
3 1 2 3 3 
3 5 4 3 6 
3 4 8 3 9 
3 7 6 0 12 
3 6 9 0 15 
3 11 10 4 18 
3 10 11 6 21 
3 9 5 2 24 
3 5 9 11 27 
3 8 7 1 30 
3 7 8 10 33 
3 2 5 3 36 
3 8 1 3 39 
3 9 2 0 42 
3 1 7 0 45 
3 11 9 6 48 
3 7 10 6 51 
3 5 11 4 54 
3 10 8 4 57 
2 0 1 0 
2 0 2 1 
2 0 6 2 
2 0 7 4 
2 0 9 5 
2 1 2 6 
2 1 3 7 
2 1 7 8 
2 1 8 9 
2 2 3 10 
2 2 5 12 
2 2 9 13 
2 3 4 14 
2 3 5 15 
2 3 8 16 
2 4 5 18 
2 4 8 19 
2 4 10 20 
2 4 11 22 
2 5 9 23 
2 5 11 24 
2 6 7 25 
2 6 9 26 
2 6 10 28 
2 6 11 29 
2 7 8 30 
2 7 10 31 
2 8 10 32 
2 9 11 34 
2 10 11 35 
3 1 0 0 2 
47 2 0 1 1 
43 0 0 2 0 
0 4 1 0 1 
38 5 1 3 2 
40 3 1 4 3 
56 7 2 5 5 
11 8 2 6 4 
37 6 2 7 3 
58 10 3 8 4 
41 11 3 9 8 
7 9 3 6 3 
53 13 4 10 7 
17 14 4 11 6 
46 12 4 12 0 
49 16 5 13 6 
44 17 5 14 9 
13 15 5 11 0 
21 19 6 15 11 
59 20 6 16 10 
55 18 6 17 4 
18 22 7 15 10 
50 23 7 18 11 
52 21 7 19 6 
27 25 8 20 9 
36 26 8 21 5 
42 24 8 22 2 
24 28 9 20 5 
48 29 9 23 9 
54 27 9 24 11 
33 31 10 25 8 
45 32 10 26 7 
39 30 10 27 1 
30 34 11 25 7 
57 35 11 28 8 
51 33 11 29 10 
25 37 12 21 2 
8 38 12 7 5 
4 36 12 3 3 
32 40 13 27 8 
5 41 13 4 1 
10 39 13 9 3 
26 43 14 22 9 
2 44 14 2 2 
16 42 14 14 0 
31 46 15 26 1 
14 47 15 12 7 
1 45 15 1 0 
28 49 16 23 11 
15 50 16 13 9 
22 48 16 18 6 
35 52 17 29 7 
23 53 17 19 10 
12 51 17 10 6 
29 55 18 24 5 
20 56 18 17 11 
6 54 18 5 4 
34 58 19 28 10 
9 59 19 8 8 
19 57 19 16 4 
