ply
format ascii 1.0
comment MathUtils ply
element vertex 42
property int h_out
property double x
property double y
property double z
element face 80
property int h_right
property list uchar int V_cycle
element half_edge 240
property int h_twin
property int h_next
property int f_left
property int e_undirected
property int v_origin
element edge 120
property int h_directed
property list uchar int V_cycle
element boundary 0
property int h_negative
end_header
8 0 0.525731 -0.850651 
4 0.525731 0.850651 0 
0 -0.525731 0.850651 0 
20 0 0.525731 0.850651 
28 0 -0.525731 0.850651 
24 -0.850651 0 0.525731 
52 0 -0.525731 -0.850651 
48 0.850651 0 -0.525731 
40 0.850651 0 0.525731 
64 -0.850651 0 -0.525731 
76 0.525731 -0.850651 0 
72 -0.525731 -0.850651 0 
1 0 1 0 
5 0.309017 0.809017 -0.5 
2 -0.309017 0.809017 -0.5 
17 -0.309017 0.809017 0.5 
14 0.309017 0.809017 0.5 
25 -0.5 -0.309017 0.809017 
29 0 0 1 
26 -0.5 0.309017 0.809017 
37 0.5 -0.309017 0.809017 
41 0.5 0.309017 0.809017 
49 0.5 -0.309017 -0.809017 
53 0 0 -1 
50 0.5 0.309017 -0.809017 
61 -0.5 -0.309017 -0.809017 
65 -0.5 0.309017 -0.809017 
73 0 -1 0 
77 0.309017 -0.809017 0.5 
74 -0.309017 -0.809017 0.5 
89 -0.309017 -0.809017 -0.5 
86 0.309017 -0.809017 -0.5 
97 -1 0 0 
101 -0.809017 0.5 0.309017 
98 -0.809017 0.5 -0.309017 
113 -0.809017 -0.5 -0.309017 
110 -0.809017 -0.5 0.309017 
121 1 0 0 
125 0.809017 0.5 -0.309017 
122 0.809017 0.5 0.309017 
137 0.809017 -0.5 0.309017 
134 0.809017 -0.5 -0.309017 
0 3 2 12 14 
3 3 12 1 13 
6 3 14 13 0 
9 3 12 13 14 
12 3 1 12 16 
15 3 12 2 15 
18 3 16 15 3 
21 3 12 15 16 
24 3 5 17 19 
27 3 17 4 18 
30 3 19 18 3 
33 3 17 18 19 
36 3 4 20 18 
39 3 20 8 21 
42 3 18 21 3 
45 3 20 21 18 
48 3 7 22 24 
51 3 22 6 23 
54 3 24 23 0 
57 3 22 23 24 
60 3 6 25 23 
63 3 25 9 26 
66 3 23 26 0 
69 3 25 26 23 
72 3 11 27 29 
75 3 27 10 28 
78 3 29 28 4 
81 3 27 28 29 
84 3 10 27 31 
87 3 27 11 30 
90 3 31 30 6 
93 3 27 30 31 
96 3 9 32 34 
99 3 32 5 33 
102 3 34 33 2 
105 3 32 33 34 
108 3 5 32 36 
111 3 32 9 35 
114 3 36 35 11 
117 3 32 35 36 
120 3 8 37 39 
123 3 37 7 38 
126 3 39 38 1 
129 3 37 38 39 
132 3 7 37 41 
135 3 37 8 40 
138 3 41 40 10 
141 3 37 40 41 
144 3 2 33 15 
147 3 33 5 19 
150 3 15 19 3 
153 3 33 19 15 
156 3 8 39 21 
159 3 39 1 16 
162 3 21 16 3 
165 3 39 16 21 
168 3 9 34 26 
171 3 34 2 14 
174 3 26 14 0 
177 3 34 14 26 
180 3 1 38 13 
183 3 38 7 24 
186 3 13 24 0 
189 3 38 24 13 
192 3 11 35 30 
195 3 35 9 25 
198 3 30 25 6 
201 3 35 25 30 
204 3 7 41 22 
207 3 41 10 31 
210 3 22 31 6 
213 3 41 31 22 
216 3 5 36 17 
219 3 36 11 29 
222 3 17 29 4 
225 3 36 29 17 
228 3 10 40 28 
231 3 40 8 20 
234 3 28 20 4 
237 3 40 20 28 
15 1 0 0 2 
11 2 0 1 12 
172 0 0 2 14 
12 4 1 3 12 
182 5 1 4 1 
9 3 1 5 13 
10 7 2 6 14 
188 8 2 7 13 
175 6 2 8 0 
5 10 3 5 12 
6 11 3 6 13 
1 9 3 1 14 
3 13 4 3 1 
23 14 4 9 12 
160 12 4 10 16 
0 16 5 0 12 
146 17 5 11 2 
21 15 5 12 15 
22 19 6 13 16 
152 20 6 14 15 
163 18 6 15 3 
17 22 7 12 12 
18 23 7 13 15 
13 21 7 9 16 
218 25 8 16 5 
35 26 8 17 17 
148 24 8 18 19 
224 28 9 19 17 
38 29 9 20 4 
33 27 9 21 18 
34 31 10 22 19 
44 32 10 23 18 
151 30 10 24 3 
29 34 11 21 17 
30 35 11 22 18 
25 33 11 17 19 
235 37 12 25 4 
47 38 12 26 20 
28 36 12 20 18 
232 40 13 27 20 
158 41 13 28 8 
45 39 13 29 21 
46 43 14 30 18 
164 44 14 31 21 
31 42 14 23 3 
41 46 15 29 20 
42 47 15 30 21 
37 45 15 26 18 
206 49 16 32 7 
59 50 16 33 22 
184 48 16 34 24 
212 52 17 35 22 
62 53 17 36 6 
57 51 17 37 23 
58 55 18 38 24 
68 56 18 39 23 
187 54 18 40 0 
53 58 19 37 22 
54 59 19 38 23 
49 57 19 33 24 
199 61 20 41 6 
71 62 20 42 25 
52 60 20 36 23 
196 64 21 43 25 
170 65 21 44 9 
69 63 21 45 26 
70 67 22 46 23 
176 68 22 47 26 
55 66 22 39 0 
65 70 23 45 25 
66 71 23 46 26 
61 69 23 42 23 
87 73 24 48 11 
83 74 24 49 27 
220 72 24 50 29 
84 76 25 51 27 
230 77 25 52 10 
81 75 25 53 28 
82 79 26 54 29 
236 80 26 55 28 
223 78 26 56 4 
77 82 27 53 27 
78 83 27 54 28 
73 81 27 49 29 
75 85 28 51 10 
95 86 28 57 27 
208 84 28 58 31 
72 88 29 48 27 
194 89 29 59 11 
93 87 29 60 30 
94 91 30 61 31 
200 92 30 62 30 
211 90 30 63 6 
89 94 31 60 27 
90 95 31 61 30 
85 93 31 57 31 
111 97 32 64 9 
107 98 32 65 32 
168 96 32 66 34 
108 100 33 67 32 
147 101 33 68 5 
105 99 33 69 33 
106 103 34 70 34 
144 104 34 71 33 
171 102 34 72 2 
101 106 35 69 32 
102 107 35 70 33 
97 105 35 65 34 
99 109 36 67 5 
119 110 36 73 32 
216 108 36 74 36 
96 112 37 64 32 
195 113 37 75 9 
117 111 37 76 35 
118 115 38 77 36 
192 116 38 78 35 
219 114 38 79 11 
113 118 39 76 32 
114 119 39 77 35 
109 117 39 73 36 
135 121 40 80 8 
131 122 40 81 37 
156 120 40 82 39 
132 124 41 83 37 
183 125 41 84 7 
129 123 41 85 38 
130 127 42 86 39 
180 128 42 87 38 
159 126 42 88 1 
125 130 43 85 37 
126 131 43 86 38 
121 129 43 81 39 
123 133 44 83 7 
143 134 44 89 37 
204 132 44 90 41 
120 136 45 80 37 
231 137 45 91 8 
141 135 45 92 40 
142 139 46 93 41 
228 140 46 94 40 
207 138 46 95 10 
137 142 47 92 37 
138 143 47 93 40 
133 141 47 89 41 
103 145 48 71 2 
155 146 48 96 33 
16 144 48 11 15 
100 148 49 68 33 
26 149 49 18 5 
153 147 49 97 19 
154 151 50 98 15 
32 152 50 24 19 
19 150 50 14 3 
149 154 51 97 33 
150 155 51 98 19 
145 153 51 96 15 
122 157 52 82 8 
167 158 52 99 39 
40 156 52 28 21 
128 160 53 88 39 
14 161 53 10 1 
165 159 53 100 16 
166 163 54 101 21 
20 164 54 15 16 
43 162 54 31 3 
161 166 55 100 39 
162 167 55 101 16 
157 165 55 99 21 
98 169 56 66 9 
179 170 56 102 34 
64 168 56 44 26 
104 172 57 72 34 
2 173 57 2 2 
177 171 57 103 14 
178 175 58 104 26 
8 176 58 8 14 
67 174 58 47 0 
173 178 59 103 34 
174 179 59 104 14 
169 177 59 102 26 
127 181 60 87 1 
191 182 60 105 38 
4 180 60 4 13 
124 184 61 84 38 
50 185 61 34 7 
189 183 61 106 24 
190 187 62 107 13 
56 188 62 40 24 
7 186 62 7 0 
185 190 63 106 38 
186 191 63 107 24 
181 189 63 105 13 
115 193 64 78 11 
203 194 64 108 35 
88 192 64 59 30 
112 196 65 75 35 
63 197 65 43 9 
201 195 65 109 25 
202 199 66 110 30 
60 200 66 41 25 
91 198 66 62 6 
197 202 67 109 35 
198 203 67 110 25 
193 201 67 108 30 
134 205 68 90 7 
215 206 68 111 41 
48 204 68 32 22 
140 208 69 95 41 
86 209 69 58 10 
213 207 69 112 31 
214 211 70 113 22 
92 212 70 63 31 
51 210 70 35 6 
209 214 71 112 41 
210 215 71 113 31 
205 213 71 111 22 
110 217 72 74 5 
227 218 72 114 36 
24 216 72 16 17 
116 220 73 79 36 
74 221 73 50 11 
225 219 73 115 29 
226 223 74 116 17 
80 224 74 56 29 
27 222 74 19 4 
221 226 75 115 36 
222 227 75 116 29 
217 225 75 114 17 
139 229 76 94 10 
239 230 76 117 40 
76 228 76 52 28 
136 232 77 91 40 
39 233 77 27 8 
237 231 77 118 20 
238 235 78 119 28 
36 236 78 25 20 
79 234 78 55 4 
233 238 79 118 40 
234 239 79 119 20 
229 237 79 117 28 
0 2 2 12 
1 2 12 14 
2 2 2 14 
3 2 1 12 
4 2 1 13 
5 2 12 13 
6 2 13 14 
7 2 0 13 
8 2 0 14 
13 2 12 16 
14 2 1 16 
16 2 2 15 
17 2 12 15 
18 2 15 16 
19 2 3 15 
20 2 3 16 
24 2 5 17 
25 2 17 19 
26 2 5 19 
27 2 4 17 
28 2 4 18 
29 2 17 18 
30 2 18 19 
31 2 3 18 
32 2 3 19 
36 2 4 20 
37 2 18 20 
39 2 8 20 
40 2 8 21 
41 2 20 21 
42 2 18 21 
43 2 3 21 
48 2 7 22 
49 2 22 24 
50 2 7 24 
51 2 6 22 
52 2 6 23 
53 2 22 23 
54 2 23 24 
55 2 0 23 
56 2 0 24 
60 2 6 25 
61 2 23 25 
63 2 9 25 
64 2 9 26 
65 2 25 26 
66 2 23 26 
67 2 0 26 
72 2 11 27 
73 2 27 29 
74 2 11 29 
75 2 10 27 
76 2 10 28 
77 2 27 28 
78 2 28 29 
79 2 4 28 
80 2 4 29 
85 2 27 31 
86 2 10 31 
88 2 11 30 
89 2 27 30 
90 2 30 31 
91 2 6 30 
92 2 6 31 
96 2 9 32 
97 2 32 34 
98 2 9 34 
99 2 5 32 
100 2 5 33 
101 2 32 33 
102 2 33 34 
103 2 2 33 
104 2 2 34 
109 2 32 36 
110 2 5 36 
112 2 9 35 
113 2 32 35 
114 2 35 36 
115 2 11 35 
116 2 11 36 
120 2 8 37 
121 2 37 39 
122 2 8 39 
123 2 7 37 
124 2 7 38 
125 2 37 38 
126 2 38 39 
127 2 1 38 
128 2 1 39 
133 2 37 41 
134 2 7 41 
136 2 8 40 
137 2 37 40 
138 2 40 41 
139 2 10 40 
140 2 10 41 
145 2 15 33 
149 2 19 33 
150 2 15 19 
157 2 21 39 
161 2 16 39 
162 2 16 21 
169 2 26 34 
173 2 14 34 
174 2 14 26 
181 2 13 38 
185 2 24 38 
186 2 13 24 
193 2 30 35 
197 2 25 35 
198 2 25 30 
205 2 22 41 
209 2 31 41 
210 2 22 31 
217 2 17 36 
221 2 29 36 
222 2 17 29 
229 2 28 40 
233 2 20 40 
234 2 20 28 
