ply
format ascii 1.0
comment MathUtils ply
element vertex 42
property double x
property double y
property double z
property int h_out
element half_edge 240
property int e_undirected
property int h_twin
property int h_next
property int f_left
property int v_origin
element edge 120
property list uchar int V_cycle
property int h_directed
element boundary 0
property int h_negative
element face 80
property int h_right
property list uchar int V_cycle
end_header
0 0.525731 -0.850651 8 
0.525731 0.850651 0 4 
-0.525731 0.850651 0 0 
0 0.525731 0.850651 20 
0 -0.525731 0.850651 28 
-0.850651 0 0.525731 24 
0 -0.525731 -0.850651 52 
0.850651 0 -0.525731 48 
0.850651 0 0.525731 40 
-0.850651 0 -0.525731 64 
0.525731 -0.850651 0 76 
-0.525731 -0.850651 0 72 
0 1 0 1 
0.309017 0.809017 -0.5 5 
-0.309017 0.809017 -0.5 2 
-0.309017 0.809017 0.5 17 
0.309017 0.809017 0.5 14 
-0.5 -0.309017 0.809017 25 
0 0 1 29 
-0.5 0.309017 0.809017 26 
0.5 -0.309017 0.809017 37 
0.5 0.309017 0.809017 41 
0.5 -0.309017 -0.809017 49 
0 0 -1 53 
0.5 0.309017 -0.809017 50 
-0.5 -0.309017 -0.809017 61 
-0.5 0.309017 -0.809017 65 
0 -1 0 73 
0.309017 -0.809017 0.5 77 
-0.309017 -0.809017 0.5 74 
-0.309017 -0.809017 -0.5 89 
0.309017 -0.809017 -0.5 86 
-1 0 0 97 
-0.809017 0.5 0.309017 101 
-0.809017 0.5 -0.309017 98 
-0.809017 -0.5 -0.309017 113 
-0.809017 -0.5 0.309017 110 
1 0 0 121 
0.809017 0.5 -0.309017 125 
0.809017 0.5 0.309017 122 
0.809017 -0.5 0.309017 137 
0.809017 -0.5 -0.309017 134 
0 15 1 0 2 
1 11 2 0 12 
2 172 0 0 14 
3 12 4 1 12 
4 182 5 1 1 
5 9 3 1 13 
6 10 7 2 14 
7 188 8 2 13 
8 175 6 2 0 
5 5 10 3 12 
6 6 11 3 13 
1 1 9 3 14 
3 3 13 4 1 
9 23 14 4 12 
10 160 12 4 16 
0 0 16 5 12 
11 146 17 5 2 
12 21 15 5 15 
13 22 19 6 16 
14 152 20 6 15 
15 163 18 6 3 
12 17 22 7 12 
13 18 23 7 15 
9 13 21 7 16 
16 218 25 8 5 
17 35 26 8 17 
18 148 24 8 19 
19 224 28 9 17 
20 38 29 9 4 
21 33 27 9 18 
22 34 31 10 19 
23 44 32 10 18 
24 151 30 10 3 
21 29 34 11 17 
22 30 35 11 18 
17 25 33 11 19 
25 235 37 12 4 
26 47 38 12 20 
20 28 36 12 18 
27 232 40 13 20 
28 158 41 13 8 
29 45 39 13 21 
30 46 43 14 18 
31 164 44 14 21 
23 31 42 14 3 
29 41 46 15 20 
30 42 47 15 21 
26 37 45 15 18 
32 206 49 16 7 
33 59 50 16 22 
34 184 48 16 24 
35 212 52 17 22 
36 62 53 17 6 
37 57 51 17 23 
38 58 55 18 24 
39 68 56 18 23 
40 187 54 18 0 
37 53 58 19 22 
38 54 59 19 23 
33 49 57 19 24 
41 199 61 20 6 
42 71 62 20 25 
36 52 60 20 23 
43 196 64 21 25 
44 170 65 21 9 
45 69 63 21 26 
46 70 67 22 23 
47 176 68 22 26 
39 55 66 22 0 
45 65 70 23 25 
46 66 71 23 26 
42 61 69 23 23 
48 87 73 24 11 
49 83 74 24 27 
50 220 72 24 29 
51 84 76 25 27 
52 230 77 25 10 
53 81 75 25 28 
54 82 79 26 29 
55 236 80 26 28 
56 223 78 26 4 
53 77 82 27 27 
54 78 83 27 28 
49 73 81 27 29 
51 75 85 28 10 
57 95 86 28 27 
58 208 84 28 31 
48 72 88 29 27 
59 194 89 29 11 
60 93 87 29 30 
61 94 91 30 31 
62 200 92 30 30 
63 211 90 30 6 
60 89 94 31 27 
61 90 95 31 30 
57 85 93 31 31 
64 111 97 32 9 
65 107 98 32 32 
66 168 96 32 34 
67 108 100 33 32 
68 147 101 33 5 
69 105 99 33 33 
70 106 103 34 34 
71 144 104 34 33 
72 171 102 34 2 
69 101 106 35 32 
70 102 107 35 33 
65 97 105 35 34 
67 99 109 36 5 
73 119 110 36 32 
74 216 108 36 36 
64 96 112 37 32 
75 195 113 37 9 
76 117 111 37 35 
77 118 115 38 36 
78 192 116 38 35 
79 219 114 38 11 
76 113 118 39 32 
77 114 119 39 35 
73 109 117 39 36 
80 135 121 40 8 
81 131 122 40 37 
82 156 120 40 39 
83 132 124 41 37 
84 183 125 41 7 
85 129 123 41 38 
86 130 127 42 39 
87 180 128 42 38 
88 159 126 42 1 
85 125 130 43 37 
86 126 131 43 38 
81 121 129 43 39 
83 123 133 44 7 
89 143 134 44 37 
90 204 132 44 41 
80 120 136 45 37 
91 231 137 45 8 
92 141 135 45 40 
93 142 139 46 41 
94 228 140 46 40 
95 207 138 46 10 
92 137 142 47 37 
93 138 143 47 40 
89 133 141 47 41 
71 103 145 48 2 
96 155 146 48 33 
11 16 144 48 15 
68 100 148 49 33 
18 26 149 49 5 
97 153 147 49 19 
98 154 151 50 15 
24 32 152 50 19 
14 19 150 50 3 
97 149 154 51 33 
98 150 155 51 19 
96 145 153 51 15 
82 122 157 52 8 
99 167 158 52 39 
28 40 156 52 21 
88 128 160 53 39 
10 14 161 53 1 
100 165 159 53 16 
101 166 163 54 21 
15 20 164 54 16 
31 43 162 54 3 
100 161 166 55 39 
101 162 167 55 16 
99 157 165 55 21 
66 98 169 56 9 
102 179 170 56 34 
44 64 168 56 26 
72 104 172 57 34 
2 2 173 57 2 
103 177 171 57 14 
104 178 175 58 26 
8 8 176 58 14 
47 67 174 58 0 
103 173 178 59 34 
104 174 179 59 14 
102 169 177 59 26 
87 127 181 60 1 
105 191 182 60 38 
4 4 180 60 13 
84 124 184 61 38 
34 50 185 61 7 
106 189 183 61 24 
107 190 187 62 13 
40 56 188 62 24 
7 7 186 62 0 
106 185 190 63 38 
107 186 191 63 24 
105 181 189 63 13 
78 115 193 64 11 
108 203 194 64 35 
59 88 192 64 30 
75 112 196 65 35 
43 63 197 65 9 
109 201 195 65 25 
110 202 199 66 30 
41 60 200 66 25 
62 91 198 66 6 
109 197 202 67 35 
110 198 203 67 25 
108 193 201 67 30 
90 134 205 68 7 
111 215 206 68 41 
32 48 204 68 22 
95 140 208 69 41 
58 86 209 69 10 
112 213 207 69 31 
113 214 211 70 22 
63 92 212 70 31 
35 51 210 70 6 
112 209 214 71 41 
113 210 215 71 31 
111 205 213 71 22 
74 110 217 72 5 
114 227 218 72 36 
16 24 216 72 17 
79 116 220 73 36 
50 74 221 73 11 
115 225 219 73 29 
116 226 223 74 17 
56 80 224 74 29 
19 27 222 74 4 
115 221 226 75 36 
116 222 227 75 29 
114 217 225 75 17 
94 139 229 76 10 
117 239 230 76 40 
52 76 228 76 28 
91 136 232 77 40 
27 39 233 77 8 
118 237 231 77 20 
119 238 235 78 28 
25 36 236 78 20 
55 79 234 78 4 
118 233 238 79 40 
119 234 239 79 20 
117 229 237 79 28 
2 0 13 0 
2 0 14 1 
2 0 23 2 
2 0 24 3 
2 0 26 4 
2 1 12 5 
2 1 13 6 
2 1 16 7 
2 1 38 8 
2 1 39 13 
2 2 12 14 
2 2 14 16 
2 2 15 17 
2 2 33 18 
2 2 34 19 
2 3 15 20 
2 3 16 24 
2 3 18 25 
2 3 19 26 
2 3 21 27 
2 4 17 28 
2 4 18 29 
2 4 20 30 
2 4 28 31 
2 4 29 32 
2 5 17 36 
2 5 19 37 
2 5 32 39 
2 5 33 40 
2 5 36 41 
2 6 22 42 
2 6 23 43 
2 6 25 48 
2 6 30 49 
2 6 31 50 
2 7 22 51 
2 7 24 52 
2 7 37 53 
2 7 38 54 
2 7 41 55 
2 8 20 56 
2 8 21 60 
2 8 37 61 
2 8 39 63 
2 8 40 64 
2 9 25 65 
2 9 26 66 
2 9 32 67 
2 9 34 72 
2 9 35 73 
2 10 27 74 
2 10 28 75 
2 10 31 76 
2 10 40 77 
2 10 41 78 
2 11 27 79 
2 11 29 80 
2 11 30 85 
2 11 35 86 
2 11 36 88 
2 12 13 89 
2 12 14 90 
2 12 15 91 
2 12 16 92 
2 13 14 96 
2 13 24 97 
2 13 38 98 
2 14 26 99 
2 14 34 100 
2 15 16 101 
2 15 19 102 
2 15 33 103 
2 16 21 104 
2 16 39 109 
2 17 18 110 
2 17 19 112 
2 17 29 113 
2 17 36 114 
2 18 19 115 
2 18 20 116 
2 18 21 120 
2 19 33 121 
2 20 21 122 
2 20 28 123 
2 20 40 124 
2 21 39 125 
2 22 23 126 
2 22 24 127 
2 22 31 128 
2 22 41 133 
2 23 24 134 
2 23 25 136 
2 23 26 137 
2 24 38 138 
2 25 26 139 
2 25 30 140 
2 25 35 145 
2 26 34 149 
2 27 28 150 
2 27 29 157 
2 27 30 161 
2 27 31 162 
2 28 29 169 
2 28 40 173 
2 29 36 174 
2 30 31 181 
2 30 35 185 
2 31 41 186 
2 32 33 193 
2 32 34 197 
2 32 35 198 
2 32 36 205 
2 33 34 209 
2 35 36 210 
2 37 38 217 
2 37 39 221 
2 37 40 222 
2 37 41 229 
2 38 39 233 
2 40 41 234 
0 3 2 12 14 
3 3 12 1 13 
6 3 14 13 0 
9 3 12 13 14 
12 3 1 12 16 
15 3 12 2 15 
18 3 16 15 3 
21 3 12 15 16 
24 3 5 17 19 
27 3 17 4 18 
30 3 19 18 3 
33 3 17 18 19 
36 3 4 20 18 
39 3 20 8 21 
42 3 18 21 3 
45 3 20 21 18 
48 3 7 22 24 
51 3 22 6 23 
54 3 24 23 0 
57 3 22 23 24 
60 3 6 25 23 
63 3 25 9 26 
66 3 23 26 0 
69 3 25 26 23 
72 3 11 27 29 
75 3 27 10 28 
78 3 29 28 4 
81 3 27 28 29 
84 3 10 27 31 
87 3 27 11 30 
90 3 31 30 6 
93 3 27 30 31 
96 3 9 32 34 
99 3 32 5 33 
102 3 34 33 2 
105 3 32 33 34 
108 3 5 32 36 
111 3 32 9 35 
114 3 36 35 11 
117 3 32 35 36 
120 3 8 37 39 
123 3 37 7 38 
126 3 39 38 1 
129 3 37 38 39 
132 3 7 37 41 
135 3 37 8 40 
138 3 41 40 10 
141 3 37 40 41 
144 3 2 33 15 
147 3 33 5 19 
150 3 15 19 3 
153 3 33 19 15 
156 3 8 39 21 
159 3 39 1 16 
162 3 21 16 3 
165 3 39 16 21 
168 3 9 34 26 
171 3 34 2 14 
174 3 26 14 0 
177 3 34 14 26 
180 3 1 38 13 
183 3 38 7 24 
186 3 13 24 0 
189 3 38 24 13 
192 3 11 35 30 
195 3 35 9 25 
198 3 30 25 6 
201 3 35 25 30 
204 3 7 41 22 
207 3 41 10 31 
210 3 22 31 6 
213 3 41 31 22 
216 3 5 36 17 
219 3 36 11 29 
222 3 17 29 4 
225 3 36 29 17 
228 3 10 40 28 
231 3 40 8 20 
234 3 28 20 4 
237 3 40 20 28 
